<?xml version="1.0" standalone="no"?>
<!DOCTYPE svg PUBLIC "-//W3C//DTD SVG 1.1//EN" "http://www.w3.org/Graphics/SVG/1.1/DTD/svg11.dtd" >
<svg>
<metadata>
Created by FontForge 20090914 at Sat Oct 26 17:51:14 2024
 By www-data
Free for personal and commercial use
</metadata>
<defs>
<font id="Pershotravneva55-Regular" horiz-adv-x="190" >
  <font-face 
    font-family="Pershotravneva55"
    font-weight="400"
    font-stretch="normal"
    units-per-em="1000"
    panose-1="2 0 5 3 0 0 0 0 0 0"
    ascent="800"
    descent="-200"
    cap-height="660.998"
    bbox="-0.000976562 -187.001 839.003 932.997"
    underline-thickness="50"
    underline-position="-50"
    unicode-range="U+000D-U+201D"
  />
<missing-glyph horiz-adv-x="364" 
d="M33 0v666h265v-666h-265zM66 33h199v600h-199v-600z" />
    <glyph glyph-name=".notdef" horiz-adv-x="364" 
d="M33 0v666h265v-666h-265zM66 33h199v600h-199v-600z" />
    <glyph glyph-name=".null" 
 />
    <glyph glyph-name=".null" 
 />
    <glyph glyph-name="CR" unicode="&#xd;" 
 />
    <glyph glyph-name="space" unicode=" " 
 />
    <glyph glyph-name="exclam" unicode="!" horiz-adv-x="257" 
d="M8 619c4.66699 2.66699 10 3.99902 16 3.99902c8.66699 0 16 -3 22 -9c11.333 -12.667 43.333 -81.667 96 -207c25.333 -60 40.333 -91.667 45 -95c3.33301 -2 5 -7 5 -15c0 -12 -3 -27 -9 -45s-12.667 -31 -20 -39c-4.66699 -6 -10 -9 -16 -9s-13.333 3.33301 -22 10
c-21.333 16.667 -42.333 64.334 -63 143.001c-40.667 154 -61 237.333 -61 250c0 6 2.33301 10 7 12zM164 129.999c3.33301 0.666992 11.499 2.5 24.499 5.5s22.167 4.5 27.5 4.5c4 0 10.667 -2.33301 20 -7s15.333 -8.66699 18 -12c1.33301 -1.33301 2 -5.66602 2 -12.999
c0 -22 -4.66699 -43.333 -14 -64c-19.333 -46.667 -36.666 -70 -51.999 -70c-2.66699 0 -4.66699 0.333008 -6 1c-13.333 7.33301 -27.5 22 -42.5 44s-22.5 39 -22.5 51c0 6 5 17 15 33c6.66699 10 11.667 16.667 15 20s8.33301 5.66602 15 6.99902z" />
    <glyph glyph-name="quotedbl" unicode="&#x22;" horiz-adv-x="235" 
d="M36 650c4 0.666992 8.33105 1.66797 12.998 3.00098s8.33398 2.33301 11.001 3s4.33398 1 5.00098 1h1c8 0 21 -7.33301 39 -22c6.66699 -5.33301 10 -16 10 -32c0 -8 -1.66699 -15.333 -5 -22c-0.666992 -0.666992 -1 -2.66699 -1 -6c0 -10 5 -31 15 -63
c12.667 -40.667 19 -70 19 -88c0 -10.667 -2 -16.334 -6 -17.001c-0.666992 -0.666992 -2 -1 -4 -1c-4 0 -9.16699 4.33301 -15.5 13s-19.5 28.334 -39.5 59.001c-51.333 79.333 -77 127.666 -77 144.999c0 12.667 11.667 21.667 35 27zM132.998 598.001
l0.000976562 9.49805c0 2.33301 0.5 4.5 1.5 6.5l2 4c0.333008 0.666992 1.5 1.5 3.5 2.5s3.66699 1.66699 5 2s3.66602 0.833008 6.99902 1.5s6.33301 1.33398 9 2.00098c13.333 3.33301 21.333 5 24 5c0.666992 0 5 -1.66699 13 -5
c5.33301 -3.33301 8.83301 -6.5 10.5 -9.5s2.5 -9.5 2.5 -19.5c0 -11.333 3.33301 -38.333 10 -81c9.33301 -51.333 14 -81.666 14 -90.999c0 -4.66699 -1 -7 -3 -7c-10.667 0 -32 31.333 -64 94c-23.333 47.333 -35 76 -35 86z" />
    <glyph glyph-name="quotedbl" unicode="&#x201e;" horiz-adv-x="235" 
d="M36 650c4 0.666992 8.33105 1.66797 12.998 3.00098s8.33398 2.33301 11.001 3s4.33398 1 5.00098 1h1c8 0 21 -7.33301 39 -22c6.66699 -5.33301 10 -16 10 -32c0 -8 -1.66699 -15.333 -5 -22c-0.666992 -0.666992 -1 -2.66699 -1 -6c0 -10 5 -31 15 -63
c12.667 -40.667 19 -70 19 -88c0 -10.667 -2 -16.334 -6 -17.001c-0.666992 -0.666992 -2 -1 -4 -1c-4 0 -9.16699 4.33301 -15.5 13s-19.5 28.334 -39.5 59.001c-51.333 79.333 -77 127.666 -77 144.999c0 12.667 11.667 21.667 35 27zM132.998 598.001
l0.000976562 9.49805c0 2.33301 0.5 4.5 1.5 6.5l2 4c0.333008 0.666992 1.5 1.5 3.5 2.5s3.66699 1.66699 5 2s3.66602 0.833008 6.99902 1.5s6.33301 1.33398 9 2.00098c13.333 3.33301 21.333 5 24 5c0.666992 0 5 -1.66699 13 -5
c5.33301 -3.33301 8.83301 -6.5 10.5 -9.5s2.5 -9.5 2.5 -19.5c0 -11.333 3.33301 -38.333 10 -81c9.33301 -51.333 14 -81.666 14 -90.999c0 -4.66699 -1 -7 -3 -7c-10.667 0 -32 31.333 -64 94c-23.333 47.333 -35 76 -35 86z" />
    <glyph glyph-name="numbersign" unicode="#" horiz-adv-x="617" 
d="M263 275c-4.66699 33.333 -8 50 -10 50c-32.667 -6 -49 -11 -49 -15c0 -6 3 -19 9 -39s10 -30 12 -30c2.66699 0 10 3 22 9c11.333 5.33301 17 10.333 17 15c0 4 -0.333008 7.33301 -1 10zM103 564c8.66699 0 15.999 -2.00293 21.999 -6.00293
c5.33301 -3.33301 12.833 -19.166 22.5 -47.499s17.834 -55.833 24.501 -82.5l11 -39c0 -0.666992 2.66699 -0.166992 8 1.5s13.666 4.5 24.999 8.5c19.333 7.33301 29 13.333 29 18v3c-2 10 -3 32.333 -3 67l-1 58l12 4c6.66699 1.33301 11 2 13 2
c11.333 0 20 -4.33301 26 -13c4 -6.66699 9.66699 -24.667 17 -54l12 -44l48 18c38.667 14.667 65 23.334 79 26.001c14.667 3.33301 23.334 5 26.001 5c4 0 10.667 -2.33301 20 -7s15.333 -8.33398 18 -11.001s4 -6.66699 4 -12c0 -4 -0.333008 -7.33301 -1 -10
c-2.66699 -22 -10.5 -42.5 -23.5 -61.5s-25.5 -28.5 -37.5 -28.5c-8 0 -13.333 1.33301 -16 4c-1.33301 1.33301 -3.66602 2 -6.99902 2c-4.66699 0 -18.334 -2.66699 -41.001 -8c-28.667 -7.33301 -43.667 -11.666 -45 -12.999v-1c0 -12 3.33301 -26 10 -42
c0 -0.666992 0.666992 -1 2 -1c4.66699 0 14.667 2.83301 30 8.5s33.166 12.834 53.499 21.501s31.833 13.667 34.5 15c52 22 87.667 33 107 33c6 0 10 -1.33301 12 -4c4 -4 8.33301 -6.33301 13 -7c6.66699 -0.666992 10 -8.66699 10 -24
c0 -14.667 -1.66699 -25.334 -5 -32.001c-3.33301 -8 -5 -13 -5 -15l-1 -3c-1.33301 -2 -2.83301 -5 -4.5 -9s-3.16699 -7.33301 -4.5 -10c-6.66699 -14 -12.667 -21.333 -18 -22c-16.667 -3.33301 -31 -6.33301 -43 -9c-19.333 -4 -50 -11.5 -92 -22.5
s-63.667 -17.167 -65 -18.5v-1c0 -4.66699 4 -19.667 12 -45c10 -33.333 15 -60 15 -80c0 -10.667 -1.66699 -20 -5 -28c-1.33301 -2 -2.5 -4.16699 -3.5 -6.5s-1.5 -4.16602 -1.5 -5.49902v-1l-1 -3c-0.666992 -2 -1.66699 -4.66699 -3 -8s-3 -7 -5 -11
c-7.33301 -15.333 -15 -23 -23 -23c-5.33301 0 -12.333 2.66699 -21 8c-26.667 18 -45.667 59.667 -57 125c-6 32 -9.66699 48.667 -11 50c-0.666992 0.666992 -7 -0.666016 -19 -3.99902c-7.33301 -2.66699 -12 -4.83398 -14 -6.50098s-2.33301 -4.16699 -1 -7.5
c4 -19.333 9.33301 -31.333 16 -36c5.33301 -2.66699 8 -12.334 8 -29.001c0 -18 -2.33301 -31.667 -7 -41c-10.667 -24.667 -18.667 -41.334 -24 -50.001s-11 -13 -17 -13c-5.33301 0 -12 3 -20 9c-10.667 7.33301 -21.167 20.333 -31.5 39s-17.5 37.334 -21.5 56.001
c-0.666992 5.33301 -4 20.333 -10 45l-32 -8c-21.333 -5.33301 -34 -8 -38 -8c-6 0 -10 3.66699 -12 11c-0.666992 1.33301 -1 3.33301 -1 6c0 12 14 25.333 42 40l32 17c0.666992 0.666992 -1.83301 16.834 -7.5 48.501s-9.16699 48.167 -10.5 49.5h-1
c-1.33301 0 -12.666 -1.33301 -33.999 -4c-14 -2 -25.333 -3 -34 -3c-19.333 0 -31 4.66699 -35 14c-1.33301 4 -2 6.66699 -2 8c0 8 17 18 51 30c6.66699 2 13.667 4.5 21 7.5s13 5.16699 17 6.5l6 3c0.666992 0 0.5 4 -0.5 12s-2.5 19.333 -4.5 34s-4.33301 30 -7 46
c-7.33301 56 -11 89.333 -11 100c0 12.667 10 19 30 19z" />
    <glyph glyph-name="dollar" unicode="$" horiz-adv-x="614" 
d="M404 251c-22 2 -39.001 3.66699 -51.001 5l-33 3l7 -17c1.33301 -2.66699 2.5 -5.5 3.5 -8.5s1.83301 -5.16699 2.5 -6.5s1.33398 -2.83301 2.00098 -4.5s1.5 -2.66699 2.5 -3s2.16699 -0.5 3.5 -0.5l32 10c29.333 10.667 44 16.667 44 18c0 2 -4.33301 3.33301 -13 4z
M166.999 618c2 4 4.00391 5.99805 6.00391 5.99805c6.66699 0 11.667 -8.66699 15 -26c1.33301 -9.33301 7.33301 -27.333 18 -54s18.667 -40 24 -40c1.33301 0 20.666 5.33301 57.999 16c46.667 14.667 83 22 109 22c11.333 0 19.666 -1.33301 24.999 -4
c10.667 -4 16 -10.333 16 -19s-2.5 -15 -7.5 -19s-15.833 -9 -32.5 -15c-18.667 -6 -46.834 -18 -84.501 -36s-56.5 -28.333 -56.5 -31c0 -4 1.66699 -8.66699 5 -14c2.66699 -4.66699 7.5 -7.66699 14.5 -9s29.833 -2.66602 68.5 -3.99902
c73.333 -2.66699 129.166 -8.16699 167.499 -16.5s68.166 -21.5 89.499 -39.5c5.33301 -5.33301 8.66602 -10 9.99902 -14s2 -12.333 2 -25c0 -22.667 -4.66699 -45.834 -14 -69.501s-21.666 -42.5 -36.999 -56.5c-22.667 -22.667 -64 -44.667 -124 -66l-35 -12v-18
c0 -15.333 -7.33301 -38 -22 -68c-6.66699 -14 -14 -21 -22 -21c-6 0 -13.667 4.66699 -23 14c-5.33301 5.33301 -12.666 15.5 -21.999 30.5s-15.333 26.167 -18 33.5h-1c-3.33301 0 -14 -1.66699 -32 -5c-24 -4 -45.667 -6 -65 -6c-14.667 0 -24.667 0.666992 -30 2
s-13.333 5.66602 -24 12.999c-14 9.33301 -27 24.333 -39 45s-18 38.334 -18 53.001c0 26 16.333 41 49 45c1.33301 0 3.33301 0.166992 6 0.5s4.66699 0.5 6 0.5c10.667 0 20.167 -1.5 28.5 -4.5s12.5 -6.5 12.5 -10.5c0 -3.33301 6 -5 18 -5c6 0 13 0.333008 21 1
s14.5 1.33398 19.5 2.00098s7.5 1.33398 7.5 2.00098c0.666992 0.666992 -2 11.667 -8 33l-8 32l-71 3c-38 1.33301 -65.333 3.66602 -82 6.99902s-30.334 9.33301 -41.001 18c-8.66699 6.66699 -18.334 19.834 -29.001 39.501s-16 33.834 -16 42.501c0 14 7 26.333 21 37
c5.33301 4 23.333 13.667 54 29s54 26.333 70 33c4 2 8.83301 4.16699 14.5 6.5s9.83398 4.16602 12.501 5.49902s4.33398 2 5.00098 2c2 1.33301 1.66699 8 -1 20c-7.33301 30.667 -11 65.667 -11 105v6z" />
    <glyph glyph-name="percent" unicode="%" horiz-adv-x="628" 
d="M428 589c10.667 11.333 19.001 17.001 25.001 17.001h4c6 -0.666992 9.66699 -1.66699 11 -3s2 -5 2 -11c-0.666992 -6 -29 -61.167 -85 -165.5l-173 -313.5c-19.333 -34 -31.333 -56 -36 -66s-7 -19.667 -7 -29c0.666992 -18.667 -6 -39.5 -20 -62.5
s-28.667 -36.5 -44 -40.5h-4c-18 0 -35.333 16.333 -52 49c-8.66699 17.333 -13 31 -13 41c0 7.33301 2 14.666 6 21.999c5.33301 10.667 54.166 84.5 146.499 221.5l186.5 272.5c21.333 29.333 39 52 53 68zM111.001 443.001c-8 5.33301 -13.001 7.99902 -15.001 7.99902
c-3.33301 0 -7.33301 -4.33301 -12 -13s-7 -15.667 -7 -21c0 -2 0.333008 -3.33301 1 -4c2 -3.33301 3.83301 -5 5.5 -5s5.83398 2 12.501 6c14.667 8.66699 22 15.334 22 20.001c0 2.66699 -2.33301 5.66699 -7 9zM145 562c18 4 33.002 5.99805 45.002 5.99805
c15.333 0 29.333 -3.33301 42 -10c14.667 -7.33301 24.167 -14.666 28.5 -21.999s6.5 -20.333 6.5 -39c0 -27.333 -6 -55.5 -18 -84.5s-27 -52.167 -45 -69.5c-14 -14 -31.5 -25.5 -52.5 -34.5s-40.5 -13.5 -58.5 -13.5c-4 0 -9.33301 0.666992 -16 2
c-17.333 4.66699 -34.333 18.667 -51 42s-25 44.333 -25 63c0 15.333 5.16699 31.333 15.5 48s23.5 30.334 39.5 41.001c11.333 8 19.666 18 24.999 30c9.33301 20 30.666 33.667 63.999 41zM471.002 128.998c-6 -2.66699 -12.667 -3.99805 -20 -3.99805
c-9.33301 0 -19.333 3 -30 9c-3.33301 1.33301 -5.16602 1.66602 -5.49902 0.999023s0.833984 -4.33398 3.50098 -11.001c6 -13.333 12.333 -20 19 -20c5.33301 0 11.666 2.33301 18.999 7c11.333 5.33301 20 11 26 17c3.33301 4 4.66602 6 3.99902 6s-6 -1.66699 -16 -5z
M501.002 265c14.667 3.33301 28.666 5.00098 41.999 5.00098c12 0 25.5 -3.33301 40.5 -10s26.167 -14.334 33.5 -23.001c7.33301 -8 11 -22.667 11 -44c0 -34.667 -9.66699 -68.667 -29 -102s-43.333 -57.333 -72 -72c-25.333 -12.667 -48.666 -19 -69.999 -19
c-23.333 0 -44 8 -62 24c-28 25.333 -42 56.333 -42 93c0 20.667 4.66699 39.667 14 57c8.66699 17.333 23 36 43 56s35 31.333 45 34c9.33301 2 15.333 1.66699 18 -1c2 -2 11.333 -1.33301 28 2z" />
    <glyph glyph-name="ampersand" unicode="&#x26;" horiz-adv-x="643" 
d="M172 179c-22 16 -33.668 24.001 -35.001 24.001c-2 0 -5 -3.33301 -9 -10s-6 -12 -6 -16c0 -14 11 -32 33 -54c20.667 -20.667 52 -34.334 94 -41.001c12 -2 21 -3 27 -3c6.66699 0 14.334 2 23.001 6l19 8l-32 15c-39.333 20 -77.333 43.667 -114 71zM270.999 545.001
c-16 5.33301 -32.665 8.00195 -49.998 8.00195c-38.667 0 -68.334 -15.667 -89.001 -47c-7.33301 -10.667 -11 -24.334 -11 -41.001c0 -12 2.83301 -27.167 8.5 -45.5s10.167 -27.5 13.5 -27.5c2.66699 0 16.334 9.5 41.001 28.5s43 34.167 55 45.5
c27.333 26.667 43.666 48 48.999 64c1.33301 4 1.16602 6.66699 -0.500977 8s-7.16699 3.66602 -16.5 6.99902zM176.001 686.003c25.333 5.33301 46.3301 8.00098 62.9971 8.00098c29.333 0 60.333 -8.66699 93 -26c30 -16 50.833 -32.5 62.5 -49.5s17.5 -39.167 17.5 -66.5
c0 -42.667 -12.167 -84.834 -36.5 -126.501s-58.166 -78.5 -101.499 -110.5c-21.333 -17.333 -32 -26.666 -32 -27.999c0 -4.66699 23.833 -18.334 71.5 -41.001s74.5 -34 80.5 -34c0.666992 0 1 3.66699 1 11c0 15.333 -0.333008 28.333 -1 39
c-0.666992 8.66699 -1 19 -1 31c0 12.667 1.5 20.667 4.5 24s9.5 5.66602 19.5 6.99902h5c14 0 27.333 -8.16699 40 -24.5s22 -37.5 28 -63.5c4 -21.333 6 -36.333 6 -45c0 -11.333 1 -17 3 -17c0.666992 0 11.667 -2 33 -6c12.667 -2.66699 24.667 -4 36 -4
c7.33301 0 12.666 0.333008 15.999 1c9.33301 1.33301 15 2 17 2c4.66699 0 10.334 -1.33301 17.001 -4c9.33301 -4.66699 15.333 -7.33398 18 -8.00098c4.66699 -2 7 -10.333 7 -25s-2 -26.667 -6 -36c-1.33301 -2 -2.33301 -4 -3 -6s-1 -3.33301 -1 -4v-2
c1.33301 0 0.333008 -3.5 -3 -10.5s-7.5 -14.333 -12.5 -22s-8.83301 -12.834 -11.5 -15.501c-8.66699 -7.33301 -25 -11 -49 -11c-18 0 -38.333 2.66699 -61 8c-18 4.66699 -29.667 7 -35 7c-3.33301 0 -5.33301 -1 -6 -3c-1.33301 -4 -10 -14 -26 -30
c-42 -44 -97 -66 -165 -66c-19.333 0 -40.333 2.66699 -63 8c-33.333 8.66699 -65.666 24.334 -96.999 47.001c-19.333 14.667 -34.166 28.334 -44.499 41.001s-21.833 32 -34.5 58c-10.667 20.667 -17.167 35.167 -19.5 43.5s-3.83301 20.833 -4.5 37.5v12
c0 30.667 11 63.334 33 98.001l18 26l-18 34c-19.333 40 -29 79.667 -29 119c0 30.667 5.33301 60 16 88c14.667 41.333 33.5 71.833 56.5 91.5s55.833 34.167 98.5 43.5z" />
    <glyph glyph-name="quotesingle" unicode="'" horiz-adv-x="181" 
d="M1 615c0 11.333 9.66699 17.001 29 17.001c8 0 17.333 -4.83301 28 -14.5s37.667 -38.167 81 -85.5c28 -30 42 -51 42 -63c0 -7.33301 -3.66699 -19 -11 -35c-5.33301 -10 -9.33301 -16.333 -12 -19s-7 -4.33398 -13 -5.00098h-3c-28.667 0 -66.667 48 -114 144
c-18 36 -27 56.333 -27 61z" />
    <glyph glyph-name="quotesingle" unicode="&#x201a;" horiz-adv-x="181" 
d="M1 615c0 11.333 9.66699 17.001 29 17.001c8 0 17.333 -4.83301 28 -14.5s37.667 -38.167 81 -85.5c28 -30 42 -51 42 -63c0 -7.33301 -3.66699 -19 -11 -35c-5.33301 -10 -9.33301 -16.333 -12 -19s-7 -4.33398 -13 -5.00098h-3c-28.667 0 -66.667 48 -114 144
c-18 36 -27 56.333 -27 61z" />
    <glyph glyph-name="parenleft" unicode="(" horiz-adv-x="354" 
d="M79 602c8.66699 6 16.002 8.66602 22.002 7.99902c4.66699 -0.666992 7.5 -1.83398 8.5 -3.50098s1.5 -6.5 1.5 -14.5c-0.666992 -20 -5.33398 -45.333 -14.001 -76c-7.33301 -26 -11 -56.667 -11 -92c0 -34 3.33301 -62 10 -84
c11.333 -39.333 29.666 -77.666 54.999 -114.999c16 -24 44 -53.833 84 -89.5s65.333 -53.5 76 -53.5c4.66699 0 13 -3 25 -9l18 -9l-2 -28c-0.666992 -9.33301 -1.66699 -17 -3 -23s-2.5 -10.333 -3.5 -13s-3 -7 -6 -13s-5.5 -11.667 -7.5 -17
c-6.66699 -14 -13.667 -23 -21 -27c-4 -2 -7.33301 -3 -10 -3c-4 0 -10.667 2.33301 -20 7c-14.667 7.33301 -35.334 21.5 -62.001 42.5s-49.334 40.833 -68.001 59.5c-29.333 30 -57.333 67.833 -84 113.5s-44.667 87.167 -54 124.5c-8 31.333 -12 65 -12 101
c0 20.667 1.66699 40.334 5 59.001c6.66699 30.667 17.334 61.667 32.001 93s28.334 52 41.001 62z" />
    <glyph glyph-name="parenright" unicode=")" horiz-adv-x="366" 
d="M14 623c5.33301 2 11.334 2.99707 18.001 2.99707c18.667 0 39.667 -5 63 -15c59.333 -27.333 112.666 -70.166 159.999 -128.499s80.333 -121.5 99 -189.5c8 -27.333 12 -69.666 12 -126.999c0 -34.667 -2 -60 -6 -76c-12 -46 -26.667 -81.667 -44 -107
c-9.33301 -13.333 -21.5 -26.833 -36.5 -40.5s-25.833 -20.5 -32.5 -20.5c-16 0 -34.333 19.667 -55 59c-9.33301 18.667 -14 32 -14 40c0 10 7 20.667 21 32c24.667 19.333 40.667 37.833 48 55.5s11 45.834 11 84.501c0 51.333 -10 101.666 -30 150.999
c-16.667 42.667 -43.167 84.834 -79.5 126.501s-73.5 73.167 -111.5 94.5c-24 13.333 -36 27 -36 41c0 7.33301 4.33301 13 13 17z" />
    <glyph glyph-name="asterisk" unicode="*" horiz-adv-x="504" 
d="M72 581c5.33301 3.33301 10.334 5.00391 15.001 5.00391c10 0 23.667 -9 41 -27c74.667 -74.667 119 -112 133 -112c2 0 10.667 15.667 26 47c16 31.333 25.667 48 29 50c9.33301 4.66699 21.666 7 36.999 7c12.667 0 22.334 -1.66699 29.001 -5
c9.33301 -4 14 -11.333 14 -22c0 -8 -3 -19.667 -9 -35c-8 -23.333 -18 -37.333 -30 -42c-6 -2.66699 -17.667 -14 -35 -34l-27 -31l22 -10c58 -26 101.667 -40 131 -42c18.667 -1.33301 28.667 -3 30 -5c1.33301 -2.66699 4.66602 -4 9.99902 -4c10 0 15 -9 15 -27
c0 -14.667 -2 -25.334 -6 -32.001c-10.667 -22.667 -17.667 -36.334 -21 -41.001s-8.33301 -7.33398 -15 -8.00098h-2c-19.333 0 -64.333 26.333 -135 79c-34.667 25.333 -54 38 -58 38c-2.66699 0 -5.33398 -1 -8.00098 -3
c-5.33301 -2.66699 -9.16602 -7.16699 -11.499 -13.5s-6.16602 -24.5 -11.499 -54.5c-7.33301 -41.333 -11 -68.666 -11 -81.999c0 -12.667 -3.66699 -28.334 -11 -47.001s-14.333 -30.334 -21 -35.001c-4.66699 -3.33301 -8.33398 -4.66602 -11.001 -3.99902
s-7.33398 3.66699 -14.001 9c-7.33301 5.33301 -15.833 16.666 -25.5 33.999s-14.5 29.333 -14.5 36c0 3.33301 8 24.833 24 64.5s27 65.834 33 78.501c4.66699 8 6.33398 14 5.00098 18c-2 3.33301 -29 7 -81 11c-48.667 3.33301 -78.667 6.66602 -90 9.99902
s-17 10 -17 20s27.333 20.333 82 31c41.333 9.33301 62 14.666 62 15.999c0 4 -13.5 28.333 -40.5 73s-40.5 70.667 -40.5 78c0 4.66699 2.66699 8.33398 8 11.001z" />
    <glyph glyph-name="plus" unicode="+" horiz-adv-x="383" 
d="M335 422c32 0 48 -11.6621 48 -34.9951c0 -7.33301 -4.33301 -21.333 -13 -42s-15.334 -33.334 -20.001 -38.001c-6.66699 -6.66699 -14.667 -10 -24 -10c-5.33301 0 -10.333 1.66699 -15 5c-3.33301 2.66699 -8.66602 4 -15.999 4s-20 -1.33301 -38 -4
c-30.667 -5.33301 -46 -8.33301 -46 -9c0 -2 7 -10.667 21 -26c14 -16 21 -29 21 -39c0 -6.66699 -2 -14 -6 -22c-1.33301 -2.66699 -3.5 -7.83398 -6.5 -15.501s-5.16699 -12.834 -6.5 -15.501c-6 -14.667 -13.333 -22 -22 -22c-9.33301 0 -19.666 7.5 -30.999 22.5
s-23 34.333 -35 58s-19.333 37.167 -22 40.5c-1.33301 2 -4.33301 3 -9 3c-6 0 -20 -2 -42 -6c-26.667 -4.66699 -45 -7 -55 -7h-3c-9.33301 2.66699 -14 10 -14 22c0 3.33301 0.333008 5.66602 1 6.99902c1.33301 4 16.666 13.333 45.999 28l44 22l-21 53
c-16 38.667 -24 67.667 -24 87c0 8 1.66699 13 5 15c3.33301 2.66699 7 4 11 4c8.66699 0 21 -14 37 -42c2 -2.66699 5.5 -8.33398 10.5 -17.001l14 -24l11.5 -19l21 -32l34 13c71.333 27.333 119.333 41 144 41z" />
    <glyph glyph-name="comma" unicode="," horiz-adv-x="104" 
d="M33 134c4.66699 0 10.332 -2 16.999 -6c16.667 -9.33301 31.334 -39.333 44.001 -90c6.66699 -26.667 10 -50.334 10 -71.001c0 -19.333 -3 -36.333 -9 -51c-12.667 -30 -23.334 -45 -32.001 -45c-5.33301 0 -13 5.5 -23 16.5s-18.333 23.167 -25 36.5l-14 27l5 41
c2 15.333 3 34 3 56c0 14.667 -0.333008 25.334 -1 32.001l-3 47l12 3c2 0.666992 4.16699 1.16699 6.5 1.5s4.33301 0.833008 6 1.5s2.83398 1 3.50098 1z" />
    <glyph glyph-name="hyphen" unicode="-" horiz-adv-x="640" 
d="M506 429c9.33301 4.66699 24.3311 9.99707 44.998 15.9971s37.334 9 50.001 9c7.33301 0 12.333 -1.33301 15 -4c4 -4 8.66699 -6.66699 14 -8c6 -0.666992 9.33301 -7.66699 10 -21v-7c0 -6.66699 -0.833008 -13.167 -2.5 -19.5s-4.16699 -13.166 -7.5 -20.499
s-5.66602 -13 -6.99902 -17c-7.33301 -21.333 -24.333 -37.333 -51 -48c-20 -7.33301 -80.667 -20.666 -182 -39.999s-195.666 -35.666 -282.999 -48.999c-37.333 -4.66699 -56.333 -7 -57 -7c-4.66699 0 -10.334 1.66699 -17.001 5
c-7.33301 4.66699 -14.5 12.834 -21.5 24.501s-10.5 21.5 -10.5 29.5c0 3.33301 0.333008 5.66602 1 6.99902c5.33301 10 27.333 21.167 66 33.5s119.334 33.5 242.001 63.5c115.333 28 180.666 45.667 195.999 53z" />
    <glyph glyph-name="period" unicode="." horiz-adv-x="155" 
d="M48 158c19.333 5.33301 35.998 8.00293 49.998 8.00293c38 0 57 -12.333 57 -37c0 -4.66699 -0.666992 -9.83398 -2 -15.501s-2.66602 -10.334 -3.99902 -14.001s-3.16602 -8.16699 -5.49902 -13.5s-4.16602 -9.33301 -5.49902 -12
c-3.33301 -9.33301 -8.5 -16.166 -15.5 -20.499s-18.833 -7.83301 -35.5 -10.5c-10.667 -2 -18.334 -3 -23.001 -3c-5.33301 0 -12.333 3 -21 9c-10 6.66699 -19.5 18.167 -28.5 34.5s-13.5 29.5 -13.5 39.5c0 9.33301 3 16.166 9 20.499s18.667 9.16602 38 14.499z" />
    <glyph glyph-name="slash" unicode="/" horiz-adv-x="208" 
d="M125 667c25.333 6.66699 40.334 10.001 45.001 10.001c5.33301 0 10.666 -1 15.999 -3c1.33301 -0.666992 3.83301 -1.66699 7.5 -3s6.16699 -2.5 7.5 -3.5s2.83301 -2.66699 4.5 -5s2.5 -5.5 2.5 -9.5c0 -8 -10.833 -53.5 -32.5 -136.5s-42.5 -158.833 -62.5 -227.5
c-24 -84.667 -46 -152.834 -66 -204.501s-33.667 -77.5 -41 -77.5c-0.666992 0 -1.66699 0.666992 -3 2c-1.33301 2.66699 -2 6 -2 10c0 18 12 97.667 36 239c19.333 110.667 34.333 203 45 277c10 65.333 15.667 101 17 107c2.66699 9.33301 5 15 7 17
s8.33301 4.66699 19 8z" />
    <glyph glyph-name="zero" unicode="0" horiz-adv-x="402" 
d="M216 420c-16.667 8.66699 -32.002 12.999 -46.002 12.999c-12 0 -23.333 -3 -34 -9c-13.333 -7.33301 -24.333 -11 -33 -11c-6 0 -9.5 -0.666992 -10.5 -2s-1.5 -6.33301 -1.5 -15c0 -34.667 7 -78 21 -130c9.33301 -31.333 22.333 -61.333 39 -90s33.334 -49 50.001 -61
l18 -12l12 11c16 14.667 28.667 35.5 38 62.5s14 55.5 14 85.5c0 13.333 -1 26.333 -3 39c-9.33301 62.667 -30.666 102.334 -63.999 119.001zM73.998 588.999c12 6 21.6641 8.99902 28.9971 8.99902c11.333 0 17 -6 17 -18c0 -3.33301 -0.333008 -6 -1 -8l-2 -14l26 5
c18.667 4 34.334 6 47.001 6c20 0 41.333 -5.66699 64 -17c37.333 -18 68.5 -45.833 93.5 -83.5s41.5 -81.167 49.5 -130.5c2.66699 -15.333 4 -37.333 4 -66c0 -37.333 -2 -66.666 -6 -87.999c-6.66699 -30 -17.667 -62.167 -33 -96.5s-30.333 -59.5 -45 -75.5
s-28.167 -27 -40.5 -33s-27.833 -9 -46.5 -9c-21.333 0 -39.166 3.66699 -53.499 11s-32.5 22 -54.5 44c-22.667 22.667 -42.667 50 -60 82c-24 45.333 -40.167 85.333 -48.5 120s-12.5 80 -12.5 136c0 44.667 2.33301 78.5 7 101.5s14.334 49.5 29.001 79.5
c12 24 24.333 39 37 45z" />
    <glyph glyph-name="one" unicode="1" horiz-adv-x="315" 
d="M125 576c8 2.66699 16.6689 4.00098 26.002 4.00098c24.667 0 40.667 -7.66699 48 -23c4 -8 12 -39.667 24 -95c12.667 -60 27.667 -124.5 45 -193.5s29.666 -112.167 36.999 -129.5c6.66699 -17.333 10 -30.666 10 -39.999
c0 -0.666992 -0.166992 -2.33398 -0.5 -5.00098s-0.5 -4.66699 -0.5 -6c-0.666992 -6.66699 -1.33398 -12.167 -2.00098 -16.5s-1.66699 -8.5 -3 -12.5s-2.5 -7 -3.5 -9s-3 -5.66699 -6 -11s-5.5 -10 -7.5 -14c-9.33301 -18 -17.333 -27 -24 -27c-5.33301 0 -13 4 -23 12
c-25.333 18.667 -47.333 60.667 -66 126c-18.667 67.333 -37.667 150.666 -57 249.999l-6 29l-38 -54c-26 -35.333 -42.333 -56 -49 -62c-6 -4 -9.66699 -6.16699 -11 -6.5s-4.33301 1.5 -9 5.5c-5.33301 4 -8 10.667 -8 20c0 17.333 11.333 54 34 110
c31.333 78 51 121.667 59 131c4.66699 5.33301 15 11 31 17z" />
    <glyph glyph-name="two" unicode="2" horiz-adv-x="558" 
d="M190 582c7.33301 1.33301 18.0039 2.00488 32.0039 2.00488c27.333 0 51.666 -5.33301 72.999 -16c23.333 -11.333 39.166 -24 47.499 -38s12.5 -35 12.5 -63v-18c-2 -30.667 -7.66699 -59.334 -17 -86.001c-21.333 -62.667 -52.333 -124.334 -93 -185.001l-15 -23
c-4.66699 -7.33301 -8 -13 -10 -17s-2.66699 -6 -2 -6c4 0 37.667 9.5 101 28.5s103.333 31.5 120 37.5c20.667 8 39.667 14 57 18c9.33301 2 16 3 20 3c6 0 13.667 -2.33301 23 -7c8.66699 -4 14 -7.33301 16 -10s3 -8.33398 3 -17.001c0 -20 -8.66699 -46.667 -26 -80
c-7.33301 -14.667 -17 -25 -29 -31c-9.33301 -4.66699 -70.333 -23.834 -183 -57.501s-182.667 -53.5 -210 -59.5c-12.667 -2.66699 -22.334 -4 -29.001 -4c-5.33301 0 -10 1 -14 3l-12 4c-1.33301 -0.666992 -6 3 -14 11s-12 13 -12 15
c0 1.33301 -4.33301 8.66602 -13 21.999c-10 16 -15 29.667 -15 41c0 20 21.667 55.333 65 106c104 120 163.667 213.667 179 281c4 18.667 6 28.334 6 29.001c0 1.33301 -7.66699 3.66602 -23 6.99902c-9.33301 2 -18.666 3 -27.999 3
c-22.667 0 -45.834 -4.83301 -69.501 -14.5s-42.834 -22.167 -57.501 -37.5c-6.66699 -7.33301 -10 -12.333 -10 -15l4 -14c4.66699 -10.667 10.667 -17.334 18 -20.001c9.33301 -2.66699 14 -5 14 -7s-3 -6 -9 -12c-8 -8 -16.333 -12 -25 -12c-18 0 -34 14.333 -48 43
c-7.33301 14.667 -11 28.334 -11 41.001c0 14 4.66699 31 14 51c27.333 56 84 90.667 170 104z" />
    <glyph glyph-name="three" unicode="3" horiz-adv-x="627" 
d="M194 586c21.333 5.33301 38.002 7.99707 50.002 7.99707c15.333 0 29.333 -3.33301 42 -10c14.667 -7.33301 24 -14.833 28 -22.5s6 -21.167 6 -40.5c0 -37.333 -13 -81.666 -39 -132.999l-19 -40c54.667 8 99 12.333 133 13c25.333 1.33301 40.666 2 45.999 2
c18 0 36.333 -2 55 -6c38 -7.33301 71.667 -21.666 101 -42.999c20 -14.667 30 -38.667 30 -72c0 -35.333 -11.667 -75.666 -35 -120.999c-22.667 -44 -58.667 -82.333 -108 -115c-45.333 -30 -99.333 -55.5 -162 -76.5s-116 -31.5 -160 -31.5h-15
c-30 2.66699 -52.833 9 -68.5 19s-30.167 27.333 -43.5 52c-11.333 21.333 -17 37.333 -17 48c0 8.66699 3.66699 15.167 11 19.5s19.666 7.83301 36.999 10.5c12.667 2 22.334 3 29.001 3c6 0 16.667 -1.66699 32 -5s30.666 -5 45.999 -5c28 0 56.667 4.66699 86 14
c24.667 8 54.167 20.667 88.5 38s61.166 33.333 80.499 48c16 12 31 25.5 45 40.5s21 25.167 21 30.5l-1 2c-1.33301 1.33301 -15.666 4 -42.999 8c-18.667 1.33301 -33.334 2 -44.001 2c-71.333 0 -153.666 -13.667 -246.999 -41l-58 -17l-18 15
c-10.667 8.66699 -21.5 22.834 -32.5 42.501s-16.5 34.5 -16.5 44.5c0 9.33301 18 32.333 54 69c53.333 55.333 90 100 110 134l10 16l-14 -3c-21.333 -4 -47 -14.333 -77 -31s-53.667 -34 -71 -52c-12 -12 -21 -18 -27 -18c-4.66699 0 -9 4.33301 -13 13
c-3.33301 8 -5 15 -5 21c0 20 14.333 45.333 43 76c43.333 47.333 93.333 78.666 150 93.999z" />
    <glyph glyph-name="four" unicode="4" horiz-adv-x="446" 
d="M256 584c14.667 3.33301 29.3359 5.00195 44.0029 5.00195c11.333 0 17 -1 17 -3c0 -3.33301 2.66699 -5 8 -5c23.333 0 35.333 -42.667 36 -128c0.666992 -38.667 6.33398 -83.334 17.001 -134.001c22.667 -102.667 41 -173.667 55 -213
c8.66699 -22.667 13 -46.667 13 -72c0 -11.333 -1.66699 -19.333 -5 -24c-2.66699 -2.66699 -6 -10.667 -10 -24c-2.66699 -10 -7.33398 -19 -14.001 -27s-12.667 -12 -18 -12c-6.66699 0 -15.5 5.66699 -26.5 17s-20.833 25 -29.5 41c-18 34 -36 87 -54 159l-20 77l-19 -13
c-46 -30.667 -94.333 -46 -145 -46c-20.667 0 -37.334 4.66699 -50.001 14c-14.667 10 -27.334 25.667 -38.001 47c-10.667 20.667 -16 37.334 -16 50.001v9c0 25.333 17.333 82.666 52 171.999c16 44 25.667 71 29 81c3.33301 12 7.33301 18 12 18
c2.66699 0 5 -2.33301 7 -7c2 -4 3 -11 3 -21c0 -23.333 -4.66699 -58.333 -14 -105c-10 -52 -15 -89.333 -15 -112c0 -24.667 6 -38 18 -40h1c8 0 23.5 6.16699 46.5 18.5s40.5 24.166 52.5 35.499c17.333 16 28.666 29.333 33.999 40l10 17l-6 42
c-4.66699 26.667 -7 54 -7 82v13c0 17.333 1.83301 28.833 5.5 34.5s12.5 10.167 26.5 13.5z" />
    <glyph glyph-name="five" unicode="5" horiz-adv-x="529" 
d="M452 636c18.667 5.33301 32.002 8 40.002 8c5.33301 0 9.33301 -1.66699 12 -5c4 -4.66699 8.66699 -7.33398 14 -8.00098c6.66699 -0.666992 10.334 -7.66699 11.001 -21v-6c0 -10.667 -1.66699 -20 -5 -28c-4.66699 -8 -7 -14 -7 -18s-3 -11.333 -9 -22
c-4.66699 -8.66699 -12 -15.5 -22 -20.5s-41 -17.167 -93 -36.5c-168.667 -63.333 -257.667 -95 -267 -95c-5.33301 0 -5.66602 -3 -0.999023 -9c0.666992 -1.33301 2 -2.66602 4 -3.99902c4.66699 -3.33301 39.334 -6 104.001 -8c65.333 -2 109 -6.66699 131 -14
c79.333 -25.333 119 -65 119 -119c0 -24 -7 -51.833 -21 -83.5s-29.667 -55.834 -47 -72.501c-26.667 -24 -62.334 -42.667 -107.001 -56s-93.334 -20 -146.001 -20c-39.333 0 -69.333 4 -90 12s-36.334 22.333 -47.001 43c-16 28.667 -24 46.667 -24 54
c0 1.33301 0.666992 5.33301 2 12s3.5 11.334 6.5 14.001s9.83301 5.66699 20.5 9c16 6 36.333 9 61 9c16.667 0 27.667 -2 33 -6c6.66699 -5.33301 27.667 -8 63 -8c16.667 0 32.667 1 48 3c20.667 3.33301 42.667 10.333 66 21s40 22 50 34c10 11.333 15 18.333 15 21
c0 12.667 -49 26.667 -147 42c-35.333 4.66699 -59.833 9.33398 -73.5 14.001s-26.5 12 -38.5 22c-11.333 9.33301 -21.5 22.333 -30.5 39s-13.5 31 -13.5 43s-2 21.667 -6 29c-2.66699 5.33301 -4 10.333 -4 15c0 8 5.33301 16 16 24
c8.66699 5.33301 15.667 10.666 21 15.999s9.33301 8 12 8c3.33301 0 57.666 26.667 162.999 80c107.333 54 169.666 83.333 186.999 88z" />
    <glyph glyph-name="six" unicode="6" horiz-adv-x="578" 
d="M416 271l30 29h-25c-66 0 -139.667 -20.333 -221 -61c-30 -14.667 -49.333 -22 -58 -22c-4.66699 0 -8.66699 0.333008 -12 1c-13.333 2 -20 1.66699 -20 -1l2 -4c4 -6 10.333 -13 19 -21c15.333 -12 36 -18 62 -18c9.33301 0 17 0.333008 23 1
c28.667 1.33301 62.5 11.333 101.5 30s71.833 40.667 98.5 66zM213 573c16 8.66699 28.002 12.999 36.002 12.999c9.33301 0 14 -5.66699 14 -17c0 -9.33301 -9 -23 -27 -41c-19.333 -20.667 -41.333 -49.167 -66 -85.5s-41.667 -66.166 -51 -89.499
c-0.666992 -2 -1.66699 -4 -3 -6l-1 -5c0 -1.33301 0.333008 -2 1 -2l20 13c32.667 24.667 86 46.667 160 66c32 8 54.167 12.833 66.5 14.5s33.833 2.5 64.5 2.5c30 0 49.333 -0.5 58 -1.5s18 -3.83301 28 -8.5c26.667 -13.333 44.167 -25.333 52.5 -36
s12.5 -26.334 12.5 -47.001c0 -35.333 -11.333 -73.333 -34 -114c-1.33301 -2.66699 -3.5 -6.66699 -6.5 -12s-4.83301 -8.66602 -5.5 -9.99902s-2.16699 -3.83301 -4.5 -7.5s-4 -6.16699 -5 -7.5s-2.5 -3.5 -4.5 -6.5s-4.16699 -5.5 -6.5 -7.5s-4.83301 -4.5 -7.5 -7.5
s-6 -6.5 -10 -10.5c-36.667 -34 -82.834 -61.667 -138.501 -83s-107.834 -32 -156.501 -32c-28.667 0 -52 3.66699 -70 11c-25.333 9.33301 -49.666 27.166 -72.999 53.499s-39.333 54.833 -48 85.5c-4.66699 14.667 -7 31 -7 49c0 35.333 11.667 77 35 125
c20 40.667 47.167 80.834 81.5 120.501s66.166 67.5 95.499 83.5z" />
    <glyph glyph-name="seven" unicode="7" horiz-adv-x="581" 
d="M379 33c0 -6.66699 -3.6709 -16.334 -11.0039 -29.001s-14.666 -19 -21.999 -19c-5.33301 0 -13.166 4.5 -23.499 13.5s-17.5 17.5 -21.5 25.5c-11.333 21.333 -18.166 35.333 -20.499 42s-3.5 17 -3.5 31v26c0 32.667 -1 49 -3 49c-4 0 -32.333 -10.333 -85 -31
s-81.334 -32.334 -86.001 -35.001c-8 -4 -15.333 -6 -22 -6c-6 0 -9 2 -9 6c0 6 17.167 21.333 51.5 46s72.166 48.667 113.499 72l53 30l4 32c2.66699 20 4 31 4 33c0 10.667 3.66699 33.334 11 68.001l14 63l-123 -62c-104.667 -52.667 -164 -79 -178 -79
c-5.33301 0 -10 2 -14 6c-4.66699 4.66699 -7 9 -7 13c0 6 7.33301 13.333 22 22c14 8.66699 45.833 30.167 95.5 64.5s76.167 53.166 79.5 56.499c4.66699 4.66699 24.834 19.334 60.501 44.001s57.5 39 65.5 43c22.667 12 44.334 18 65.001 18
c11.333 0 21.666 -2.33301 30.999 -7c12 -5.33301 18.333 -12.666 19 -21.999v-9c0 -29.333 -5.33301 -74.333 -16 -135l-13 -81c12.667 6.66699 26 14.334 40 23.001c26.667 15.333 49.334 25 68.001 29c11.333 2.66699 20 4 26 4c6.66699 0 13.334 -1.66699 20.001 -5
c8 -4 12.833 -7.33301 14.5 -10s2.5 -9.33398 2.5 -20.001c0 -14 -3.66699 -29.333 -11 -46c-7.33301 -16 -13.333 -26.5 -18 -31.5s-11 -7.5 -19 -7.5c-6.66699 0 -29 -6 -67 -18s-60 -20 -66 -24c-3.33301 -2 -6 -28.333 -8 -79c-0.666992 -51.333 -3 -80.333 -7 -87
c-4 -9.33301 -6 -15 -6 -17z" />
    <glyph glyph-name="eight" unicode="8" horiz-adv-x="609" 
d="M465 279c-12 2 -29.9971 3 -53.9971 3c-28 0 -47.333 -0.666992 -58 -2c-14 -2 -34 -6 -60 -12c-24.667 -5.33301 -41.667 -8 -51 -8c-8.66699 0 -19.667 1.66699 -33 5c-2.66699 0.666992 -5.33398 -0.333008 -8.00098 -3s-5.33398 -7 -8.00098 -13
c-4.66699 -10 -7 -20.333 -7 -31c0 -16 7 -30.333 21 -43c11.333 -10 31.666 -17.333 60.999 -22c13.333 -1.33301 23 -2 29 -2c28 0 59.333 8.66699 94 26c22 10.667 42.333 24.167 61 40.5s30 30.833 34 43.5l5 13zM141.003 452c-9.33301 6 -16.001 13.332 -20.001 21.999
l-5 11l-16 -18c-10.667 -13.333 -18 -24 -22 -32c-2.66699 -5.33301 -4 -10.666 -4 -15.999c0 -10 5 -18 15 -24s22.667 -9 38 -9c20 0 39.333 4.66699 58 14c30.667 14.667 53.334 32 68.001 52l9 13l-25 -2c-16 -1.33301 -30.333 -5 -43 -11c-12 -6 -21.333 -9 -28 -9
c-8 0 -16.333 3 -25 9zM210.002 589.999c18 4 33.999 6.00293 47.999 6.00293c20 0 40.667 -5 62 -15c24 -12 39.667 -23.5 47 -34.5s11 -28.5 11 -52.5c0 -21.333 -2.66699 -40 -8 -56l-7 -22h135l35 -17c26.667 -12.667 46 -27.334 58 -44.001s18 -37.667 18 -63
c0 -20.667 -6.5 -47.834 -19.5 -81.501s-26.833 -59.5 -41.5 -77.5c-23.333 -28.667 -57.333 -52.167 -102 -70.5s-90 -27.5 -136 -27.5c-86.667 0 -148 35.333 -184 106c-11.333 24 -17 44.667 -17 62c0 14 3.66699 29.333 11 46c6.66699 15.333 10 23.666 10 24.999
c0 3.33301 -3.33301 5 -10 5c-8 0 -19 3 -33 9s-25.333 12.333 -34 19c-11.333 8.66699 -22 22 -32 40c-13.333 22.667 -20 42.667 -20 60c0 24.667 13.667 50.667 41 78c14.667 14.667 29.334 26.667 44.001 36c12 6 25.333 15.667 40 29c12 12 23.5 20.5 34.5 25.5
s27.5 9.83301 49.5 14.5z" />
    <glyph glyph-name="nine" unicode="9" horiz-adv-x="513" 
d="M170 516c4.66699 7.33301 6 11 4 11c-2.66699 0 -18.167 -14.5 -46.5 -43.5s-42.5 -44.833 -42.5 -47.5c0 -0.666992 0.666992 -1 2 -1c6 0 18.833 9.5 38.5 28.5s34.5 36.5 44.5 52.5zM231 594c21.333 4.66699 35.335 6.99609 42.002 6.99609s15 -2.66699 25 -8
c8.66699 -4 16.667 -10.167 24 -18.5s20.666 -26.166 39.999 -53.499c77.333 -110 124.666 -192.667 141.999 -248c6 -20 9 -44 9 -72s-3 -52 -9 -72c-16.667 -56 -42.834 -96.167 -78.501 -120.5s-85.834 -36.833 -150.501 -37.5c-49.333 0 -88.166 6 -116.499 18
s-50.833 32 -67.5 60c-15.333 26 -23 45.333 -23 58c0 3.33301 1.33301 8.33301 4 15c4.66699 8.66699 16.334 15.334 35.001 20.001c11.333 3.33301 20.333 5 27 5c5.33301 0 11 -1.66699 17 -5c10.667 -5.33301 17.667 -9.66602 21 -12.999c12 -9.33301 44.333 -15 97 -17
c3.33301 0 7.66602 -0.166992 12.999 -0.5s9 -0.5 11 -0.5c17.333 0 31 2 41 6s21.333 12 34 24c18 16.667 27 36 27 58c0 33.333 -23.333 86.333 -70 159c-25.333 38.667 -42.333 64 -51 76l-10 14l-14 -21c-10.667 -15.333 -26 -31.833 -46 -49.5
s-37.667 -30.167 -53 -37.5c-18.667 -8.66699 -38.334 -13 -59.001 -13c-21.333 0 -37 4 -47 12c-9.33301 6.66699 -18.666 18 -27.999 34s-14.666 29.667 -15.999 41c0 0.666992 -0.166992 1.66699 -0.5 3s-0.5 2.33301 -0.5 3c0 21.333 14 45.833 42 73.5
s62.667 51.834 104 72.501c24.667 12.667 53 22 85 28z" />
    <glyph glyph-name="colon" unicode=":" horiz-adv-x="320" 
d="M126 462c13.333 4 25.334 6 36.001 6c24 0 36 -8 36 -24c0 -6 -2.33301 -16 -7 -30s-8.66699 -22.667 -12 -26s-42 -11.333 -116 -24c-16 -2.66699 -27.667 -4 -35 -4c-6.66699 0 -12.334 1.66699 -17.001 5c-6.66699 4 -10 8 -10 12c0 8 18 23.333 54 46
c37.333 23.333 61 36.333 71 39zM229.001 319c22 6.66699 39.332 10 51.999 10c9.33301 0 18 -2 26 -6c8.66699 -4 13 -11.333 13 -22c0 -10 -4.66699 -24.333 -14 -43s-17.666 -28.667 -24.999 -30c-4.66699 -1.33301 -41 -4 -109 -8l-97 -5l-7 10
c-5.33301 7.33301 -8 13.333 -8 18c0 7.33301 6.66699 14.333 20 21c39.333 20 89 38.333 149 55z" />
    <glyph glyph-name="semicolon" unicode=";" horiz-adv-x="257" 
d="M132 556c6.66699 2 15.002 3 25.002 3c16.667 0 28.667 -2.33301 36 -7c4 -2.66699 6 -9.66699 6 -21c0 -13.333 -3.66699 -28.333 -11 -45c-6.66699 -14 -12 -21 -16 -21c-2.66699 0 -4.66699 0.333008 -6 1c-6.66699 1.33301 -11.334 2 -14.001 2
c-10 0 -34.667 -9.66699 -74 -29c-38.667 -18.667 -61.667 -28 -69 -28h-1c-4.66699 2 -7 4.66699 -7 8c0 10 19.333 34.333 58 73c39.333 40 63.666 61.333 72.999 64zM249.002 388c5.33301 -3.33301 8.00098 -14.332 8.00098 -32.999c0 -14 -2 -27 -6 -39
c-12 -36.667 -39.333 -88.334 -82 -155.001c-23.333 -36 -39 -59 -47 -69s-15 -15 -21 -15c-11.333 0 -24.5 10.833 -39.5 32.5s-22.5 40.5 -22.5 56.5c0 15.333 10.333 38.333 31 69l19 31l-11 10c-8.66699 7.33301 -16 17.333 -22 30c-5.33301 10.667 -8 18.667 -8 24
c0 6.66699 3.16699 12.5 9.5 17.5s18.5 11.833 36.5 20.5c42.667 21.333 79 32 109 32c19.333 0 34.666 -4 45.999 -12z" />
    <glyph glyph-name="less" unicode="&#x3c;" horiz-adv-x="529" 
d="M330 520c13.333 12.667 23.333 18.998 30 18.998c4 0 6 -3.33301 6 -10c0 -12.667 -10.167 -31.667 -30.5 -57s-71.166 -83.666 -152.499 -174.999c-40 -44.667 -60 -67.667 -60 -69c0 -2 3.33301 -3 10 -3c12.667 0 47 4 103 12c72 9.33301 135.667 24.666 191 45.999
c20.667 8 40.334 12 59.001 12c24 0 38 -6.66699 42 -20c0.666992 -1.33301 1 -4.33301 1 -9c0 -14.667 -4 -31.334 -12 -50.001c-11.333 -26.667 -21.333 -43.667 -30 -51s-28 -15 -58 -23c-80 -21.333 -169 -34 -267 -38c-8 -0.666992 -19.333 -1 -34 -1
c-32.667 0 -56.834 4.33301 -72.501 13s-29.167 24.334 -40.5 47.001c-9.33301 18.667 -14 33.334 -14 44.001c0 13.333 8 29 24 47c27.333 29.333 72.333 69.333 135 120c16 12.667 27.833 22.334 35.5 29.001l27 24c10.333 9.33301 23.166 20.333 38.499 33
c39.333 32.667 62.333 52.667 69 60z" />
    <glyph glyph-name="equal" unicode="=" horiz-adv-x="636" 
d="M427 500c21.333 6.66699 35.667 9.99707 43 9.99707c8.66699 0 17.334 -2.16699 26.001 -6.5s13.667 -9.16602 15 -14.499s2 -9 2 -11c0 -4.66699 -0.833008 -9.66699 -2.5 -15s-3.83398 -11 -6.50098 -17s-4.33398 -10.333 -5.00098 -13c-2 -8 -6 -14.667 -12 -20
s-12.333 -8 -19 -8c-7.33301 0 -33 -5.66699 -77 -17c-232 -61.333 -354.667 -92 -368 -92c-4 0 -9.33301 2 -16 6c-4 3.33301 -6 5.5 -6 6.5s2.33301 3.5 7 7.5c5.33301 4.66699 71.333 34.834 198 90.501s200.334 86.834 221.001 93.501zM560.001 411.997
c20.667 6 34 9.00098 40 9.00098c6.66699 0 14.167 -2.16699 22.5 -6.5s12.833 -8.5 13.5 -12.5v-6c0 -16 -4 -33 -12 -51s-16.667 -29.333 -26 -34c-11.333 -6 -102.333 -25.333 -273 -58s-266 -49 -286 -49h-2c-9.33301 1.33301 -14 4.33301 -14 9
c0 6.66699 7.33301 13.667 22 21c10 5.33301 89.167 33.666 237.5 84.999s240.833 82.333 277.5 93z" />
    <glyph glyph-name="greater" unicode="&#x3e;" horiz-adv-x="480" 
d="M307 528c0 2 10.668 3.00098 32.001 3.00098c66 0 104.333 -3 115 -9c16.667 -10 25 -21 25 -33c0 -8.66699 -3.66699 -22.334 -11 -41.001c-8 -20 -14.833 -33.5 -20.5 -40.5s-18.834 -18.5 -39.501 -34.5c-12.667 -10 -23.5 -19 -32.5 -27s-17.167 -14.833 -24.5 -20.5
s-21.333 -15.5 -42 -29.5c-87.333 -63.333 -152 -112.666 -194 -147.999c-26.667 -22 -43 -33 -49 -33c-16 0 -33 17.333 -51 52c-9.33301 18.667 -14 32.667 -14 42c0 12 9.66699 26.333 29 43c22.667 19.333 61 48 115 86s101.333 69.667 142 95
c13.333 8.66699 20 13.334 20 14.001c0 1.33301 -20 4.66602 -60 9.99902s-80.667 11.666 -122 18.999s-63.333 13.333 -66 18c-7.33301 10.667 -6 18 4 22c5.33301 2.66699 47.333 4.66699 126 6s118 3.33301 118 6z" />
    <glyph glyph-name="question" unicode="?" horiz-adv-x="645" 
d="M500 721c9.33301 1.33301 25.3301 2.00195 47.9971 2.00195c24.667 -0.666992 44.334 -5.33398 59.001 -14.001c14.667 -8 24.667 -16.333 30 -25s8 -21.334 8 -38.001c0 -32 -12 -71.667 -36 -119c-22 -43.333 -55.667 -91 -101 -143
c-23.333 -27.333 -73.666 -80.666 -150.999 -159.999s-118.666 -120 -123.999 -122c-0.666992 0 -1.33398 -0.166992 -2.00098 -0.5s-1.33398 -0.5 -2.00098 -0.5c-11.333 0 -24.666 11.5 -39.999 34.5s-23 43.167 -23 60.5c0 13.333 7 28.666 21 45.999
s51.667 56.333 113 117c76 76 123 124.333 141 145c20 22.667 37.5 44.167 52.5 64.5s22.5 32.5 22.5 36.5l-1 1h-5c-20.667 0 -54.667 -7.66699 -102 -23c-67.333 -22.667 -137.5 -59.167 -210.5 -109.5s-123.833 -97.5 -152.5 -141.5
c-6.66699 -10.667 -8.66699 -17.334 -6 -20.001c6.66699 -6.66699 5.66699 -12 -3 -16c-4 -1.33301 -6.66699 -2 -8 -2c-7.33301 0 -13.666 4.33301 -18.999 13s-8 18.667 -8 30c0 6 0.333008 10.667 1 14c4.66699 24.667 24 58.334 58 101.001
c53.333 67.333 121 126 203 176s161 81 237 93zM412.997 168.002c19.333 6 33.667 8.99707 43 8.99707c8 0 16 -2 24 -6c9.33301 -4 14 -11.667 14 -23s-4.33301 -25.666 -13 -42.999s-18 -30.666 -28 -39.999c-12 -10.667 -29.833 -25.167 -53.5 -43.5
s-37.5 -28.166 -41.5 -29.499h-1c-4.66699 0 -12.5 4.16699 -23.5 12.5s-16.5 14.5 -16.5 18.5c0 2.66699 -3.33301 9.66699 -10 21c-7.33301 11.333 -11 23 -11 35c0 7.33301 1.33301 13.333 4 18c5.33301 10 19.5 22.167 42.5 36.5s46.5 25.833 70.5 34.5z" />
    <glyph glyph-name="at" unicode="@" horiz-adv-x="633" 
d="M279 332c0 20 -1 33 -3 39c-2 6.66699 -5 6 -9 -2c-0.666992 -3.33301 -2 -7.33301 -4 -12c-6 -17.333 -9.66699 -33 -11 -47c-0.666992 -4 -1 -10 -1 -18c0 -22 2.66699 -33 8 -33h1c4.66699 1.33301 9 10 13 26s6 31.667 6 47zM305 643
c15.333 2.66699 32.334 3.99414 51.001 3.99414c53.333 0 105.333 -13 156 -39c32.667 -16.667 57.334 -33.834 74.001 -51.501s29.334 -40.167 38.001 -67.5c6 -16.667 9 -38.667 9 -66c0 -21.333 -2.33301 -42 -7 -62c-5.33301 -20.667 -14.166 -42.834 -26.499 -66.501
s-22.833 -39.5 -31.5 -47.5c-15.333 -13.333 -34.333 -20 -57 -20c-5.33301 0 -12.666 0.666992 -21.999 2c-10.667 2 -27 7.83301 -49 17.5s-39.667 18.834 -53 27.501l-13 9l-8 -22c-12 -33.333 -25.833 -58.833 -41.5 -76.5s-31.834 -26.5 -48.501 -26.5
c-24.667 0 -46 18.333 -64 55c-8 16 -12 34 -12 54c0 42.667 16 85 48 127c10 14 15 23.667 15 29c0 8 2.5 13.833 7.5 17.5s15.833 6.83398 32.5 9.50098c11.333 2 20.333 3 27 3c14.667 0 35.667 -11.333 63 -34c12 -10.667 28 -21.5 48 -32.5s36 -18.167 48 -21.5h3
c14 0 21 17.667 21 53c0 17.333 -2.66699 29.5 -8 36.5s-18 15.167 -38 24.5c-34.667 17.333 -74.667 26 -120 26h-18c-24.667 -1.33301 -40.667 -2.66602 -48 -3.99902s-19.333 -6.33301 -36 -15c-70.667 -35.333 -113 -90.666 -127 -165.999
c-3.33301 -20 -5 -32.667 -5 -38c0 -8 1 -17.333 3 -28c5.33301 -29.333 16.5 -56.666 33.5 -81.999s36.833 -44.666 59.5 -57.999c32 -18.667 73 -28 123 -28c18.667 0 31.5 0.833008 38.5 2.5s19.5 6.83398 37.5 15.501c28 14.667 53.333 30.667 76 48
c23.333 18 38.666 28.833 45.999 32.5s20.333 7.83398 39 12.501c15.333 3.33301 24.666 5 27.999 5c4 0 10 -2 18 -6c7.33301 -3.33301 11.666 -6.33301 12.999 -9s2 -8.33398 2 -17.001v-7c0 -17.333 -5.5 -37.666 -16.5 -60.999s-23.833 -41.666 -38.5 -54.999
c-23.333 -22 -51.5 -41.5 -84.5 -58.5s-64.5 -28.833 -94.5 -35.5c-21.333 -4.66699 -44.333 -7 -69 -7c-68.667 0 -129.667 19 -183 57c-26.667 19.333 -51.834 45.333 -75.501 78s-41.167 66 -52.5 100c-10 30 -15 62 -15 96c0 68 17.333 134 52 198
s78.667 108.667 132 134c32.667 15.333 72.667 26.666 120 33.999z" />
    <glyph glyph-name="A" unicode="A" horiz-adv-x="395" 
d="M144 342c-28 61.333 -43.667 92 -47 92c-0.666992 0 -3.16699 -33.667 -7.5 -101s-6.5 -104.333 -6.5 -111c0 -2 11.5 6 34.5 24s37.5 30 43.5 36c2.66699 4 4 6.66699 4 8c0 4 -7 21.333 -21 52zM46 609c14.667 3.33301 26.333 5 35 5c24.667 0 45.667 -9 63 -27
c22.667 -24 68.667 -108.667 138 -254c11.333 -25.333 17 -38.666 17 -39.999c0 -2.66699 8.66699 -25.167 26 -67.5s28.333 -68.166 33 -77.499c5.33301 -10.667 13.333 -24.667 24 -42c8.66699 -14.667 13 -26.334 13 -35.001c0 -7.33301 -0.333008 -13.333 -1 -18
c-1.33301 -21.333 -6.66602 -42.166 -15.999 -62.499s-18.333 -30.5 -27 -30.5c-5.33301 0 -13.333 4.66699 -24 14s-20 20 -28 32c-10.667 15.333 -24 38 -40 68s-27.333 53.667 -34 71l-11 29l-30 -16c-27.333 -13.333 -50.333 -23.333 -69 -30
c-26.667 -11.333 -40.334 -17.333 -41.001 -18c-2.66699 -2.66699 -5.66699 -20 -9 -52c-6 -50 -13.333 -80.333 -22 -91c-2 -2.66699 -3.5 -4.33398 -4.5 -5.00098s-2 -0.666992 -3 0s-2.83301 2 -5.5 4c-4.66699 4.66699 -9 11.667 -13 21
c-7.33301 21.333 -12.333 135.333 -15 342c-0.666992 36 -1 79.667 -1 131c0 46 1.33301 78.667 4 98s6.5 31.666 11.5 36.999s14.833 10 29.5 14z" />
    <glyph glyph-name="A" unicode="a" horiz-adv-x="395" 
d="M144 342c-28 61.333 -43.667 92 -47 92c-0.666992 0 -3.16699 -33.667 -7.5 -101s-6.5 -104.333 -6.5 -111c0 -2 11.5 6 34.5 24s37.5 30 43.5 36c2.66699 4 4 6.66699 4 8c0 4 -7 21.333 -21 52zM46 609c14.667 3.33301 26.333 5 35 5c24.667 0 45.667 -9 63 -27
c22.667 -24 68.667 -108.667 138 -254c11.333 -25.333 17 -38.666 17 -39.999c0 -2.66699 8.66699 -25.167 26 -67.5s28.333 -68.166 33 -77.499c5.33301 -10.667 13.333 -24.667 24 -42c8.66699 -14.667 13 -26.334 13 -35.001c0 -7.33301 -0.333008 -13.333 -1 -18
c-1.33301 -21.333 -6.66602 -42.166 -15.999 -62.499s-18.333 -30.5 -27 -30.5c-5.33301 0 -13.333 4.66699 -24 14s-20 20 -28 32c-10.667 15.333 -24 38 -40 68s-27.333 53.667 -34 71l-11 29l-30 -16c-27.333 -13.333 -50.333 -23.333 -69 -30
c-26.667 -11.333 -40.334 -17.333 -41.001 -18c-2.66699 -2.66699 -5.66699 -20 -9 -52c-6 -50 -13.333 -80.333 -22 -91c-2 -2.66699 -3.5 -4.33398 -4.5 -5.00098s-2 -0.666992 -3 0s-2.83301 2 -5.5 4c-4.66699 4.66699 -9 11.667 -13 21
c-7.33301 21.333 -12.333 135.333 -15 342c-0.666992 36 -1 79.667 -1 131c0 46 1.33301 78.667 4 98s6.5 31.666 11.5 36.999s14.833 10 29.5 14z" />
    <glyph glyph-name="B" unicode="B" horiz-adv-x="566" 
d="M437 271c-11.333 0 -20.334 0.332031 -27.001 0.999023c-1.33301 0 -3.33301 0.166992 -6 0.5s-5 0.5 -7 0.5c-27.333 0 -61.333 -5.66699 -102 -17s-78 -25.666 -112 -42.999l-21 -10l14 -17c24 -30 47.333 -48 70 -54c16 -4.66699 29.333 -7 40 -7s26.334 5 47.001 15
c25.333 13.333 49 31.5 71 54.5s34.667 43.833 38 62.5c2.66699 9.33301 1 14 -5 14zM139.999 416.999c-12.667 0 -27.333 -1.66895 -44 -5.00195c-14 -3.33301 -21.667 -5.66602 -23 -6.99902v-1c0 -4 3 -16.167 9 -36.5s9.66699 -31.166 11 -32.499h1
c5.33301 0 17.833 11.333 37.5 34s29.5 37 29.5 43c0 3.33301 -7 5 -21 5zM104 549.997c14.667 3.33301 32.333 5 53 5h12c24.667 -0.666992 46.667 -5.66699 66 -15c23.333 -11.333 39.5 -23.5 48.5 -36.5s13.5 -31.167 13.5 -54.5c0 -8.66699 -2.33301 -26 -7 -52
c10 2 20.667 4 32 6c33.333 6 62 9 86 9c35.333 0 66 -6.33301 92 -19c24.667 -11.333 41.834 -24.5 51.501 -39.5s14.5 -35.167 14.5 -60.5c0 -29.333 -8 -64 -24 -104s-34.667 -72 -56 -96c-24 -26.667 -54 -48.334 -90 -65.001s-70.333 -25 -103 -25
c-10 0 -19.667 1 -29 3c-24.667 4.66699 -50.167 15.834 -76.5 33.501s-48.5 38.5 -66.5 62.5c-14.667 18.667 -30.334 44.5 -47.001 77.5s-29 62.167 -37 87.5c-17.333 53.333 -26 103 -26 149c0 18 -2 33.667 -6 47c-2.66699 10.667 -4 16.334 -4 17.001
c0 2 1.33301 7 4 15c5.33301 13.333 15.333 24.166 30 32.499s37.667 15.833 69 22.5z" />
    <glyph glyph-name="B" unicode="b" horiz-adv-x="566" 
d="M437 271c-11.333 0 -20.334 0.332031 -27.001 0.999023c-1.33301 0 -3.33301 0.166992 -6 0.5s-5 0.5 -7 0.5c-27.333 0 -61.333 -5.66699 -102 -17s-78 -25.666 -112 -42.999l-21 -10l14 -17c24 -30 47.333 -48 70 -54c16 -4.66699 29.333 -7 40 -7s26.334 5 47.001 15
c25.333 13.333 49 31.5 71 54.5s34.667 43.833 38 62.5c2.66699 9.33301 1 14 -5 14zM139.999 416.999c-12.667 0 -27.333 -1.66895 -44 -5.00195c-14 -3.33301 -21.667 -5.66602 -23 -6.99902v-1c0 -4 3 -16.167 9 -36.5s9.66699 -31.166 11 -32.499h1
c5.33301 0 17.833 11.333 37.5 34s29.5 37 29.5 43c0 3.33301 -7 5 -21 5zM104 549.997c14.667 3.33301 32.333 5 53 5h12c24.667 -0.666992 46.667 -5.66699 66 -15c23.333 -11.333 39.5 -23.5 48.5 -36.5s13.5 -31.167 13.5 -54.5c0 -8.66699 -2.33301 -26 -7 -52
c10 2 20.667 4 32 6c33.333 6 62 9 86 9c35.333 0 66 -6.33301 92 -19c24.667 -11.333 41.834 -24.5 51.501 -39.5s14.5 -35.167 14.5 -60.5c0 -29.333 -8 -64 -24 -104s-34.667 -72 -56 -96c-24 -26.667 -54 -48.334 -90 -65.001s-70.333 -25 -103 -25
c-10 0 -19.667 1 -29 3c-24.667 4.66699 -50.167 15.834 -76.5 33.501s-48.5 38.5 -66.5 62.5c-14.667 18.667 -30.334 44.5 -47.001 77.5s-29 62.167 -37 87.5c-17.333 53.333 -26 103 -26 149c0 18 -2 33.667 -6 47c-2.66699 10.667 -4 16.334 -4 17.001
c0 2 1.33301 7 4 15c5.33301 13.333 15.333 24.166 30 32.499s37.667 15.833 69 22.5z" />
    <glyph glyph-name="C" unicode="C" horiz-adv-x="503" 
d="M280 548c19.333 5.33301 36.002 8.00293 50.002 8.00293c21.333 0 36.666 -4.66699 45.999 -14c4.66699 -4.66699 7 -13 7 -25c0 -10.667 -2.33301 -19 -7 -25c-9.33301 -10.667 -14 -10.334 -14 0.999023c0 5.33301 -3.66699 8 -11 8c-10.667 0 -26.167 -5 -46.5 -15
s-40.166 -22.667 -59.499 -38c-29.333 -23.333 -58 -52.833 -86 -88.5s-45.333 -65.167 -52 -88.5c-3.33301 -12 -5 -23.667 -5 -35c0 -33.333 10.667 -60 32 -80c14 -13.333 36 -20 66 -20c19.333 0 38.666 4 57.999 12c49.333 21.333 91 54.666 125 99.999
c8 10.667 14.167 17.167 18.5 19.5s15.5 5.5 33.5 9.5c14 3.33301 25 5 33 5c4.66699 0 8.33398 -1.33301 11.001 -4c4 -4 9.33301 -6.66699 16 -8c4 -0.666992 6.33301 -2.5 7 -5.5s1 -10.833 1 -23.5c0 -19.333 -6.33301 -41.833 -19 -67.5
s-28.334 -47.834 -47.001 -66.501c-66 -67.333 -145 -101 -237 -101c-23.333 0 -42.333 2.16699 -57 6.5s-31 12.833 -49 25.5c-14.667 10 -26.667 21.167 -36 33.5s-20 29.833 -32 52.5c-16.667 32.667 -25 65 -25 97c0 63.333 28.667 128.5 86 195.5
s121.666 110.833 192.999 131.5z" />
    <glyph glyph-name="C" unicode="c" horiz-adv-x="503" 
d="M280 548c19.333 5.33301 36.002 8.00293 50.002 8.00293c21.333 0 36.666 -4.66699 45.999 -14c4.66699 -4.66699 7 -13 7 -25c0 -10.667 -2.33301 -19 -7 -25c-9.33301 -10.667 -14 -10.334 -14 0.999023c0 5.33301 -3.66699 8 -11 8c-10.667 0 -26.167 -5 -46.5 -15
s-40.166 -22.667 -59.499 -38c-29.333 -23.333 -58 -52.833 -86 -88.5s-45.333 -65.167 -52 -88.5c-3.33301 -12 -5 -23.667 -5 -35c0 -33.333 10.667 -60 32 -80c14 -13.333 36 -20 66 -20c19.333 0 38.666 4 57.999 12c49.333 21.333 91 54.666 125 99.999
c8 10.667 14.167 17.167 18.5 19.5s15.5 5.5 33.5 9.5c14 3.33301 25 5 33 5c4.66699 0 8.33398 -1.33301 11.001 -4c4 -4 9.33301 -6.66699 16 -8c4 -0.666992 6.33301 -2.5 7 -5.5s1 -10.833 1 -23.5c0 -19.333 -6.33301 -41.833 -19 -67.5
s-28.334 -47.834 -47.001 -66.501c-66 -67.333 -145 -101 -237 -101c-23.333 0 -42.333 2.16699 -57 6.5s-31 12.833 -49 25.5c-14.667 10 -26.667 21.167 -36 33.5s-20 29.833 -32 52.5c-16.667 32.667 -25 65 -25 97c0 63.333 28.667 128.5 86 195.5
s121.666 110.833 192.999 131.5z" />
    <glyph glyph-name="D" unicode="D" horiz-adv-x="649" 
d="M329 424c-14.667 1.33301 -37.001 3.00195 -67.001 5.00195l-27 2l20 -27c30 -40.667 61 -88.167 93 -142.5s48 -86.166 48 -95.499c0 -4 0.666992 -6 2 -6c2 0 9.66699 5.33301 23 16c18 14 37.333 32 58 54s36 41 46 57c17.333 27.333 26 49.666 26 66.999
c0 3.33301 -0.333008 5.66602 -1 6.99902c-1.33301 4 -10.666 10.167 -27.999 18.5s-35 15.166 -53 20.499c-45.333 13.333 -92 21.333 -140 24zM213.999 490.002c38 6 85.6641 9.00098 142.997 9.00098c61.333 0 108.333 -3.33301 141 -10
c34.667 -6.66699 65.167 -18.5 91.5 -35.5s43.833 -35.833 52.5 -56.5c4.66699 -12 7 -28.667 7 -50c0 -20 -2.33301 -39.333 -7 -58c-18 -64 -53.667 -123.667 -107 -179c-34.667 -36 -74.5 -68.5 -119.5 -97.5s-84.167 -47.5 -117.5 -55.5l-28 -7l-20 13
c-12.667 8.66699 -24.667 23.334 -36 44.001c-10 20 -15 34.667 -15 44c0 14 14.667 24.333 44 31c30 6.66699 52.667 14.334 68 23.001c0.666992 0 0.666992 0.666992 0 2s-1.66699 3.16602 -3 5.49902s-2.66602 4.83301 -3.99902 7.5
c-6 9.33301 -10.667 21.666 -14 36.999c-5.33301 24.667 -29.333 82.667 -72 174c-29.333 61.333 -45.666 92.666 -48.999 93.999c-0.666992 0.666992 -3.66699 1 -9 1c-12.667 0 -32.5 -1.83301 -59.5 -5.5s-47.167 -7.5 -60.5 -11.5c-12 -3.33301 -20.667 -5 -26 -5
c-8.66699 0 -13 5.33301 -13 16c0 6.66699 6.66699 13.334 20 20.001c29.333 15.333 64.666 26.666 105.999 33.999c3.33301 0.666992 10 4 20 10s18 9 24 9c4.66699 0 9.33398 -1.33301 14.001 -4c2.66699 -2 12.334 -1.66699 29.001 1z" />
    <glyph glyph-name="D" unicode="d" horiz-adv-x="649" 
d="M329 424c-14.667 1.33301 -37.001 3.00195 -67.001 5.00195l-27 2l20 -27c30 -40.667 61 -88.167 93 -142.5s48 -86.166 48 -95.499c0 -4 0.666992 -6 2 -6c2 0 9.66699 5.33301 23 16c18 14 37.333 32 58 54s36 41 46 57c17.333 27.333 26 49.666 26 66.999
c0 3.33301 -0.333008 5.66602 -1 6.99902c-1.33301 4 -10.666 10.167 -27.999 18.5s-35 15.166 -53 20.499c-45.333 13.333 -92 21.333 -140 24zM213.999 490.002c38 6 85.6641 9.00098 142.997 9.00098c61.333 0 108.333 -3.33301 141 -10
c34.667 -6.66699 65.167 -18.5 91.5 -35.5s43.833 -35.833 52.5 -56.5c4.66699 -12 7 -28.667 7 -50c0 -20 -2.33301 -39.333 -7 -58c-18 -64 -53.667 -123.667 -107 -179c-34.667 -36 -74.5 -68.5 -119.5 -97.5s-84.167 -47.5 -117.5 -55.5l-28 -7l-20 13
c-12.667 8.66699 -24.667 23.334 -36 44.001c-10 20 -15 34.667 -15 44c0 14 14.667 24.333 44 31c30 6.66699 52.667 14.334 68 23.001c0.666992 0 0.666992 0.666992 0 2s-1.66699 3.16602 -3 5.49902s-2.66602 4.83301 -3.99902 7.5
c-6 9.33301 -10.667 21.666 -14 36.999c-5.33301 24.667 -29.333 82.667 -72 174c-29.333 61.333 -45.666 92.666 -48.999 93.999c-0.666992 0.666992 -3.66699 1 -9 1c-12.667 0 -32.5 -1.83301 -59.5 -5.5s-47.167 -7.5 -60.5 -11.5c-12 -3.33301 -20.667 -5 -26 -5
c-8.66699 0 -13 5.33301 -13 16c0 6.66699 6.66699 13.334 20 20.001c29.333 15.333 64.666 26.666 105.999 33.999c3.33301 0.666992 10 4 20 10s18 9 24 9c4.66699 0 9.33398 -1.33301 14.001 -4c2.66699 -2 12.334 -1.66699 29.001 1z" />
    <glyph glyph-name="E" unicode="E" horiz-adv-x="518" 
d="M350 468c0 2 -5.33203 3 -15.999 3c-20.667 0 -38 -2.33301 -52 -7c-25.333 -8 -51.666 -21.5 -78.999 -40.5s-49 -39.167 -65 -60.5c-15.333 -22 -23 -38.333 -23 -49c0 -3.33301 0.666992 -5.33301 2 -6c0.666992 -0.666992 1.33398 -1 2.00098 -1
c3.33301 0 13.666 2.66699 30.999 8c37.333 12.667 73.166 30.667 107.499 54s59.166 46.666 74.499 69.999c12 16.667 18 26.334 18 29.001zM286.001 586c10 2 20.334 3.00098 31.001 3.00098c26 0 49.833 -4.83301 71.5 -14.5s35.5 -22.167 41.5 -37.5
c2.66699 -6 4 -15 4 -27c0 -30 -7.66699 -62.333 -23 -97c-4 -8 -15.333 -21.333 -34 -40c-49.333 -49.333 -120.666 -81 -213.999 -95l-37 -6l14 -18c8.66699 -12 18.334 -20.667 29.001 -26c13.333 -7.33301 33.333 -11 60 -11c11.333 0 21.666 1 30.999 3
c39.333 10 81 31.333 125 64c23.333 17.333 45 28.666 65 33.999c11.333 3.33301 20.666 5 27.999 5c6 0 12.333 -1.66699 19 -5c11.333 -5.33301 17.666 -10 18.999 -14c2 -6 3 -12.333 3 -19c0 -20.667 -8 -45.667 -24 -75c-7.33301 -14 -14.833 -24.833 -22.5 -32.5
s-21.5 -18.167 -41.5 -31.5c-68.667 -45.333 -139.334 -68 -212.001 -68c-18.667 0 -36 2 -52 6c-54 14 -97.667 51 -131 111c-23.333 42.667 -35 82 -35 118c0 52 19.333 101.667 58 149c52.667 64.667 128.334 106 227.001 124z" />
    <glyph glyph-name="E" unicode="e" horiz-adv-x="518" 
d="M350 468c0 2 -5.33203 3 -15.999 3c-20.667 0 -38 -2.33301 -52 -7c-25.333 -8 -51.666 -21.5 -78.999 -40.5s-49 -39.167 -65 -60.5c-15.333 -22 -23 -38.333 -23 -49c0 -3.33301 0.666992 -5.33301 2 -6c0.666992 -0.666992 1.33398 -1 2.00098 -1
c3.33301 0 13.666 2.66699 30.999 8c37.333 12.667 73.166 30.667 107.499 54s59.166 46.666 74.499 69.999c12 16.667 18 26.334 18 29.001zM286.001 586c10 2 20.334 3.00098 31.001 3.00098c26 0 49.833 -4.83301 71.5 -14.5s35.5 -22.167 41.5 -37.5
c2.66699 -6 4 -15 4 -27c0 -30 -7.66699 -62.333 -23 -97c-4 -8 -15.333 -21.333 -34 -40c-49.333 -49.333 -120.666 -81 -213.999 -95l-37 -6l14 -18c8.66699 -12 18.334 -20.667 29.001 -26c13.333 -7.33301 33.333 -11 60 -11c11.333 0 21.666 1 30.999 3
c39.333 10 81 31.333 125 64c23.333 17.333 45 28.666 65 33.999c11.333 3.33301 20.666 5 27.999 5c6 0 12.333 -1.66699 19 -5c11.333 -5.33301 17.666 -10 18.999 -14c2 -6 3 -12.333 3 -19c0 -20.667 -8 -45.667 -24 -75c-7.33301 -14 -14.833 -24.833 -22.5 -32.5
s-21.5 -18.167 -41.5 -31.5c-68.667 -45.333 -139.334 -68 -212.001 -68c-18.667 0 -36 2 -52 6c-54 14 -97.667 51 -131 111c-23.333 42.667 -35 82 -35 118c0 52 19.333 101.667 58 149c52.667 64.667 128.334 106 227.001 124z" />
    <glyph glyph-name="F" unicode="F" horiz-adv-x="728" 
d="M484 638c24 4 49.668 6.00391 77.001 6.00391c26.667 0 49 -2 67 -6c16.667 -3.33301 34 -9.5 52 -18.5s30.667 -18.167 38 -27.5c6.66699 -8.66699 10 -17.334 10 -26.001c0 -8 -0.333008 -14.667 -1 -20c-1.33301 -22 -8.33301 -46 -21 -72
c-12 -24.667 -21.667 -38.334 -29 -41.001c-1.33301 -0.666992 -3.33301 -1 -6 -1c-16.667 0 -32 14.667 -46 44c-8.66699 18.667 -16.334 28.667 -23.001 30c-8 2.66699 -24 4 -48 4c-42.667 0 -77.667 -3 -105 -9c-48 -9.33301 -95.333 -26 -142 -50s-83 -50.333 -109 -79
c-24.667 -26.667 -37 -51.334 -37 -74.001c0 -1.33301 0.166992 -3 0.5 -5s0.5 -3.66699 0.5 -5c1.33301 -10.667 4.66602 -25.167 9.99902 -43.5s9.33301 -28.833 12 -31.5h1c14 0 69 22 165 66c48 22 78.333 33 91 33c8.66699 0 16.667 -2.33301 24 -7
c9.33301 -6 14 -14.333 14 -25c0 -9.33301 -3 -21 -9 -35c-8 -20 -14.667 -32.333 -20 -37s-17.666 -9 -36.999 -13c-126 -26.667 -189 -41.667 -189 -45s23 -28 69 -74c48.667 -48.667 73 -78.334 73 -89.001c0 -2.66699 -1 -5 -3 -7
c-0.666992 -0.666992 -1.66699 -1 -3 -1c-11.333 0 -38.333 13.333 -81 40c-46 28 -85.333 59.333 -118 94l-22 24l-61 -11c-32 -6 -50.667 -9 -56 -9c-4 0 -8.33301 1.66699 -13 5c-5.33301 4 -8 8 -8 12c0 3.33301 13.667 10.333 41 21c44.667 17.333 67 27 67 29
c0 16.667 -6.16699 39.5 -18.5 68.5s-18.5 49.833 -18.5 62.5c0 32.667 9.33301 67 28 103c30.667 58.667 80.5 106.5 149.5 143.5s147.167 62.5 234.5 76.5z" />
    <glyph glyph-name="F" unicode="f" horiz-adv-x="728" 
d="M484 638c24 4 49.668 6.00391 77.001 6.00391c26.667 0 49 -2 67 -6c16.667 -3.33301 34 -9.5 52 -18.5s30.667 -18.167 38 -27.5c6.66699 -8.66699 10 -17.334 10 -26.001c0 -8 -0.333008 -14.667 -1 -20c-1.33301 -22 -8.33301 -46 -21 -72
c-12 -24.667 -21.667 -38.334 -29 -41.001c-1.33301 -0.666992 -3.33301 -1 -6 -1c-16.667 0 -32 14.667 -46 44c-8.66699 18.667 -16.334 28.667 -23.001 30c-8 2.66699 -24 4 -48 4c-42.667 0 -77.667 -3 -105 -9c-48 -9.33301 -95.333 -26 -142 -50s-83 -50.333 -109 -79
c-24.667 -26.667 -37 -51.334 -37 -74.001c0 -1.33301 0.166992 -3 0.5 -5s0.5 -3.66699 0.5 -5c1.33301 -10.667 4.66602 -25.167 9.99902 -43.5s9.33301 -28.833 12 -31.5h1c14 0 69 22 165 66c48 22 78.333 33 91 33c8.66699 0 16.667 -2.33301 24 -7
c9.33301 -6 14 -14.333 14 -25c0 -9.33301 -3 -21 -9 -35c-8 -20 -14.667 -32.333 -20 -37s-17.666 -9 -36.999 -13c-126 -26.667 -189 -41.667 -189 -45s23 -28 69 -74c48.667 -48.667 73 -78.334 73 -89.001c0 -2.66699 -1 -5 -3 -7
c-0.666992 -0.666992 -1.66699 -1 -3 -1c-11.333 0 -38.333 13.333 -81 40c-46 28 -85.333 59.333 -118 94l-22 24l-61 -11c-32 -6 -50.667 -9 -56 -9c-4 0 -8.33301 1.66699 -13 5c-5.33301 4 -8 8 -8 12c0 3.33301 13.667 10.333 41 21c44.667 17.333 67 27 67 29
c0 16.667 -6.16699 39.5 -18.5 68.5s-18.5 49.833 -18.5 62.5c0 32.667 9.33301 67 28 103c30.667 58.667 80.5 106.5 149.5 143.5s147.167 62.5 234.5 76.5z" />
    <glyph glyph-name="G" unicode="G" horiz-adv-x="628" 
d="M345 563c24 6.66699 48.3281 9.99707 72.9951 9.99707c19.333 0 35.666 -2.33301 48.999 -7c12.667 -4.66699 22.667 -12.667 30 -24c6.66699 -12 10 -21.667 10 -29c0 -4.66699 -1.33301 -7 -4 -7s-5.66699 3 -9 9c-6.66699 12.667 -21 19 -43 19
c-50 0 -114.667 -26.667 -194 -80c-26 -17.333 -55 -42 -87 -74s-52.667 -57.333 -62 -76c-9.33301 -16.667 -14 -33.334 -14 -50.001c0 -22 9.33301 -42.667 28 -62c20 -20.667 57.333 -32 112 -34h22c40.667 0 82 8 124 24c22.667 8.66699 47 21.834 73 39.501
s39 29.5 39 35.5c0 0.666992 -0.333008 1.33398 -1 2.00098c-3.33301 2 -17 4.5 -41 7.5s-43.667 4.5 -59 4.5c-29.333 0 -58.833 -4 -88.5 -12s-51.834 -18 -66.501 -30c-11.333 -8.66699 -19 -13 -23 -13c-12.667 0 -28.667 17.333 -48 52
c-10.667 18.667 -16 34.667 -16 48c0 18.667 14.333 35.334 43 50.001c30 14.667 73.333 27 130 37c23.333 3.33301 51 5 83 5c47.333 0 82 -3 104 -9c20.667 -5.33301 41.834 -13.833 63.501 -25.5s35.834 -21.834 42.501 -30.501c8.66699 -11.333 13 -28.333 13 -51
c0 -50.667 -16.333 -96 -49 -136c-27.333 -33.333 -69.166 -61.666 -125.499 -84.999s-116.166 -36.333 -179.499 -39c-3.33301 0 -7.66602 -0.166992 -12.999 -0.5s-9.33301 -0.5 -12 -0.5c-61.333 0 -114.666 16 -159.999 48c-14.667 10.667 -26.167 21 -34.5 31
s-18.166 26 -29.499 48c-16 30 -24 58.333 -24 85c0 28.667 9.33301 60.667 28 96c13.333 24.667 33.333 50.334 60 77.001c70.667 71.333 156 120.333 256 147z" />
    <glyph glyph-name="G" unicode="g" horiz-adv-x="628" 
d="M345 563c24 6.66699 48.3281 9.99707 72.9951 9.99707c19.333 0 35.666 -2.33301 48.999 -7c12.667 -4.66699 22.667 -12.667 30 -24c6.66699 -12 10 -21.667 10 -29c0 -4.66699 -1.33301 -7 -4 -7s-5.66699 3 -9 9c-6.66699 12.667 -21 19 -43 19
c-50 0 -114.667 -26.667 -194 -80c-26 -17.333 -55 -42 -87 -74s-52.667 -57.333 -62 -76c-9.33301 -16.667 -14 -33.334 -14 -50.001c0 -22 9.33301 -42.667 28 -62c20 -20.667 57.333 -32 112 -34h22c40.667 0 82 8 124 24c22.667 8.66699 47 21.834 73 39.501
s39 29.5 39 35.5c0 0.666992 -0.333008 1.33398 -1 2.00098c-3.33301 2 -17 4.5 -41 7.5s-43.667 4.5 -59 4.5c-29.333 0 -58.833 -4 -88.5 -12s-51.834 -18 -66.501 -30c-11.333 -8.66699 -19 -13 -23 -13c-12.667 0 -28.667 17.333 -48 52
c-10.667 18.667 -16 34.667 -16 48c0 18.667 14.333 35.334 43 50.001c30 14.667 73.333 27 130 37c23.333 3.33301 51 5 83 5c47.333 0 82 -3 104 -9c20.667 -5.33301 41.834 -13.833 63.501 -25.5s35.834 -21.834 42.501 -30.501c8.66699 -11.333 13 -28.333 13 -51
c0 -50.667 -16.333 -96 -49 -136c-27.333 -33.333 -69.166 -61.666 -125.499 -84.999s-116.166 -36.333 -179.499 -39c-3.33301 0 -7.66602 -0.166992 -12.999 -0.5s-9.33301 -0.5 -12 -0.5c-61.333 0 -114.666 16 -159.999 48c-14.667 10.667 -26.167 21 -34.5 31
s-18.166 26 -29.499 48c-16 30 -24 58.333 -24 85c0 28.667 9.33301 60.667 28 96c13.333 24.667 33.333 50.334 60 77.001c70.667 71.333 156 120.333 256 147z" />
    <glyph glyph-name="H" unicode="H" horiz-adv-x="550" 
d="M332 621c18 4 30.334 5.99902 37.001 5.99902c6 0 10.667 -2 14 -6c4 -4 8.66699 -6 14 -6c6 0 10.667 -4 14 -12s8.66602 -28.333 15.999 -61c38.667 -170 74.667 -306.667 108 -410c10 -30.667 15 -51.667 15 -63c0 -1.33301 -0.166992 -3.16602 -0.5 -5.49902
s-0.5 -4.16602 -0.5 -5.49902c-1.33301 -16 -3.33301 -25.667 -6 -29c-2.66699 -6.66699 -8 -18 -16 -34c-8.66699 -18 -16.667 -27 -24 -27c-4.66699 0 -11.667 3 -21 9c-10 6.66699 -21.5 21.667 -34.5 45s-23.833 49.333 -32.5 78c-13.333 40 -35 117.667 -65 233l-4 15
l-9 -15c-8.66699 -14 -23.334 -29.833 -44.001 -47.5s-41.334 -31.834 -62.001 -42.501l-40 -21l1 -21c0 -11.333 4.66699 -36.333 14 -75c8 -34 12 -59 12 -75s-4.66699 -34.333 -14 -55c-9.33301 -21.333 -16.666 -32.333 -21.999 -33h-4c-16 0 -32.667 16 -50 48
c-13.333 26.667 -26 63.334 -38 110.001s-18 82.667 -18 108c0 15.333 -5 44.333 -15 87c-37.333 160 -56 245.667 -56 257c0 8 5.66699 12 17 12c8.66699 0 15.334 -2.66699 20.001 -8c9.33301 -10.667 31.333 -68.334 66 -173.001l20 -62l27 16
c48 26.667 81.333 53.167 100 79.5s31 65.5 37 117.5c3.33301 32 7 50 11 54c4.66699 4.66699 15.667 8.66699 33 12z" />
    <glyph glyph-name="H" unicode="h" horiz-adv-x="550" 
d="M332 621c18 4 30.334 5.99902 37.001 5.99902c6 0 10.667 -2 14 -6c4 -4 8.66699 -6 14 -6c6 0 10.667 -4 14 -12s8.66602 -28.333 15.999 -61c38.667 -170 74.667 -306.667 108 -410c10 -30.667 15 -51.667 15 -63c0 -1.33301 -0.166992 -3.16602 -0.5 -5.49902
s-0.5 -4.16602 -0.5 -5.49902c-1.33301 -16 -3.33301 -25.667 -6 -29c-2.66699 -6.66699 -8 -18 -16 -34c-8.66699 -18 -16.667 -27 -24 -27c-4.66699 0 -11.667 3 -21 9c-10 6.66699 -21.5 21.667 -34.5 45s-23.833 49.333 -32.5 78c-13.333 40 -35 117.667 -65 233l-4 15
l-9 -15c-8.66699 -14 -23.334 -29.833 -44.001 -47.5s-41.334 -31.834 -62.001 -42.501l-40 -21l1 -21c0 -11.333 4.66699 -36.333 14 -75c8 -34 12 -59 12 -75s-4.66699 -34.333 -14 -55c-9.33301 -21.333 -16.666 -32.333 -21.999 -33h-4c-16 0 -32.667 16 -50 48
c-13.333 26.667 -26 63.334 -38 110.001s-18 82.667 -18 108c0 15.333 -5 44.333 -15 87c-37.333 160 -56 245.667 -56 257c0 8 5.66699 12 17 12c8.66699 0 15.334 -2.66699 20.001 -8c9.33301 -10.667 31.333 -68.334 66 -173.001l20 -62l27 16
c48 26.667 81.333 53.167 100 79.5s31 65.5 37 117.5c3.33301 32 7 50 11 54c4.66699 4.66699 15.667 8.66699 33 12z" />
    <glyph glyph-name="I" unicode="I" horiz-adv-x="211" 
d="M136 827c12 4 23.333 6.00098 34 6.00098s20 -2 28 -6c6 -2.66699 9.66699 -5.5 11 -8.5s2 -10.167 2 -21.5c0 -12.667 -4.16699 -31.167 -12.5 -55.5s-17.833 -45.5 -28.5 -63.5c-16 -28 -36.667 -56 -62 -84s-47.333 -47.333 -66 -58
c-14.667 -8.66699 -25.667 -13 -33 -13c-5.33301 0 -8 3 -8 9c0 8 7 23.667 21 47c24 38 44.667 77.667 62 119s26 72 26 92c0 12.667 1.5 21.167 4.5 25.5s10.167 8.16602 21.5 11.499zM37 436.001c5.33301 5.33301 12 7.33496 20 6.00195c6.66699 -0.666992 12 -5 16 -13
s13 -33.333 27 -76c38 -112 66.667 -184 86 -216c11.333 -19.333 17 -35.333 17 -48c0 -8.66699 -2 -17.334 -6 -26.001c-14 -40.667 -27.333 -61 -40 -61c-6 0 -13.5 4.33301 -22.5 13s-16.833 19 -23.5 31c-12 20.667 -27.333 72.167 -46 154.5
s-29.667 146.166 -33 191.499c-0.666992 6 -1 13.333 -1 22c0 10.667 2 18 6 22z" />
    <glyph glyph-name="I" unicode="i" horiz-adv-x="211" 
d="M136 827c12 4 23.333 6.00098 34 6.00098s20 -2 28 -6c6 -2.66699 9.66699 -5.5 11 -8.5s2 -10.167 2 -21.5c0 -12.667 -4.16699 -31.167 -12.5 -55.5s-17.833 -45.5 -28.5 -63.5c-16 -28 -36.667 -56 -62 -84s-47.333 -47.333 -66 -58
c-14.667 -8.66699 -25.667 -13 -33 -13c-5.33301 0 -8 3 -8 9c0 8 7 23.667 21 47c24 38 44.667 77.667 62 119s26 72 26 92c0 12.667 1.5 21.167 4.5 25.5s10.167 8.16602 21.5 11.499zM37 436.001c5.33301 5.33301 12 7.33496 20 6.00195c6.66699 -0.666992 12 -5 16 -13
s13 -33.333 27 -76c38 -112 66.667 -184 86 -216c11.333 -19.333 17 -35.333 17 -48c0 -8.66699 -2 -17.334 -6 -26.001c-14 -40.667 -27.333 -61 -40 -61c-6 0 -13.5 4.33301 -22.5 13s-16.833 19 -23.5 31c-12 20.667 -27.333 72.167 -46 154.5
s-29.667 146.166 -33 191.499c-0.666992 6 -1 13.333 -1 22c0 10.667 2 18 6 22z" />
    <glyph glyph-name="J" unicode="J" horiz-adv-x="488" 
d="M400 742c14.667 4.66699 26.667 7.00195 36 7.00195c7.33301 0 17 -2.66699 29 -8c8 -4 13 -7.16699 15 -9.5s3 -6.83301 3 -13.5c0 -8 -4.16699 -23.167 -12.5 -45.5s-15.166 -36.5 -20.499 -42.5c-10.667 -11.333 -58.334 -33.333 -143.001 -66
c-3.33301 -1.33301 -5 -2.66602 -5 -3.99902c0 -3.33301 12.333 -17 37 -41c70.667 -69.333 116.667 -136.333 138 -201c7.33301 -23.333 11 -47.666 11 -72.999c0 -22.667 -3.33301 -44.667 -10 -66c-16 -47.333 -37.167 -84 -63.5 -110s-63.166 -46.333 -110.499 -61
c-26.667 -8 -59.667 -12 -99 -12c-36.667 0 -65 2.33301 -85 7s-39 14 -57 28c-16.667 12 -31.167 29.167 -43.5 51.5s-18.5 41.5 -18.5 57.5c0 4 0.666992 8.66699 2 14c4 9.33301 12.667 17 26 23s27 9 41 9c26 0 39 -7.66699 39 -23c0 -6.66699 3 -12 9 -16
c18 -12 52.333 -18 103 -18h13c28 0.666992 51.333 5.66699 70 15s36 21.666 52 36.999s25.667 29.333 29 42c3.33301 13.333 5 26.666 5 39.999s-1.33301 25.333 -4 36c-8.66699 35.333 -28.667 76.666 -60 123.999c-12.667 20 -29.5 43.667 -50.5 71s-32.833 41 -35.5 41
s-15 -4.33301 -37 -13c-63.333 -24.667 -103 -37 -119 -37c-14 0 -24.667 8.33301 -32 25c-5.33301 12 -6.33301 21 -3 27c4.66699 11.333 66.667 50.666 186 117.999l58.5 32.5c26.333 14.333 42.5 23.5 48.5 27.5c21.333 13.333 40.666 22.333 57.999 27z" />
    <glyph glyph-name="J" unicode="j" horiz-adv-x="488" 
d="M400 742c14.667 4.66699 26.667 7.00195 36 7.00195c7.33301 0 17 -2.66699 29 -8c8 -4 13 -7.16699 15 -9.5s3 -6.83301 3 -13.5c0 -8 -4.16699 -23.167 -12.5 -45.5s-15.166 -36.5 -20.499 -42.5c-10.667 -11.333 -58.334 -33.333 -143.001 -66
c-3.33301 -1.33301 -5 -2.66602 -5 -3.99902c0 -3.33301 12.333 -17 37 -41c70.667 -69.333 116.667 -136.333 138 -201c7.33301 -23.333 11 -47.666 11 -72.999c0 -22.667 -3.33301 -44.667 -10 -66c-16 -47.333 -37.167 -84 -63.5 -110s-63.166 -46.333 -110.499 -61
c-26.667 -8 -59.667 -12 -99 -12c-36.667 0 -65 2.33301 -85 7s-39 14 -57 28c-16.667 12 -31.167 29.167 -43.5 51.5s-18.5 41.5 -18.5 57.5c0 4 0.666992 8.66699 2 14c4 9.33301 12.667 17 26 23s27 9 41 9c26 0 39 -7.66699 39 -23c0 -6.66699 3 -12 9 -16
c18 -12 52.333 -18 103 -18h13c28 0.666992 51.333 5.66699 70 15s36 21.666 52 36.999s25.667 29.333 29 42c3.33301 13.333 5 26.666 5 39.999s-1.33301 25.333 -4 36c-8.66699 35.333 -28.667 76.666 -60 123.999c-12.667 20 -29.5 43.667 -50.5 71s-32.833 41 -35.5 41
s-15 -4.33301 -37 -13c-63.333 -24.667 -103 -37 -119 -37c-14 0 -24.667 8.33301 -32 25c-5.33301 12 -6.33301 21 -3 27c4.66699 11.333 66.667 50.666 186 117.999l58.5 32.5c26.333 14.333 42.5 23.5 48.5 27.5c21.333 13.333 40.666 22.333 57.999 27z" />
    <glyph glyph-name="K" unicode="K" horiz-adv-x="566" 
d="M2 611c2 6 7.00098 9 15.001 9s13.333 -3.33301 16 -10c1.33301 -3.33301 10 -38.5 26 -105.5s24.667 -102.167 26 -105.5c0 -0.666992 3 -12.834 9 -36.501l18 -70c6 -23 9.33301 -34.5 10 -34.5c1.33301 0 6.16602 5.83301 14.499 17.5s12.833 18.834 13.5 21.501
c0 6.66699 51.333 69.667 154 189c35.333 40.667 56.666 62 63.999 64c4.66699 0.666992 12.667 2.66699 24 6c14 4 25 6 33 6c8.66699 0 17.334 -2.33301 26.001 -7c7.33301 -4 12.166 -7.83301 14.499 -11.5s3.5 -9.83398 3.5 -18.501
c0 -22.667 -7.66699 -49.334 -23 -80.001c-6 -11.333 -22.667 -36 -50 -74l-72 -105l-30 -45l78 -32c87.333 -35.333 137.333 -53 150 -53c10 0 15 -1.33301 15 -4s2.66699 -4 8 -4c14 0 21 -9.33301 21 -28c0 -0.666992 -0.166992 -2.16699 -0.5 -4.5
s-0.5 -4.16602 -0.5 -5.49902c-2.66699 -17.333 -5.66699 -28 -9 -32c-4 -6.66699 -5.33301 -10 -4 -10s0.166016 -3.66699 -3.50098 -11s-8 -15.166 -13 -23.499s-8.5 -13.166 -10.5 -14.499c-5.33301 -4 -11.333 -6 -18 -6c-16 0 -64 17 -144 51
c-85.333 36 -132 54 -140 54c-2.66699 0 -12 -13.333 -28 -40c-18 -29.333 -31.167 -49.166 -39.5 -59.499s-16.166 -15.5 -23.499 -15.5c-5.33301 0 -11.333 2.33301 -18 7c-8 5.33301 -17 16.166 -27 32.499s-16.667 31.166 -20 44.499c-4 14.667 -18 125 -42 331
c-8.66699 68 -13.667 103.667 -15 107c-1.33301 2.66699 -3.16602 16 -5.49902 40s-3.5 42.667 -3.5 56c0 6 0.333008 9.33301 1 10z" />
    <glyph glyph-name="K" unicode="k" horiz-adv-x="566" 
d="M2 611c2 6 7.00098 9 15.001 9s13.333 -3.33301 16 -10c1.33301 -3.33301 10 -38.5 26 -105.5s24.667 -102.167 26 -105.5c0 -0.666992 3 -12.834 9 -36.501l18 -70c6 -23 9.33301 -34.5 10 -34.5c1.33301 0 6.16602 5.83301 14.499 17.5s12.833 18.834 13.5 21.501
c0 6.66699 51.333 69.667 154 189c35.333 40.667 56.666 62 63.999 64c4.66699 0.666992 12.667 2.66699 24 6c14 4 25 6 33 6c8.66699 0 17.334 -2.33301 26.001 -7c7.33301 -4 12.166 -7.83301 14.499 -11.5s3.5 -9.83398 3.5 -18.501
c0 -22.667 -7.66699 -49.334 -23 -80.001c-6 -11.333 -22.667 -36 -50 -74l-72 -105l-30 -45l78 -32c87.333 -35.333 137.333 -53 150 -53c10 0 15 -1.33301 15 -4s2.66699 -4 8 -4c14 0 21 -9.33301 21 -28c0 -0.666992 -0.166992 -2.16699 -0.5 -4.5
s-0.5 -4.16602 -0.5 -5.49902c-2.66699 -17.333 -5.66699 -28 -9 -32c-4 -6.66699 -5.33301 -10 -4 -10s0.166016 -3.66699 -3.50098 -11s-8 -15.166 -13 -23.499s-8.5 -13.166 -10.5 -14.499c-5.33301 -4 -11.333 -6 -18 -6c-16 0 -64 17 -144 51
c-85.333 36 -132 54 -140 54c-2.66699 0 -12 -13.333 -28 -40c-18 -29.333 -31.167 -49.166 -39.5 -59.499s-16.166 -15.5 -23.499 -15.5c-5.33301 0 -11.333 2.33301 -18 7c-8 5.33301 -17 16.166 -27 32.499s-16.667 31.166 -20 44.499c-4 14.667 -18 125 -42 331
c-8.66699 68 -13.667 103.667 -15 107c-1.33301 2.66699 -3.16602 16 -5.49902 40s-3.5 42.667 -3.5 56c0 6 0.333008 9.33301 1 10z" />
    <glyph glyph-name="L" unicode="L" horiz-adv-x="637" 
d="M11 590c8 2.66699 13.332 4 15.999 4c8 0 16.167 -4.66699 24.5 -14s19.5 -26 33.5 -50c51.333 -88.667 105.333 -209 162 -361c18.667 -48.667 28.334 -73.334 29.001 -74.001c1.33301 -1.33301 17 5.66699 47 21c28 14.667 60 29.667 96 45l54 26
c0 4.66699 -7.66699 12.334 -23 23.001c-20.667 16 -34.667 28 -42 36s-15 19.667 -23 35c-10 21.333 -15 35.333 -15 42c0 8.66699 4.33301 15.334 13 20.001s23.334 8.66699 44.001 12c10 2 17.333 3 22 3c7.33301 0 18.666 -4.33301 33.999 -13
c16 -8.66699 43.167 -27.834 81.5 -57.501s60.166 -48.834 65.499 -57.501c4.66699 -8 7 -19.333 7 -34c0 -14 -2.33301 -27 -7 -39c-3.33301 -6.66699 -7.33301 -17 -12 -31c-8.66699 -25.333 -28.667 -44.333 -60 -57c-92 -38 -171 -74.667 -237 -110
c-37.333 -19.333 -58.666 -29 -63.999 -29c-14 0 -29 11.833 -45 35.5s-28.333 52.834 -37 87.501c-15.333 59.333 -40 141.166 -74 245.499s-61 181.5 -81 231.5c-12.667 30 -19 47.333 -19 52c0 2.66699 3.33301 5.33398 10 8.00098z" />
    <glyph glyph-name="L" unicode="l" horiz-adv-x="637" 
d="M11 590c8 2.66699 13.332 4 15.999 4c8 0 16.167 -4.66699 24.5 -14s19.5 -26 33.5 -50c51.333 -88.667 105.333 -209 162 -361c18.667 -48.667 28.334 -73.334 29.001 -74.001c1.33301 -1.33301 17 5.66699 47 21c28 14.667 60 29.667 96 45l54 26
c0 4.66699 -7.66699 12.334 -23 23.001c-20.667 16 -34.667 28 -42 36s-15 19.667 -23 35c-10 21.333 -15 35.333 -15 42c0 8.66699 4.33301 15.334 13 20.001s23.334 8.66699 44.001 12c10 2 17.333 3 22 3c7.33301 0 18.666 -4.33301 33.999 -13
c16 -8.66699 43.167 -27.834 81.5 -57.501s60.166 -48.834 65.499 -57.501c4.66699 -8 7 -19.333 7 -34c0 -14 -2.33301 -27 -7 -39c-3.33301 -6.66699 -7.33301 -17 -12 -31c-8.66699 -25.333 -28.667 -44.333 -60 -57c-92 -38 -171 -74.667 -237 -110
c-37.333 -19.333 -58.666 -29 -63.999 -29c-14 0 -29 11.833 -45 35.5s-28.333 52.834 -37 87.501c-15.333 59.333 -40 141.166 -74 245.499s-61 181.5 -81 231.5c-12.667 30 -19 47.333 -19 52c0 2.66699 3.33301 5.33398 10 8.00098z" />
    <glyph glyph-name="M" unicode="M" horiz-adv-x="717" 
d="M405 669c10.667 2.66699 20.999 4 30.999 4c8.66699 0 14.334 -1.66699 17.001 -5c4.66699 -4.66699 8.66699 -7 12 -7c10 0 20.333 -10.333 31 -31c2 -4.66699 31 -86 87 -244c73.333 -210.667 115.666 -324 126.999 -340c5.33301 -8.66699 8 -16.667 8 -24
c0 -1.33301 -0.166992 -3.33301 -0.5 -6s-0.5 -5 -0.5 -7c-0.666992 -9.33301 -1.66699 -16.333 -3 -21s-3.33301 -9.5 -6 -14.5s-5 -10.167 -7 -15.5c-8.66699 -26.667 -19.334 -40 -32.001 -40c-6 0 -15 4.33301 -27 13c-17.333 14 -35.166 42 -53.499 84
s-50.166 127.333 -95.499 256c-40 116.667 -61.667 175 -65 175c-0.666992 0 -3.16699 -12.5 -7.5 -37.5s-8.83301 -54.5 -13.5 -88.5s-8.33398 -63 -11.001 -87c-7.33301 -62 -12.666 -101.167 -15.999 -117.5s-10.666 -36.833 -21.999 -61.5c-10 -22 -20 -33 -30 -33
c-8 0 -18 5 -30 15c-27.333 21.333 -74.333 97 -141 227l-30 58l-3 -64c-4 -82.667 -10.833 -152.167 -20.5 -208.5s-19.834 -84.5 -30.501 -84.5c-7.33301 0 -12.333 7.83301 -15 23.5s-4.33398 53.167 -5.00098 112.5c-4 216 -20 377.333 -48 484
c-2.66699 8.66699 -4 16.667 -4 24c0 8 3.33301 14.167 10 18.5s18.667 8.16602 36 11.499c15.333 3.33301 26.333 5 33 5c4.66699 0 8.33398 -1.33301 11.001 -4c4.66699 -4.66699 9.66699 -7 15 -7c4.66699 0 9.66699 -4.5 15 -13.5s16.333 -32.5 33 -70.5
c16 -36 41.667 -90 77 -162l49 -96l5 37c4.66699 32.667 12.5 80.834 23.5 144.501s18.167 103.167 21.5 118.5c5.33301 19.333 10.666 35 15.999 47c5.33301 10 10.833 16.5 16.5 19.5s19.834 7.16699 42.501 12.5z" />
    <glyph glyph-name="M" unicode="m" horiz-adv-x="717" 
d="M405 669c10.667 2.66699 20.999 4 30.999 4c8.66699 0 14.334 -1.66699 17.001 -5c4.66699 -4.66699 8.66699 -7 12 -7c10 0 20.333 -10.333 31 -31c2 -4.66699 31 -86 87 -244c73.333 -210.667 115.666 -324 126.999 -340c5.33301 -8.66699 8 -16.667 8 -24
c0 -1.33301 -0.166992 -3.33301 -0.5 -6s-0.5 -5 -0.5 -7c-0.666992 -9.33301 -1.66699 -16.333 -3 -21s-3.33301 -9.5 -6 -14.5s-5 -10.167 -7 -15.5c-8.66699 -26.667 -19.334 -40 -32.001 -40c-6 0 -15 4.33301 -27 13c-17.333 14 -35.166 42 -53.499 84
s-50.166 127.333 -95.499 256c-40 116.667 -61.667 175 -65 175c-0.666992 0 -3.16699 -12.5 -7.5 -37.5s-8.83301 -54.5 -13.5 -88.5s-8.33398 -63 -11.001 -87c-7.33301 -62 -12.666 -101.167 -15.999 -117.5s-10.666 -36.833 -21.999 -61.5c-10 -22 -20 -33 -30 -33
c-8 0 -18 5 -30 15c-27.333 21.333 -74.333 97 -141 227l-30 58l-3 -64c-4 -82.667 -10.833 -152.167 -20.5 -208.5s-19.834 -84.5 -30.501 -84.5c-7.33301 0 -12.333 7.83301 -15 23.5s-4.33398 53.167 -5.00098 112.5c-4 216 -20 377.333 -48 484
c-2.66699 8.66699 -4 16.667 -4 24c0 8 3.33301 14.167 10 18.5s18.667 8.16602 36 11.499c15.333 3.33301 26.333 5 33 5c4.66699 0 8.33398 -1.33301 11.001 -4c4.66699 -4.66699 9.66699 -7 15 -7c4.66699 0 9.66699 -4.5 15 -13.5s16.333 -32.5 33 -70.5
c16 -36 41.667 -90 77 -162l49 -96l5 37c4.66699 32.667 12.5 80.834 23.5 144.501s18.167 103.167 21.5 118.5c5.33301 19.333 10.666 35 15.999 47c5.33301 10 10.833 16.5 16.5 19.5s19.834 7.16699 42.501 12.5z" />
    <glyph glyph-name="N" unicode="N" horiz-adv-x="465" 
d="M289 626c16 4 26.667 6.00098 32 6.00098c4.66699 0 8.66699 -2 12 -6c4.66699 -4.66699 9 -7 13 -7c5.33301 0 9.33301 -3.66699 12 -11s4.66699 -21.666 6 -42.999c3.33301 -50.667 27.666 -162 72.999 -334c18.667 -72 28 -119.667 28 -143
c0 -12 -2.33301 -22.667 -7 -32c-3.33301 -6.66699 -5 -10.667 -5 -12c0 -9.33301 -6.66699 -23.666 -20 -42.999c-6 -8.66699 -12.333 -13 -19 -13c-5.33301 0 -13.666 3.66699 -24.999 11c-12 8 -26.833 23 -44.5 45s-55.167 72.667 -112.5 152
c-60.667 82 -91.334 123 -92.001 123s-0.333984 -6.5 0.999023 -19.5l5 -50.5c4.66699 -45.333 7.66699 -97 9 -155c0.666992 -15.333 1 -33 1 -53c0 -24 -2.66699 -41.667 -8 -53c-6 -13.333 -10 -20 -12 -20c-3.33301 0 -8.66602 7.83301 -15.999 23.5
s-13.333 32.5 -18 50.5c-6.66699 23.333 -21.167 90.666 -43.5 201.999s-35.833 176.666 -40.5 195.999c-11.333 51.333 -17 81 -17 89c0 10.667 3.5 18.667 10.5 24s20.167 10 39.5 14c18 3.33301 28 5 30 5c3.33301 0 7.33301 -1.66699 12 -5
c4.66699 -4.66699 9.33398 -7 14.001 -7c8.66699 0 43.667 -42 105 -126c43.333 -58.667 65.333 -88.334 66 -89.001c2.66699 -2.66699 -1 17 -11 59c-20.667 92 -31 150.333 -31 175c0 7.33301 2.66699 16 8 26s10 15 14 15c2 0 12.333 2 31 6z" />
    <glyph glyph-name="N" unicode="n" horiz-adv-x="465" 
d="M289 626c16 4 26.667 6.00098 32 6.00098c4.66699 0 8.66699 -2 12 -6c4.66699 -4.66699 9 -7 13 -7c5.33301 0 9.33301 -3.66699 12 -11s4.66699 -21.666 6 -42.999c3.33301 -50.667 27.666 -162 72.999 -334c18.667 -72 28 -119.667 28 -143
c0 -12 -2.33301 -22.667 -7 -32c-3.33301 -6.66699 -5 -10.667 -5 -12c0 -9.33301 -6.66699 -23.666 -20 -42.999c-6 -8.66699 -12.333 -13 -19 -13c-5.33301 0 -13.666 3.66699 -24.999 11c-12 8 -26.833 23 -44.5 45s-55.167 72.667 -112.5 152
c-60.667 82 -91.334 123 -92.001 123s-0.333984 -6.5 0.999023 -19.5l5 -50.5c4.66699 -45.333 7.66699 -97 9 -155c0.666992 -15.333 1 -33 1 -53c0 -24 -2.66699 -41.667 -8 -53c-6 -13.333 -10 -20 -12 -20c-3.33301 0 -8.66602 7.83301 -15.999 23.5
s-13.333 32.5 -18 50.5c-6.66699 23.333 -21.167 90.666 -43.5 201.999s-35.833 176.666 -40.5 195.999c-11.333 51.333 -17 81 -17 89c0 10.667 3.5 18.667 10.5 24s20.167 10 39.5 14c18 3.33301 28 5 30 5c3.33301 0 7.33301 -1.66699 12 -5
c4.66699 -4.66699 9.33398 -7 14.001 -7c8.66699 0 43.667 -42 105 -126c43.333 -58.667 65.333 -88.334 66 -89.001c2.66699 -2.66699 -1 17 -11 59c-20.667 92 -31 150.333 -31 175c0 7.33301 2.66699 16 8 26s10 15 14 15c2 0 12.333 2 31 6z" />
    <glyph glyph-name="O" unicode="O" horiz-adv-x="419" 
d="M226 395c-14 6.66699 -31.6641 11.0029 -52.9971 13.0029c-2 0 -4.83301 0.166992 -8.5 0.5s-6.16699 0.5 -7.5 0.5c-10 0 -17.667 -1.83301 -23 -5.5s-12.333 -12.167 -21 -25.5c-4.66699 -6.66699 -10 -10 -16 -10c-4.66699 0 -8.66699 2 -12 6s-6 6 -8 6
c-2.66699 0 -4 -5 -4 -15c0 -8 0.333008 -14.667 1 -20c3.33301 -42.667 15.333 -85.334 36 -128.001c12.667 -26.667 27.667 -49.334 45 -68.001s34.666 -30.667 51.999 -36c11.333 -3.33301 19.333 -5 24 -5c10 0 21 6 33 18c28 28 42 66.667 42 116
c0 23.333 -4.33301 49.666 -13 78.999c-4.66699 14 -13.334 28 -26.001 42s-26.334 24.667 -41.001 32zM85.0029 542.003c10 6 18.333 8.99902 25 8.99902c0.666992 0 1.66699 -0.333008 3 -1h2c6 -2 25.667 -3 59 -3l49 -1l41 -21c72.667 -36 121.334 -96.333 146.001 -181
c6 -21.333 9 -53.666 9 -96.999c0 -41.333 -4 -74 -12 -98c-28 -82 -63.667 -133 -107 -153c-14 -6 -33.333 -9 -58 -9c-16.667 0 -28.334 0.833008 -35.001 2.5s-17 5.83398 -31 12.501c-46 23.333 -86.833 66.166 -122.5 128.499s-53.5 128.833 -53.5 199.5
c0 36 6 72.667 18 110c18 54.667 40.333 88.667 67 102z" />
    <glyph glyph-name="O" unicode="o" horiz-adv-x="419" 
d="M226 395c-14 6.66699 -31.6641 11.0029 -52.9971 13.0029c-2 0 -4.83301 0.166992 -8.5 0.5s-6.16699 0.5 -7.5 0.5c-10 0 -17.667 -1.83301 -23 -5.5s-12.333 -12.167 -21 -25.5c-4.66699 -6.66699 -10 -10 -16 -10c-4.66699 0 -8.66699 2 -12 6s-6 6 -8 6
c-2.66699 0 -4 -5 -4 -15c0 -8 0.333008 -14.667 1 -20c3.33301 -42.667 15.333 -85.334 36 -128.001c12.667 -26.667 27.667 -49.334 45 -68.001s34.666 -30.667 51.999 -36c11.333 -3.33301 19.333 -5 24 -5c10 0 21 6 33 18c28 28 42 66.667 42 116
c0 23.333 -4.33301 49.666 -13 78.999c-4.66699 14 -13.334 28 -26.001 42s-26.334 24.667 -41.001 32zM85.0029 542.003c10 6 18.333 8.99902 25 8.99902c0.666992 0 1.66699 -0.333008 3 -1h2c6 -2 25.667 -3 59 -3l49 -1l41 -21c72.667 -36 121.334 -96.333 146.001 -181
c6 -21.333 9 -53.666 9 -96.999c0 -41.333 -4 -74 -12 -98c-28 -82 -63.667 -133 -107 -153c-14 -6 -33.333 -9 -58 -9c-16.667 0 -28.334 0.833008 -35.001 2.5s-17 5.83398 -31 12.501c-46 23.333 -86.833 66.166 -122.5 128.499s-53.5 128.833 -53.5 199.5
c0 36 6 72.667 18 110c18 54.667 40.333 88.667 67 102z" />
    <glyph glyph-name="P" unicode="P" horiz-adv-x="467" 
d="M139 264c0 1.33301 -0.666992 2 -2 2s-2 -0.666992 -2 -2s0.666992 -2 2 -2s2 0.666992 2 2zM130 275c0 -2 0.333008 -3 1 -3l2 3c0.666992 1.33301 0.666992 2.33301 0 3c-2 1.33301 -3 0.333008 -3 -3zM333 568c-10 2.66699 -21.667 3.99609 -35 3.99609
c-33.333 0 -67.833 -9 -103.5 -27s-63.167 -40.667 -82.5 -68c-9.33301 -12 -14 -30.667 -14 -56c0 -13.333 1.66699 -29.333 5 -48c2 -11.333 5 -23.666 9 -36.999s7.66699 -24.5 11 -33.5s5.33301 -13.5 6 -13.5c0.666992 0.666992 1 1.33398 1 2.00098
c0.666992 8.66699 3.66699 15.834 9 21.501s17.333 14.834 36 27.501c43.333 28.667 81.5 63.167 114.5 103.5s52.167 75.5 57.5 105.5c1.33301 7.33301 1.33301 11.833 0 13.5s-6 3.5 -14 5.5zM259 701.996c17.333 2.66699 35.334 4 54.001 4h11
c23.333 -0.666992 45 -6 65 -16c26.667 -13.333 44.667 -26.166 54 -38.499s16.333 -31.833 21 -58.5c2 -11.333 3 -22.333 3 -33c0 -38.667 -13.667 -85.667 -41 -141c-22.667 -48 -57.334 -94.333 -104.001 -139c-20 -18.667 -43.5 -37.5 -70.5 -56.5
s-43.833 -28.5 -50.5 -28.5s-15 4.16699 -25 12.5s-18.333 18.5 -25 30.5c-0.666992 1.33301 -1.66699 3 -3 5l-9 14c0 -0.666992 16.667 -40.667 50 -120c32 -74 49.667 -118 53 -132c0.666992 -2 1 -4.66699 1 -8c0 -16.667 -4 -25 -12 -25c-8.66699 0 -35 33.667 -79 101
s-78.667 127.666 -104 180.999c-32 67.333 -48 129 -48 185c0 60 18 112.667 54 158c40 50.667 108.333 85.667 205 105z" />
    <glyph glyph-name="P" unicode="p" horiz-adv-x="467" 
d="M139 264c0 1.33301 -0.666992 2 -2 2s-2 -0.666992 -2 -2s0.666992 -2 2 -2s2 0.666992 2 2zM130 275c0 -2 0.333008 -3 1 -3l2 3c0.666992 1.33301 0.666992 2.33301 0 3c-2 1.33301 -3 0.333008 -3 -3zM333 568c-10 2.66699 -21.667 3.99609 -35 3.99609
c-33.333 0 -67.833 -9 -103.5 -27s-63.167 -40.667 -82.5 -68c-9.33301 -12 -14 -30.667 -14 -56c0 -13.333 1.66699 -29.333 5 -48c2 -11.333 5 -23.666 9 -36.999s7.66699 -24.5 11 -33.5s5.33301 -13.5 6 -13.5c0.666992 0.666992 1 1.33398 1 2.00098
c0.666992 8.66699 3.66699 15.834 9 21.501s17.333 14.834 36 27.501c43.333 28.667 81.5 63.167 114.5 103.5s52.167 75.5 57.5 105.5c1.33301 7.33301 1.33301 11.833 0 13.5s-6 3.5 -14 5.5zM259 701.996c17.333 2.66699 35.334 4 54.001 4h11
c23.333 -0.666992 45 -6 65 -16c26.667 -13.333 44.667 -26.166 54 -38.499s16.333 -31.833 21 -58.5c2 -11.333 3 -22.333 3 -33c0 -38.667 -13.667 -85.667 -41 -141c-22.667 -48 -57.334 -94.333 -104.001 -139c-20 -18.667 -43.5 -37.5 -70.5 -56.5
s-43.833 -28.5 -50.5 -28.5s-15 4.16699 -25 12.5s-18.333 18.5 -25 30.5c-0.666992 1.33301 -1.66699 3 -3 5l-9 14c0 -0.666992 16.667 -40.667 50 -120c32 -74 49.667 -118 53 -132c0.666992 -2 1 -4.66699 1 -8c0 -16.667 -4 -25 -12 -25c-8.66699 0 -35 33.667 -79 101
s-78.667 127.666 -104 180.999c-32 67.333 -48 129 -48 185c0 60 18 112.667 54 158c40 50.667 108.333 85.667 205 105z" />
    <glyph glyph-name="Q" unicode="Q" horiz-adv-x="650" 
d="M273 451c-2 0 -4.66406 2.33203 -7.99707 6.99902c-1.33301 1.33301 -2.33301 2 -3 2c-4 0 -16.667 -10.667 -38 -32c-72 -73.333 -113.333 -136 -124 -188c-1.33301 -9.33301 -2 -16 -2 -20c0 -25.333 10.333 -49.333 31 -72c22 -24 56 -36 102 -36h15
c18.667 0.666992 32 2 40 4s20.333 7 37 15c27.333 14.667 41.666 24 42.999 28c0 3.33301 -4.33301 11.333 -13 24c-13.333 21.333 -20 36.333 -20 45c0 11.333 11 18 33 20c2 0 4.33301 0.166992 7 0.5s4.66699 0.5 6 0.5c9.33301 0 22 -4.66699 38 -14
c18.667 -8.66699 29 -13 31 -13h1c4 2.66699 12.667 14 26 34s23 36.333 29 49c13.333 28 20 56.667 20 86c0 4.66699 -0.666992 10.334 -2 17.001c-1.33301 7.33301 -3.83301 12.833 -7.5 16.5s-11.834 8.5 -24.501 14.5c-20 10 -43.333 15.333 -70 16
c-2.66699 0 -6.33398 0.166992 -11.001 0.5s-8 0.5 -10 0.5c-14 0 -29.667 -3.33301 -47 -10c-22 -8.66699 -35.667 -13 -41 -13c-4 0 -10.333 2.66699 -19 8c-8.66699 6.66699 -15 10 -19 10zM349.003 582.999c26.667 6.66699 50.998 10 72.998 10h17
c22.667 -0.666992 37.667 -1.83398 45 -3.50098s21.333 -7.5 42 -17.5c60 -29.333 96.667 -66.666 110 -111.999c4.66699 -14 7 -35.667 7 -65c0 -32.667 -3 -60 -9 -82c-15.333 -58 -36.333 -106.667 -63 -146c-8 -11.333 -12 -18.333 -12 -21c0 -2 9.66699 -11 29 -27
c24 -18.667 40.333 -33 49 -43s13 -20.667 13 -32c0 -6.66699 -1.66699 -16 -5 -28c-6.66699 -20 -14.167 -36.5 -22.5 -49.5s-15.833 -19.5 -22.5 -19.5c-5.33301 0 -13 3.66699 -23 11s-17 14.333 -21 21c-5.33301 8.66699 -19.166 24.5 -41.499 47.5
s-34.833 34.5 -37.5 34.5s-12 -5.33301 -28 -16c-64.667 -44 -132.667 -66 -204 -66c-77.333 0 -138 25.333 -182 76c-12.667 15.333 -24.667 34 -36 56c-17.333 34.667 -26 66.667 -26 96c0 32.667 10 69 30 109c19.333 38.667 48.833 77.667 88.5 117
s81.834 71.333 126.501 96c17.333 10 28 17 32 21c9.33301 12.667 33 23.667 71 33z" />
    <glyph glyph-name="Q" unicode="q" horiz-adv-x="650" 
d="M273 451c-2 0 -4.66406 2.33203 -7.99707 6.99902c-1.33301 1.33301 -2.33301 2 -3 2c-4 0 -16.667 -10.667 -38 -32c-72 -73.333 -113.333 -136 -124 -188c-1.33301 -9.33301 -2 -16 -2 -20c0 -25.333 10.333 -49.333 31 -72c22 -24 56 -36 102 -36h15
c18.667 0.666992 32 2 40 4s20.333 7 37 15c27.333 14.667 41.666 24 42.999 28c0 3.33301 -4.33301 11.333 -13 24c-13.333 21.333 -20 36.333 -20 45c0 11.333 11 18 33 20c2 0 4.33301 0.166992 7 0.5s4.66699 0.5 6 0.5c9.33301 0 22 -4.66699 38 -14
c18.667 -8.66699 29 -13 31 -13h1c4 2.66699 12.667 14 26 34s23 36.333 29 49c13.333 28 20 56.667 20 86c0 4.66699 -0.666992 10.334 -2 17.001c-1.33301 7.33301 -3.83301 12.833 -7.5 16.5s-11.834 8.5 -24.501 14.5c-20 10 -43.333 15.333 -70 16
c-2.66699 0 -6.33398 0.166992 -11.001 0.5s-8 0.5 -10 0.5c-14 0 -29.667 -3.33301 -47 -10c-22 -8.66699 -35.667 -13 -41 -13c-4 0 -10.333 2.66699 -19 8c-8.66699 6.66699 -15 10 -19 10zM349.003 582.999c26.667 6.66699 50.998 10 72.998 10h17
c22.667 -0.666992 37.667 -1.83398 45 -3.50098s21.333 -7.5 42 -17.5c60 -29.333 96.667 -66.666 110 -111.999c4.66699 -14 7 -35.667 7 -65c0 -32.667 -3 -60 -9 -82c-15.333 -58 -36.333 -106.667 -63 -146c-8 -11.333 -12 -18.333 -12 -21c0 -2 9.66699 -11 29 -27
c24 -18.667 40.333 -33 49 -43s13 -20.667 13 -32c0 -6.66699 -1.66699 -16 -5 -28c-6.66699 -20 -14.167 -36.5 -22.5 -49.5s-15.833 -19.5 -22.5 -19.5c-5.33301 0 -13 3.66699 -23 11s-17 14.333 -21 21c-5.33301 8.66699 -19.166 24.5 -41.499 47.5
s-34.833 34.5 -37.5 34.5s-12 -5.33301 -28 -16c-64.667 -44 -132.667 -66 -204 -66c-77.333 0 -138 25.333 -182 76c-12.667 15.333 -24.667 34 -36 56c-17.333 34.667 -26 66.667 -26 96c0 32.667 10 69 30 109c19.333 38.667 48.833 77.667 88.5 117
s81.834 71.333 126.501 96c17.333 10 28 17 32 21c9.33301 12.667 33 23.667 71 33z" />
    <glyph glyph-name="R" unicode="R" horiz-adv-x="519" 
d="M304 558c-25.333 12 -52.001 17.999 -80.001 17.999c-45.333 0 -82.333 -15.333 -111 -46c-9.33301 -10 -15.666 -20.833 -18.999 -32.5s-5 -29.167 -5 -52.5v-13c0 -16 2.16699 -41.167 6.5 -75.5s7.83301 -53.5 10.5 -57.5h1c3.33301 0 12.333 5.66699 27 17
c6 4.66699 17.167 12.834 33.5 24.501s25.5 18.167 27.5 19.5c36 26 66 54.5 90 85.5s37.333 58.167 40 81.5l2 21zM175.999 693.999c26.667 6 51.6689 9.00195 75.002 9.00195c16.667 0 30.667 -1.33301 42 -4c15.333 -3.33301 34.166 -10.833 56.499 -22.5
s39.166 -22.834 50.499 -33.501c28.667 -26.667 43 -61.667 43 -105c0 -38.667 -12 -83.667 -36 -135c-25.333 -52 -62 -98 -110 -138l-38 -31l49 -20c93.333 -38 149 -57 167 -57c6.66699 0 13.167 -2.16699 19.5 -6.5s11.166 -6.83301 14.499 -7.5
c4.66699 -1.33301 7.5 -3.33301 8.5 -6s1.5 -8.33398 1.5 -17.001c0 -22.667 -7.33301 -48.667 -22 -78c-9.33301 -18.667 -21.333 -28 -36 -28c-17.333 0 -67 16.167 -149 48.5s-131.667 55.5 -149 69.5c-6.66699 6 -10.667 8.33301 -12 7c0 -2 5 -20 15 -54
c13.333 -43.333 20 -71 20 -83c0 -4 -0.333008 -7 -1 -9c-1.33301 -4 -2.5 -6.16699 -3.5 -6.5s-3.16699 1.16699 -6.5 4.5c-4.66699 4.66699 -19.667 31.5 -45 80.5s-44.666 89.5 -57.999 121.5c-47.333 112 -71 207.667 -71 287c0 29.333 3.33301 54 10 74
c12.667 40.667 31.667 71.667 57 93s61.333 37 108 47z" />
    <glyph glyph-name="R" unicode="r" horiz-adv-x="519" 
d="M304 558c-25.333 12 -52.001 17.999 -80.001 17.999c-45.333 0 -82.333 -15.333 -111 -46c-9.33301 -10 -15.666 -20.833 -18.999 -32.5s-5 -29.167 -5 -52.5v-13c0 -16 2.16699 -41.167 6.5 -75.5s7.83301 -53.5 10.5 -57.5h1c3.33301 0 12.333 5.66699 27 17
c6 4.66699 17.167 12.834 33.5 24.501s25.5 18.167 27.5 19.5c36 26 66 54.5 90 85.5s37.333 58.167 40 81.5l2 21zM175.999 693.999c26.667 6 51.6689 9.00195 75.002 9.00195c16.667 0 30.667 -1.33301 42 -4c15.333 -3.33301 34.166 -10.833 56.499 -22.5
s39.166 -22.834 50.499 -33.501c28.667 -26.667 43 -61.667 43 -105c0 -38.667 -12 -83.667 -36 -135c-25.333 -52 -62 -98 -110 -138l-38 -31l49 -20c93.333 -38 149 -57 167 -57c6.66699 0 13.167 -2.16699 19.5 -6.5s11.166 -6.83301 14.499 -7.5
c4.66699 -1.33301 7.5 -3.33301 8.5 -6s1.5 -8.33398 1.5 -17.001c0 -22.667 -7.33301 -48.667 -22 -78c-9.33301 -18.667 -21.333 -28 -36 -28c-17.333 0 -67 16.167 -149 48.5s-131.667 55.5 -149 69.5c-6.66699 6 -10.667 8.33301 -12 7c0 -2 5 -20 15 -54
c13.333 -43.333 20 -71 20 -83c0 -4 -0.333008 -7 -1 -9c-1.33301 -4 -2.5 -6.16699 -3.5 -6.5s-3.16699 1.16699 -6.5 4.5c-4.66699 4.66699 -19.667 31.5 -45 80.5s-44.666 89.5 -57.999 121.5c-47.333 112 -71 207.667 -71 287c0 29.333 3.33301 54 10 74
c12.667 40.667 31.667 71.667 57 93s61.333 37 108 47z" />
    <glyph glyph-name="S" unicode="S" horiz-adv-x="697" 
d="M344 684c4 0.666992 22.3311 1 54.998 1c20.667 -0.666992 34.334 -1.66699 41.001 -3s15.334 -5 26.001 -11c14.667 -8 24.667 -16.833 30 -26.5s8 -22.834 8 -39.501c0 -32 -10.333 -65.167 -31 -99.5s-45.667 -60.5 -75 -78.5c-30 -18 -51.333 -27 -64 -27
c-4.66699 0 -7 1.66699 -7 5c0 4.66699 4.33301 11.667 13 21c20 22 38.333 47.333 55 76s25 49.334 25 62.001c0 6 -2.33301 9 -7 9c-0.666992 0 -7 -0.666992 -19 -2c-39.333 -4.66699 -82.333 -19.667 -129 -45s-86 -55.333 -118 -90c-15.333 -16 -23 -25.667 -23 -29
c0 -1.33301 1.33301 -4.66602 4 -9.99902c10 -17.333 34.5 -31 73.5 -41s102.167 -19 189.5 -27c102.667 -10 169.667 -18 201 -24c18 -3.33301 37.833 -9.83301 59.5 -19.5s34.834 -17.834 39.501 -24.501c4.66699 -7.33301 7 -16 7 -26
c0 -26.667 -9.33301 -57.667 -28 -93c-13.333 -26 -43 -47.667 -89 -65c-44 -16 -97.333 -29.5 -160 -40.5s-116 -16.5 -160 -16.5c-10.667 0 -22.667 0.666992 -36 2c-19.333 2 -35.333 8 -48 18c-12 10 -22.667 24.333 -32 43s-14 34.667 -14 48c0 6 1 10.333 3 13
c8 12 51.667 18.333 131 19c55.333 1.33301 98 4.33301 128 9c24 4 36 7 36 9s-28.333 6 -85 12c-114.667 10.667 -193.334 28.667 -236.001 54c-23.333 14 -44.5 33.667 -63.5 59s-31.833 51.666 -38.5 78.999c-2.66699 10.667 -4 19.334 -4 26.001
c0 7.33301 1.33301 16.333 4 27c12 50 46.667 97 104 141c69.333 53.333 147.333 88.333 234 105z" />
    <glyph glyph-name="S" unicode="s" horiz-adv-x="697" 
d="M344 684c4 0.666992 22.3311 1 54.998 1c20.667 -0.666992 34.334 -1.66699 41.001 -3s15.334 -5 26.001 -11c14.667 -8 24.667 -16.833 30 -26.5s8 -22.834 8 -39.501c0 -32 -10.333 -65.167 -31 -99.5s-45.667 -60.5 -75 -78.5c-30 -18 -51.333 -27 -64 -27
c-4.66699 0 -7 1.66699 -7 5c0 4.66699 4.33301 11.667 13 21c20 22 38.333 47.333 55 76s25 49.334 25 62.001c0 6 -2.33301 9 -7 9c-0.666992 0 -7 -0.666992 -19 -2c-39.333 -4.66699 -82.333 -19.667 -129 -45s-86 -55.333 -118 -90c-15.333 -16 -23 -25.667 -23 -29
c0 -1.33301 1.33301 -4.66602 4 -9.99902c10 -17.333 34.5 -31 73.5 -41s102.167 -19 189.5 -27c102.667 -10 169.667 -18 201 -24c18 -3.33301 37.833 -9.83301 59.5 -19.5s34.834 -17.834 39.501 -24.501c4.66699 -7.33301 7 -16 7 -26
c0 -26.667 -9.33301 -57.667 -28 -93c-13.333 -26 -43 -47.667 -89 -65c-44 -16 -97.333 -29.5 -160 -40.5s-116 -16.5 -160 -16.5c-10.667 0 -22.667 0.666992 -36 2c-19.333 2 -35.333 8 -48 18c-12 10 -22.667 24.333 -32 43s-14 34.667 -14 48c0 6 1 10.333 3 13
c8 12 51.667 18.333 131 19c55.333 1.33301 98 4.33301 128 9c24 4 36 7 36 9s-28.333 6 -85 12c-114.667 10.667 -193.334 28.667 -236.001 54c-23.333 14 -44.5 33.667 -63.5 59s-31.833 51.666 -38.5 78.999c-2.66699 10.667 -4 19.334 -4 26.001
c0 7.33301 1.33301 16.333 4 27c12 50 46.667 97 104 141c69.333 53.333 147.333 88.333 234 105z" />
    <glyph glyph-name="T" unicode="T" horiz-adv-x="665" 
d="M591 720c11.333 2 19.665 2.99902 24.998 2.99902c8 0 18.333 -2.66699 31 -8l18 -9l-1 -27c-0.666992 -10.667 -1.66699 -19 -3 -25s-3.83301 -12.667 -7.5 -20s-6.5 -13.333 -8.5 -18c-4.66699 -10.667 -9.5 -18.167 -14.5 -22.5s-14.167 -8.83301 -27.5 -13.5
c-2.66699 -0.666992 -9.83398 -3.16699 -21.501 -7.5l-44.5 -16l-50 -17.5c-62.667 -22.667 -94 -36.667 -94 -42c0 -4.66699 3 -29.5 9 -74.5l19.5 -146c7 -52.333 11.5 -87.166 13.5 -104.499c4.66699 -48 7 -82 7 -102c0 -16.667 -1.33301 -29 -4 -37l-5 -12l-10 10
c-6 5.33301 -12.333 16.333 -19 33c-16.667 44 -44.667 147.333 -84 310c-14.667 61.333 -22.667 92.666 -24 93.999c-0.666992 0.666992 -21 -6.33301 -61 -21c-63.333 -22.667 -100.666 -36.334 -111.999 -41.001l-53 -18l-16 12
c-9.33301 6.66699 -19.833 18.834 -31.5 36.501s-18.5 32.167 -20.5 43.5c-0.666992 2.66699 -1 6.33398 -1 11.001c0 8.66699 4.83301 16.5 14.5 23.5s30.834 18.5 63.501 34.5c116 55.333 195 83 237 83c10.667 0 40.667 9 90 27c92.667 34.667 154.334 55 185.001 61z
" />
    <glyph glyph-name="T" unicode="t" horiz-adv-x="665" 
d="M591 720c11.333 2 19.665 2.99902 24.998 2.99902c8 0 18.333 -2.66699 31 -8l18 -9l-1 -27c-0.666992 -10.667 -1.66699 -19 -3 -25s-3.83301 -12.667 -7.5 -20s-6.5 -13.333 -8.5 -18c-4.66699 -10.667 -9.5 -18.167 -14.5 -22.5s-14.167 -8.83301 -27.5 -13.5
c-2.66699 -0.666992 -9.83398 -3.16699 -21.501 -7.5l-44.5 -16l-50 -17.5c-62.667 -22.667 -94 -36.667 -94 -42c0 -4.66699 3 -29.5 9 -74.5l19.5 -146c7 -52.333 11.5 -87.166 13.5 -104.499c4.66699 -48 7 -82 7 -102c0 -16.667 -1.33301 -29 -4 -37l-5 -12l-10 10
c-6 5.33301 -12.333 16.333 -19 33c-16.667 44 -44.667 147.333 -84 310c-14.667 61.333 -22.667 92.666 -24 93.999c-0.666992 0.666992 -21 -6.33301 -61 -21c-63.333 -22.667 -100.666 -36.334 -111.999 -41.001l-53 -18l-16 12
c-9.33301 6.66699 -19.833 18.834 -31.5 36.501s-18.5 32.167 -20.5 43.5c-0.666992 2.66699 -1 6.33398 -1 11.001c0 8.66699 4.83301 16.5 14.5 23.5s30.834 18.5 63.501 34.5c116 55.333 195 83 237 83c10.667 0 40.667 9 90 27c92.667 34.667 154.334 55 185.001 61z
" />
    <glyph glyph-name="U" unicode="U" horiz-adv-x="467" 
d="M268 594c3.33301 3.33301 13.001 7.00098 29.001 11.001s29.333 6 40 6c8 0 13 -1.33301 15 -4c1.33301 -3.33301 4.66602 -5 9.99902 -5c11.333 0 26.333 -20 45 -60c40 -86 60 -167.333 60 -244c0 -52 -10.333 -99.667 -31 -143l-7 -16
c-2 -4.66699 -3.33301 -8.33398 -4 -11.001l-1 -4c0.666992 0 0.5 -0.833008 -0.5 -2.5l-4.5 -7.5c-2 -3.33301 -4.33301 -6.66602 -7 -9.99902c-28 -39.333 -68.333 -59 -121 -59c-12 0 -25.333 1.66699 -40 5c-65.333 17.333 -123.333 63.5 -174 138.5
s-76 152.833 -76 233.5c0 64 10 96 30 96h3c4.66699 -0.666992 7.66699 -2 9 -4s2.33301 -6.66699 3 -14c6 -98.667 36 -181.667 90 -249c26.667 -34 54.334 -58 83.001 -72c22.667 -11.333 43.667 -17 63 -17c1.33301 0 2.66602 0.166992 3.99902 0.5s2.33301 0.5 3 0.5
c11.333 2.66699 23.5 11.667 36.5 27s20.5 29.666 22.5 42.999c2.66699 16 4 34 4 54c0 60.667 -20 132.334 -60 215.001c-18.667 39.333 -28 65.666 -28 78.999c0 6 1.33301 10.333 4 13z" />
    <glyph glyph-name="U" unicode="u" horiz-adv-x="467" 
d="M268 594c3.33301 3.33301 13.001 7.00098 29.001 11.001s29.333 6 40 6c8 0 13 -1.33301 15 -4c1.33301 -3.33301 4.66602 -5 9.99902 -5c11.333 0 26.333 -20 45 -60c40 -86 60 -167.333 60 -244c0 -52 -10.333 -99.667 -31 -143l-7 -16
c-2 -4.66699 -3.33301 -8.33398 -4 -11.001l-1 -4c0.666992 0 0.5 -0.833008 -0.5 -2.5l-4.5 -7.5c-2 -3.33301 -4.33301 -6.66602 -7 -9.99902c-28 -39.333 -68.333 -59 -121 -59c-12 0 -25.333 1.66699 -40 5c-65.333 17.333 -123.333 63.5 -174 138.5
s-76 152.833 -76 233.5c0 64 10 96 30 96h3c4.66699 -0.666992 7.66699 -2 9 -4s2.33301 -6.66699 3 -14c6 -98.667 36 -181.667 90 -249c26.667 -34 54.334 -58 83.001 -72c22.667 -11.333 43.667 -17 63 -17c1.33301 0 2.66602 0.166992 3.99902 0.5s2.33301 0.5 3 0.5
c11.333 2.66699 23.5 11.667 36.5 27s20.5 29.666 22.5 42.999c2.66699 16 4 34 4 54c0 60.667 -20 132.334 -60 215.001c-18.667 39.333 -28 65.666 -28 78.999c0 6 1.33301 10.333 4 13z" />
    <glyph glyph-name="V" unicode="V" horiz-adv-x="409" 
d="M336 634c16.667 4 28.334 5.99902 35.001 5.99902c5.33301 0 9 -2 11 -6c1.33301 -4 5.66602 -6 12.999 -6c9.33301 0 14 -7.33301 14 -22c0 -8 -1 -20.667 -3 -38c-4 -34.667 -10.333 -139.334 -19 -314.001c-4.66699 -85.333 -11.334 -140.333 -20.001 -165
c-13.333 -38 -26 -59.667 -38 -65c-4 -2 -7.33301 -3 -10 -3c-4 0 -10.333 3 -19 9c-12 8 -24.667 20.667 -38 38s-34.666 49.333 -63.999 96c-104 163.333 -167.667 274 -191 332c-4 10.667 -6 17.667 -6 21c0 2.66699 1.33301 5.33398 4 8.00098c4 4 11 6 21 6
c8 0 14.333 -1.33301 19 -4c8 -6 45.667 -54.333 113 -145l76.5 -101.5c20.333 -26.333 30.833 -39.166 31.5 -38.499s3 44.667 7 132c5.33301 112 9.83301 182.167 13.5 210.5s10.167 42.833 19.5 43.5c1.33301 0 11.333 2 30 6z" />
    <glyph glyph-name="V" unicode="v" horiz-adv-x="409" 
d="M336 634c16.667 4 28.334 5.99902 35.001 5.99902c5.33301 0 9 -2 11 -6c1.33301 -4 5.66602 -6 12.999 -6c9.33301 0 14 -7.33301 14 -22c0 -8 -1 -20.667 -3 -38c-4 -34.667 -10.333 -139.334 -19 -314.001c-4.66699 -85.333 -11.334 -140.333 -20.001 -165
c-13.333 -38 -26 -59.667 -38 -65c-4 -2 -7.33301 -3 -10 -3c-4 0 -10.333 3 -19 9c-12 8 -24.667 20.667 -38 38s-34.666 49.333 -63.999 96c-104 163.333 -167.667 274 -191 332c-4 10.667 -6 17.667 -6 21c0 2.66699 1.33301 5.33398 4 8.00098c4 4 11 6 21 6
c8 0 14.333 -1.33301 19 -4c8 -6 45.667 -54.333 113 -145l76.5 -101.5c20.333 -26.333 30.833 -39.166 31.5 -38.499s3 44.667 7 132c5.33301 112 9.83301 182.167 13.5 210.5s10.167 42.833 19.5 43.5c1.33301 0 11.333 2 30 6z" />
    <glyph glyph-name="W" unicode="W" horiz-adv-x="545" 
d="M400 630c2 2 12.1719 5.50293 30.5049 10.5029s32.5 7.5 42.5 7.5c6.66699 0 10 -1.33301 10 -4s2.66699 -4 8 -4c8.66699 0 14.5 -3.5 17.5 -10.5s4.5 -21.167 4.5 -42.5c0 -52.667 7.66699 -147 23 -283c5.33301 -53.333 8 -88.666 8 -105.999
c0 -24 -4.66699 -46.667 -14 -68c-14 -33.333 -27 -50 -39 -50c-7.33301 0 -16.666 4.66699 -27.999 14c-13.333 10 -25.333 22 -36 36s-35.334 49.667 -74.001 107c-41.333 61.333 -62.333 89.666 -63 84.999c0 -6.66699 3 -34 9 -82c4 -36 6 -64 6 -84
c0 -25.333 -4.33301 -48.666 -13 -69.999c-11.333 -28 -22 -42 -32 -42c-6.66699 0 -14.334 3 -23.001 9c-14.667 8.66699 -47.667 67.667 -99 177c-55.333 116.667 -99.333 216 -132 298c-3.33301 8.66699 -5 14.667 -5 18c0 6.66699 5.66699 10 17 10
c10.667 0 22.167 -7.83301 34.5 -23.5s36.166 -53.167 71.499 -112.5c24 -38.667 37 -58 39 -58c0 2 0.166992 3.16699 0.5 3.5s0.166016 3.5 -0.500977 9.5s-1.16699 10.667 -1.5 14s-0.833008 8.83301 -1.5 16.5s-1.33398 13.5 -2.00098 17.5c-4 36 -6 65.667 -6 89
c0 25.333 2 41 6 47c5.33301 7.33301 25.333 14.666 60 21.999c9.33301 1.33301 14.666 2 15.999 2c6.66699 0 15 -2.66699 25 -8c13.333 -6.66699 24 -14.834 32 -24.501s27 -36.834 57 -81.501c8 -10.667 16.5 -22.834 25.5 -36.501l20 -30
c4.33301 -6.33301 6.83301 -9.5 7.5 -9.5s0.5 8 -0.5 24l-3.5 55c-3.33301 35.333 -5 69.333 -5 102c0 32 2.66699 50.667 8 56z" />
    <glyph glyph-name="W" unicode="w" horiz-adv-x="545" 
d="M400 630c2 2 12.1719 5.50293 30.5049 10.5029s32.5 7.5 42.5 7.5c6.66699 0 10 -1.33301 10 -4s2.66699 -4 8 -4c8.66699 0 14.5 -3.5 17.5 -10.5s4.5 -21.167 4.5 -42.5c0 -52.667 7.66699 -147 23 -283c5.33301 -53.333 8 -88.666 8 -105.999
c0 -24 -4.66699 -46.667 -14 -68c-14 -33.333 -27 -50 -39 -50c-7.33301 0 -16.666 4.66699 -27.999 14c-13.333 10 -25.333 22 -36 36s-35.334 49.667 -74.001 107c-41.333 61.333 -62.333 89.666 -63 84.999c0 -6.66699 3 -34 9 -82c4 -36 6 -64 6 -84
c0 -25.333 -4.33301 -48.666 -13 -69.999c-11.333 -28 -22 -42 -32 -42c-6.66699 0 -14.334 3 -23.001 9c-14.667 8.66699 -47.667 67.667 -99 177c-55.333 116.667 -99.333 216 -132 298c-3.33301 8.66699 -5 14.667 -5 18c0 6.66699 5.66699 10 17 10
c10.667 0 22.167 -7.83301 34.5 -23.5s36.166 -53.167 71.499 -112.5c24 -38.667 37 -58 39 -58c0 2 0.166992 3.16699 0.5 3.5s0.166016 3.5 -0.500977 9.5s-1.16699 10.667 -1.5 14s-0.833008 8.83301 -1.5 16.5s-1.33398 13.5 -2.00098 17.5c-4 36 -6 65.667 -6 89
c0 25.333 2 41 6 47c5.33301 7.33301 25.333 14.666 60 21.999c9.33301 1.33301 14.666 2 15.999 2c6.66699 0 15 -2.66699 25 -8c13.333 -6.66699 24 -14.834 32 -24.501s27 -36.834 57 -81.501c8 -10.667 16.5 -22.834 25.5 -36.501l20 -30
c4.33301 -6.33301 6.83301 -9.5 7.5 -9.5s0.5 8 -0.5 24l-3.5 55c-3.33301 35.333 -5 69.333 -5 102c0 32 2.66699 50.667 8 56z" />
    <glyph glyph-name="X" unicode="X" horiz-adv-x="568" 
d="M489 587c20 4 33.3311 5.99902 39.998 5.99902s12.667 -1.33301 18 -4c2 -1.33301 4.66699 -2.83301 8 -4.5l7 -3.5c4 -2 6 -10.333 6 -25c0 -14 -2 -25 -6 -33c-3.33301 -6.66699 -5 -11.334 -5 -14.001c0 -3.33301 -3.66699 -11.666 -11 -24.999
c-8.66699 -15.333 -41.667 -47 -99 -95l-86 -73l44 -66c54 -79.333 81 -132.333 81 -159c0 -5.33301 -1 -10 -3 -14c-2.66699 -8.66699 -8 -13 -16 -13c-4 0 -6 1.66699 -6 5c0 6 -14 24.167 -42 54.5s-61.333 63.5 -100 99.5c-15.333 13.333 -26.666 20 -33.999 20
s-16.333 -6.33301 -27 -19c-97.333 -110.667 -149 -170 -155 -178c-14 -19.333 -24.333 -29.666 -31 -30.999h-2c-7.33301 0 -15.833 4.5 -25.5 13.5s-18.167 20.5 -25.5 34.5c-12 22 -18 37.667 -18 47c0 6.66699 2 13.667 6 21c4.66699 8.66699 25 32.834 61 72.501
s67 71.834 93 96.501l34 31l-65 64c-81.333 79.333 -122 131 -122 155c0 6.66699 1.33301 10 4 10c2 0 7.66699 -4 17 -12c28 -25.333 81.667 -63.333 161 -114l53 -34l100 83l50 42l41 34.5c10 8.33301 15.667 13.166 17 14.499
c6.66699 5.33301 19.334 9.66602 38.001 12.999z" />
    <glyph glyph-name="X" unicode="x" horiz-adv-x="568" 
d="M489 587c20 4 33.3311 5.99902 39.998 5.99902s12.667 -1.33301 18 -4c2 -1.33301 4.66699 -2.83301 8 -4.5l7 -3.5c4 -2 6 -10.333 6 -25c0 -14 -2 -25 -6 -33c-3.33301 -6.66699 -5 -11.334 -5 -14.001c0 -3.33301 -3.66699 -11.666 -11 -24.999
c-8.66699 -15.333 -41.667 -47 -99 -95l-86 -73l44 -66c54 -79.333 81 -132.333 81 -159c0 -5.33301 -1 -10 -3 -14c-2.66699 -8.66699 -8 -13 -16 -13c-4 0 -6 1.66699 -6 5c0 6 -14 24.167 -42 54.5s-61.333 63.5 -100 99.5c-15.333 13.333 -26.666 20 -33.999 20
s-16.333 -6.33301 -27 -19c-97.333 -110.667 -149 -170 -155 -178c-14 -19.333 -24.333 -29.666 -31 -30.999h-2c-7.33301 0 -15.833 4.5 -25.5 13.5s-18.167 20.5 -25.5 34.5c-12 22 -18 37.667 -18 47c0 6.66699 2 13.667 6 21c4.66699 8.66699 25 32.834 61 72.501
s67 71.834 93 96.501l34 31l-65 64c-81.333 79.333 -122 131 -122 155c0 6.66699 1.33301 10 4 10c2 0 7.66699 -4 17 -12c28 -25.333 81.667 -63.333 161 -114l53 -34l100 83l50 42l41 34.5c10 8.33301 15.667 13.166 17 14.499
c6.66699 5.33301 19.334 9.66602 38.001 12.999z" />
    <glyph glyph-name="Y" unicode="Y" horiz-adv-x="643" 
d="M562 689c18 3.33301 30.001 4.99805 36.001 4.99805h1c6.66699 0 15 -3 25 -9s15.667 -11.333 17 -16c0.666992 -2 1 -6 1 -12c0 -18 -3 -32.333 -9 -43c-2 -4 -3.33301 -7 -4 -9s-0.666992 -3 0 -3c1.33301 0 -0.166992 -4.33301 -4.5 -13s-10.333 -19.667 -18 -33
s-15.834 -26.666 -24.501 -39.999c-91.333 -141.333 -157.333 -252.333 -198 -333c-11.333 -22 -19 -43.667 -23 -65c-14 -56.667 -28.667 -92.667 -44 -108c-6 -6 -13.667 -9 -23 -9c-4.66699 0 -7 1.33301 -7 4c0 1.33301 -4 4.66602 -12 9.99902
c-8 4.66699 -17.5 18 -28.5 40s-16.5 38 -16.5 48c0 6.66699 0.5 13.667 1.5 21s2 13.833 3 19.5s3.16699 12.834 6.5 21.501s5.66602 15.167 6.99902 19.5s4.33301 11.5 9 21.5l9 19.5c1.33301 3 4.83301 10 10.5 21s8.83398 17.5 9.50098 19.5
c18.667 38.667 28 60.334 28 65.001l-68 45l-139.5 95c-48.333 32.667 -75.833 52 -82.5 58c-15.333 14 -23 25.333 -23 34c0 4 2.66699 6 8 6c4 0 36.667 -14.667 98 -44c118 -57.333 187 -86.666 207 -87.999h2c6 0 14 5.5 24 16.5s37 44.833 81 101.5
c33.333 42 59.333 72.667 78 92c17.333 18 28.5 28.667 33.5 32s14.833 6.66602 29.5 9.99902z" />
    <glyph glyph-name="Y" unicode="y" horiz-adv-x="643" 
d="M562 689c18 3.33301 30.001 4.99805 36.001 4.99805h1c6.66699 0 15 -3 25 -9s15.667 -11.333 17 -16c0.666992 -2 1 -6 1 -12c0 -18 -3 -32.333 -9 -43c-2 -4 -3.33301 -7 -4 -9s-0.666992 -3 0 -3c1.33301 0 -0.166992 -4.33301 -4.5 -13s-10.333 -19.667 -18 -33
s-15.834 -26.666 -24.501 -39.999c-91.333 -141.333 -157.333 -252.333 -198 -333c-11.333 -22 -19 -43.667 -23 -65c-14 -56.667 -28.667 -92.667 -44 -108c-6 -6 -13.667 -9 -23 -9c-4.66699 0 -7 1.33301 -7 4c0 1.33301 -4 4.66602 -12 9.99902
c-8 4.66699 -17.5 18 -28.5 40s-16.5 38 -16.5 48c0 6.66699 0.5 13.667 1.5 21s2 13.833 3 19.5s3.16699 12.834 6.5 21.501s5.66602 15.167 6.99902 19.5s4.33301 11.5 9 21.5l9 19.5c1.33301 3 4.83301 10 10.5 21s8.83398 17.5 9.50098 19.5
c18.667 38.667 28 60.334 28 65.001l-68 45l-139.5 95c-48.333 32.667 -75.833 52 -82.5 58c-15.333 14 -23 25.333 -23 34c0 4 2.66699 6 8 6c4 0 36.667 -14.667 98 -44c118 -57.333 187 -86.666 207 -87.999h2c6 0 14 5.5 24 16.5s37 44.833 81 101.5
c33.333 42 59.333 72.667 78 92c17.333 18 28.5 28.667 33.5 32s14.833 6.66602 29.5 9.99902z" />
    <glyph glyph-name="Z" unicode="Z" horiz-adv-x="589" 
d="M419 554c18 4 31.668 5.99805 41.001 5.99805c12.667 0 23.667 -3.33301 33 -10c7.33301 -4 11.833 -7.66699 13.5 -11s2.5 -8.66602 2.5 -15.999c0 -9.33301 -3.16699 -23.5 -9.5 -42.5s-13.166 -34.833 -20.499 -47.5c-10.667 -18 -54.334 -68.667 -131.001 -152
l-28 -30l-25 -27c-6 -6.66699 -10 -11 -12 -13l-11 -12l36 13l74 27.5c44 16.333 72 27.5 84 33.5c14 7.33301 30.667 13 50 17c13.333 2.66699 23 4 29 4c4.66699 0 9.66699 -1.33301 15 -4c6.66699 -4.66699 12.667 -7 18 -7c6.66699 0 10 -9 10 -27
c0 -16.667 -2.66699 -29.334 -8 -38.001c-3.33301 -5.33301 -5 -8.66602 -5 -9.99902c0 -2.66699 -4 -12 -12 -28c-8 -14.667 -17.5 -25 -28.5 -31s-47.5 -20.667 -109.5 -44l-211 -79c-71.333 -28 -115.333 -44 -132 -48c-1.33301 0 -2.83301 -0.166992 -4.5 -0.5
s-2.83398 -0.5 -3.50098 -0.5c-5.33301 0 -13.333 4.33301 -24 13c-10 8.66699 -20.667 23.167 -32 43.5s-17 35.5 -17 45.5s5 21.667 15 35s32.667 38.333 68 75c42.667 44 69.667 73 81 87c3.33301 3.33301 28 29.333 74 78s68.667 73.334 68 74.001h-1
c-3.33301 0 -40 -5 -110 -15c-70 -10.667 -112 -16 -126 -16c-12 0 -20 3 -24 9s-6 11 -6 15c0 6 5 11.667 15 17c15.333 8 72.5 27.667 171.5 59s163.167 50.333 192.5 57z" />
    <glyph glyph-name="Z" unicode="z" horiz-adv-x="589" 
d="M419 554c18 4 31.668 5.99805 41.001 5.99805c12.667 0 23.667 -3.33301 33 -10c7.33301 -4 11.833 -7.66699 13.5 -11s2.5 -8.66602 2.5 -15.999c0 -9.33301 -3.16699 -23.5 -9.5 -42.5s-13.166 -34.833 -20.499 -47.5c-10.667 -18 -54.334 -68.667 -131.001 -152
l-28 -30l-25 -27c-6 -6.66699 -10 -11 -12 -13l-11 -12l36 13l74 27.5c44 16.333 72 27.5 84 33.5c14 7.33301 30.667 13 50 17c13.333 2.66699 23 4 29 4c4.66699 0 9.66699 -1.33301 15 -4c6.66699 -4.66699 12.667 -7 18 -7c6.66699 0 10 -9 10 -27
c0 -16.667 -2.66699 -29.334 -8 -38.001c-3.33301 -5.33301 -5 -8.66602 -5 -9.99902c0 -2.66699 -4 -12 -12 -28c-8 -14.667 -17.5 -25 -28.5 -31s-47.5 -20.667 -109.5 -44l-211 -79c-71.333 -28 -115.333 -44 -132 -48c-1.33301 0 -2.83301 -0.166992 -4.5 -0.5
s-2.83398 -0.5 -3.50098 -0.5c-5.33301 0 -13.333 4.33301 -24 13c-10 8.66699 -20.667 23.167 -32 43.5s-17 35.5 -17 45.5s5 21.667 15 35s32.667 38.333 68 75c42.667 44 69.667 73 81 87c3.33301 3.33301 28 29.333 74 78s68.667 73.334 68 74.001h-1
c-3.33301 0 -40 -5 -110 -15c-70 -10.667 -112 -16 -126 -16c-12 0 -20 3 -24 9s-6 11 -6 15c0 6 5 11.667 15 17c15.333 8 72.5 27.667 171.5 59s163.167 50.333 192.5 57z" />
    <glyph glyph-name="bracketleft" unicode="[" horiz-adv-x="474" 
d="M302 580c2.66699 1.33301 7.99902 2 15.999 2c16.667 0 26.334 -1.33301 29.001 -4c0.666992 -0.666992 1 -2 1 -4c0 -10.667 -11.333 -22.334 -34 -35.001c-23.333 -13.333 -60.333 -31.333 -111 -54c-54 -24 -83 -38 -87 -42c-0.666992 -2 0.666016 -12 3.99902 -30
c1.33301 -7.33301 9.83301 -58.166 25.5 -152.499s24.5 -145.166 26.5 -152.499l37 10c18 4 57.667 15 119 33c54.667 15.333 89.334 23 104.001 23c10 0 18.667 -2.33301 26 -7c10.667 -6 16 -15.333 16 -28c0 -14 -5.16699 -33 -15.5 -57s-19.5 -38.667 -27.5 -44
c-4 -2.66699 -27.667 -10.167 -71 -22.5l-137 -38.5c-48 -13.333 -72.333 -20 -73 -20l-23 -7l-19 15c-11.333 9.33301 -22.333 24.666 -33 45.999c-8 14.667 -13.667 31.167 -17 49.5s-12 75.833 -26 172.5c-20.667 145.333 -31 225.333 -31 240c0 6 1 12 3 18
c2 7.33301 5 12.833 9 16.5s14 8.16699 30 13.5s35.167 10.5 57.5 15.5l105.5 22.5c63.333 13.333 95.333 20.333 96 21z" />
    <glyph glyph-name="backslash" unicode="\" horiz-adv-x="361" 
d="M2 557c2 5.33301 7.66797 7.99707 17.001 7.99707s20.666 -7.33301 33.999 -22c30 -32.667 70.5 -86.167 121.5 -160.5s93.167 -140.5 126.5 -198.5c24.667 -42.667 41 -69.667 49 -81c7.33301 -8 11 -15.667 11 -23c0 -5.33301 -0.333008 -9.66602 -1 -12.999
c-0.666992 -12.667 -3 -22.667 -7 -30c-15.333 -36.667 -27.333 -57 -36 -61c-7.33301 -3.33301 -16.333 -0.666016 -27 8.00098c-16 12.667 -38.667 54.334 -68 125.001c-21.333 52 -76 159.667 -164 323c-38 70.667 -57 110.667 -57 120c0 0.666992 0.166992 1.5 0.5 2.5
s0.5 1.83301 0.5 2.5z" />
    <glyph glyph-name="bracketright" unicode="]" horiz-adv-x="481" 
d="M220 611c21.333 5.33301 37.6631 7.99707 48.9961 7.99707c12.667 0 26.334 -3.33301 41.001 -10c11.333 -6 19.833 -14 25.5 -24s12.834 -29.333 21.501 -58c16 -52 43.667 -117.667 83 -197l41 -82l-1 -34c0 -22.667 -4.66699 -44.334 -14 -65.001
c-12 -27.333 -26.333 -46.833 -43 -58.5s-55 -28.5 -115 -50.5c-82 -31.333 -131.333 -47 -148 -47c-20.667 0 -41 18.667 -61 56c-10 20 -15 35.333 -15 46c0 6 1.33301 11.333 4 16c6 12.667 30 22.334 72 29.001c20 2.66699 58.167 14.5 114.5 35.5
s84.5 34.833 84.5 41.5c0 4.66699 -9 26.334 -27 65.001c-42.667 89.333 -69.667 161.333 -81 216c-3.33301 13.333 -6.66602 20 -9.99902 20c-20 0 -68.667 -9.66699 -146 -29c-43.333 -10.667 -69.666 -16 -78.999 -16c-7.33301 0 -12 2.66699 -14 8
c0 0.666992 -0.166992 1.33398 -0.5 2.00098s-0.5 1.33398 -0.5 2.00098c0 10 21.333 28 64 54c61.333 36.667 113 60.667 155 72z" />
    <glyph glyph-name="asciicircum" unicode="^" horiz-adv-x="363" 
d="M97 625c22 4.66699 33.666 6.99902 34.999 6.99902c4 0 7.66699 -2 11 -6c4.66699 -4.66699 8.66699 -7 12 -7c5.33301 0 18.333 -12.667 39 -38c30 -37.333 60.5 -71.833 91.5 -103.5s52.833 -50.5 65.5 -56.5c6 -2.66699 9.5 -5.33398 10.5 -8.00098
s1.5 -9.66699 1.5 -21c0 -17.333 -1.66699 -28.666 -5 -33.999c-0.666992 -1.33301 -1.83398 -3.83301 -3.50098 -7.5l-6 -13.5c-2.33301 -5.33301 -4.16602 -9.66602 -5.49902 -12.999c-10 -21.333 -20.333 -32 -31 -32c-3.33301 0 -5.66602 0.333008 -6.99902 1
c-12.667 3.33301 -37.334 22.833 -74.001 58.5s-69.334 71.834 -98.001 108.501l-17 23l-36 -67c-33.333 -62.667 -55.666 -94 -66.999 -94h-2c-7.33301 2 -11 10 -11 24c0 6.66699 1.66699 16 5 28c30.667 112.667 47.334 180 50.001 202c2 21.333 5 33.666 9 36.999
c4.66699 4.66699 15.667 8.66699 33 12z" />
    <glyph glyph-name="underscore" unicode="_" horiz-adv-x="552" 
d="M445 150c38.667 4 61.667 5.99609 69 5.99609c6.66699 0 11.667 -1.66699 15 -5s8 -5.66602 14 -6.99902c4 -0.666992 6.5 -2.5 7.5 -5.5s1.5 -10.167 1.5 -21.5c0 -7.33301 -0.5 -14 -1.5 -20s-2 -10.5 -3 -13.5s-2.66699 -7.5 -5 -13.5l-5.5 -14
c-6.66699 -17.333 -13 -27.833 -19 -31.5s-23.333 -6.16699 -52 -7.5c-28.667 -2 -62 -4.83301 -100 -8.5s-70 -6.5 -96 -8.5c-35.333 -2.66699 -85.666 -8.66699 -150.999 -18c-35.333 -5.33301 -58.333 -8 -69 -8c-11.333 0 -19.5 2 -24.5 6s-10.5 12.333 -16.5 25
c-5.33301 10.667 -8 18.334 -8 23.001c0 2 0.666992 5 2 9c6.66699 14.667 39.167 30.834 97.5 48.501s124.833 31.834 199.5 42.501c77.333 12.667 125.666 20 144.999 22z" />
    <glyph glyph-name="grave" unicode="`" horiz-adv-x="99" 
d="M24 598c10.667 2.66699 18.667 4.00195 24 4.00195c20.667 0 32 -6 34 -18c0.666992 -2 5.66699 -46 15 -132c1.33301 -10.667 2 -18.334 2 -23.001c0 -20 -4 -34.667 -12 -44c-2.66699 -2.66699 -5 -4 -7 -4c-8.66699 0 -21 16.333 -37 49
c-28 57.333 -42 99.666 -42 126.999c0 23.333 7.66699 37 23 41z" />
    <glyph glyph-name="braceleft" unicode="{" horiz-adv-x="546" 
d="M219 581c22.667 5.33301 51.001 8.00781 85.001 8.00781c24 0 41.667 -1.66699 53 -5c6.66699 -2.66699 10.834 -5 12.501 -7s2.5 -6 2.5 -12c0 -6.66699 -0.666992 -10.834 -2 -12.501s-5.66602 -2.83398 -12.999 -3.50098
c-31.333 -2.66699 -63.5 -8.83398 -96.5 -18.501s-56.167 -19.834 -69.5 -30.501c-5.33301 -4.66699 -8.33301 -8 -9 -10s0.333008 -5.33301 3 -10c7.33301 -12 21.333 -28.333 42 -49c25.333 -26 38 -42.667 38 -50v-13c0 -18 -4.33301 -38 -13 -60l-12 -28l28 -12
c24.667 -10.667 43.5 -24 56.5 -40s29.5 -46.333 49.5 -91c9.33301 -20.667 15.333 -32 18 -34c0.666992 -0.666992 1.66699 -1 3 -1c4 0 13.667 4.66699 29 14c30.667 18.667 57.334 28 80.001 28c10.667 0 20 -2 28 -6c6.66699 -2.66699 10.667 -5.5 12 -8.5
s2 -9.5 2 -19.5c0 -14.667 -6.33301 -34.667 -19 -60c-10.667 -21.333 -21.334 -37.833 -32.001 -49.5s-25.334 -21.834 -44.001 -30.501c-20.667 -9.33301 -38.667 -14 -54 -14c-42.667 0 -80.334 33.667 -113.001 101c-12 24 -22 47 -30 69
c-4.66699 13.333 -12.667 22.666 -24 27.999c-10 5.33301 -29 8 -57 8c-24.667 0 -48.334 -1.66699 -71.001 -5c-18 -2 -29.667 -3 -35 -3c-7.33301 0 -15 2.66699 -23 8c-10 7.33301 -20 20.666 -30 39.999c-8.66699 17.333 -13 28.666 -13 33.999
c0 6.66699 4.16699 13 12.5 19s26.5 16 54.5 30c64 32 100.333 55.333 109 70c0.666992 0.666992 1 2 1 4c0 6 -5.33301 15.333 -16 28c-14 16.667 -25.833 35 -35.5 55s-14.5 36 -14.5 48c0 42.667 35.667 73 107 91z" />
    <glyph glyph-name="bar" unicode="|" horiz-adv-x="140" 
d="M10 563c4 4 10 5.99902 18 5.99902s13.667 -2 17 -6c6 -7.33301 26.667 -110 62 -308c16 -87.333 25.667 -136.333 29 -147c2.66699 -7.33301 4 -15 4 -23c0 -14.667 -7 -36 -21 -64c-8.66699 -17.333 -16 -26.333 -22 -27h-2c-16.667 0 -33.667 16 -51 48
c-11.333 20.667 -17.333 40 -18 58c0 4 -1.33301 22.333 -4 55s-4.66699 60 -6 82c-10 136.667 -15 225.334 -15 266.001c0 34 3 54 9 60z" />
    <glyph glyph-name="braceright" unicode="}" horiz-adv-x="551" 
d="M108 556c21.333 5.33301 45.334 7.99414 72.001 7.99414c18 0 31 -1.33301 39 -4c21.333 -7.33301 37.666 -19 48.999 -35c7.33301 -11.333 11 -31.333 11 -60c0 -19.333 -0.666992 -34.666 -2 -45.999c-2 -20 -3 -33.667 -3 -41c0 -9.33301 2 -17.333 6 -24
c12 -20.667 32.333 -31 61 -31c18.667 0 52.667 5.33301 102 16c42.667 10 68.667 15 78 15c6.66699 0 12.667 -1.33301 18 -4c8 -4 12 -12 12 -24c0 -11.333 -1.33301 -19.666 -4 -24.999c-10 -21.333 -16.5 -33.666 -19.5 -36.999s-10.5 -7 -22.5 -11
c-14.667 -4.66699 -31.667 -11.667 -51 -21s-29 -15 -29 -17c0 -3.33301 6.33301 -12.333 19 -27c13.333 -16.667 20 -32.667 20 -48c0 -1.33301 -0.166992 -4.16602 -0.5 -8.49902s-0.5 -7.83301 -0.5 -10.5c-0.666992 -13.333 -6 -29.666 -16 -48.999s-20.667 -34 -32 -44
c-18 -16 -44.5 -31.667 -79.5 -47s-66.5 -25 -94.5 -29c-7.33301 -1.33301 -14.666 -2 -21.999 -2c-6 0 -13 3 -21 9c-6 4 -13.5 13.333 -22.5 28s-13.5 27 -13.5 37s5 16 15 18c8.66699 1.33301 13 3.33301 13 6c0 1.33301 7.66699 3.33301 23 6
c21.333 2.66699 49.166 11.334 83.499 26.001s56.833 27.667 67.5 39l11 12l-17 29c-13.333 24 -21.666 40.333 -24.999 49c-5.33301 13.333 -10 20 -14 20c-8 0 -19.833 3.66699 -35.5 11s-27.5 15 -35.5 23c-12 12 -22.5 27.667 -31.5 47s-13.5 37.333 -13.5 54
c0 10.667 2.66699 30.834 8 60.501s8 48.5 8 56.5c0 10 -0.833008 16.333 -2.5 19s-6.83398 6 -15.501 10c-12.667 5.33301 -31.667 8 -57 8c-48 0 -79 -6 -93 -18c-2.66699 -2.66699 -9 -6.83398 -19 -12.501s-17.667 -8.5 -23 -8.5c-2 0 -3.66699 0.666992 -5 2
c-2 3.33301 -3 6.33301 -3 9c0 5.33301 5 12 15 20c16 14 28.833 23.5 38.5 28.5s27.5 10.833 53.5 17.5z" />
    <glyph glyph-name="asciitilde" unicode="~" horiz-adv-x="547" 
d="M478 409c10 2.66699 19.665 4.00098 28.998 4.00098s18 -2 26 -6c6 -3.33301 9.83301 -6.33301 11.5 -9s2.5 -8.33398 2.5 -17.001c0 -28 -11.333 -57.667 -34 -89c-10 -12.667 -26.667 -29.167 -50 -49.5s-43.333 -35.5 -60 -45.5c-32.667 -20 -65.334 -30 -98.001 -30
h-10c-15.333 1.33301 -29 5.16602 -41 11.499s-28.333 17.833 -49 34.5c-21.333 18.667 -37.666 28 -48.999 28c-6 0 -15 -2.66699 -27 -8c-23.333 -12 -55.333 -41.333 -96 -88c-10 -12.667 -17 -19 -21 -19c-2 0 -3.66699 0.666992 -5 2c-4 2.66699 -6 7.66699 -6 15
c0 17.333 14.333 47.333 43 90c28.667 42 54.334 69 77.001 81c10.667 6 27.667 9.33301 51 10c2.66699 0 6.33398 0.166992 11.001 0.5s7.66699 0.5 9 0.5c10 0 26.667 -6 50 -18c24 -13.333 39.667 -20 47 -20c19.333 0 57.333 25 114 75
c30.667 26.667 55.667 42.334 75 47.001z" />
    <glyph glyph-name="nbsp" unicode="&#xa0;" 
 />
    <glyph glyph-name="afii57929" unicode="&#x2bc;" horiz-adv-x="108" 
d="M56 658c1.33301 0 3.33398 0.500977 6.00098 1.50098s4.33398 1.5 5.00098 1.5c4 0 10.667 -2.66699 20 -8l16 -9l3 -153c1.33301 -66.667 2 -102.667 2 -108c0 -30.667 -2 -52 -6 -64c-4.66699 -12.667 -8.33398 -19 -11.001 -19c-16.667 0 -33.334 31.333 -50.001 94
c-8 30.667 -16.667 73.5 -26 128.5s-14 89.833 -14 104.5c0 8.66699 3.16699 14.667 9.5 18s21.5 7.66602 45.5 12.999z" />
    <glyph glyph-name="afii10023" unicode="&#x401;" horiz-adv-x="576" 
d="M459 831c12 4 22.335 5.99805 31.002 5.99805c9.33301 0 18 -2 26 -6c6 -3.33301 9.66699 -6 11 -8s2 -6.33301 2 -13v-14c-0.666992 -9.33301 -4.83398 -23 -12.501 -41s-13.5 -27.333 -17.5 -28c-30 -7.33301 -70.333 -23.333 -121 -48
c-50.667 -24 -78.334 -36 -83.001 -36c-2 0 -4.33301 1.33301 -7 4c-4.66699 4.66699 -7 9.33398 -7 14.001c0 9.33301 13.333 27.333 40 54c68 70.667 114 109.334 138 116.001zM239.002 792.998c12.667 4 24.332 6 34.999 6s20 -2 28 -6
c6 -2.66699 9.66699 -5.16699 11 -7.5s2 -7.5 2 -15.5c0 -6 -0.666992 -11.833 -2 -17.5s-2.83301 -10.5 -4.5 -14.5l-6.5 -15c-2.66699 -6 -4.66699 -10.667 -6 -14c-4.66699 -12.667 -13 -21.667 -25 -27c-16 -8 -48.333 -29.667 -97 -65
c-58.667 -41.333 -91 -62.666 -97 -63.999c-3.33301 0 -6.66602 2.33301 -9.99902 7c-8 9.33301 -12 18.666 -12 27.999c0 5.33301 1 9.33301 3 12c3.33301 6 19.333 26 48 60l77 88c23.333 25.333 42 40.333 56 45zM378 503.998
c0 0.666992 -1.00098 1.00098 -3.00098 1.00098c-15.333 0 -37.333 -6.66699 -66 -20c-36.667 -16 -77 -44.833 -121 -86.5s-66 -71.834 -66 -90.501c0 -3.33301 1.83301 -9.5 5.5 -18.5s6.83398 -15.167 9.50098 -18.5h1c9.33301 0 35.333 15 78 45
c19.333 13.333 40.833 31.166 64.5 53.499s41.5 41.5 53.5 57.5c8.66699 10.667 18.167 25.334 28.5 44.001s15.5 29.667 15.5 33zM346.999 632.999c10 2 24.001 3.00293 42.001 3.00293c15.333 0 26 -0.666992 32 -2s14.667 -5.33301 26 -12
c17.333 -9.33301 28.666 -19 33.999 -29s8 -26.333 8 -49c-0.666992 -30.667 -8.5 -63 -23.5 -97s-34.833 -64.333 -59.5 -91c-42 -46 -91.333 -81 -148 -105c-18 -7.33301 -27 -12 -27 -14l5 -2c2 -0.666992 6.66699 -1 14 -1c40 0 79.333 6.66699 118 20
c25.333 8.66699 46.666 18 63.999 28c28 15.333 46.667 25 56 29s19.666 6.66699 30.999 8c3.33301 0.666992 8 1 14 1c7.33301 0 15.666 -2 24.999 -6c8.66699 -4 13.834 -7.16699 15.501 -9.5s2.5 -9.16602 2.5 -20.499c0 -14.667 -4.16699 -32.834 -12.5 -54.501
s-17.166 -37.167 -26.499 -46.5c-16 -17.333 -47 -34.333 -93 -51c-68 -25.333 -136 -38 -204 -38c-49.333 0 -87.333 7 -114 21c-10.667 5.33301 -23.5 13.833 -38.5 25.5s-25.5 21.167 -31.5 28.5c-9.33301 11.333 -19.666 29.166 -30.999 53.499s-18.333 42.833 -21 55.5
c-2 9.33301 -3 19 -3 29c0 63.333 34.667 129.666 104 198.999c34.667 34.667 70.5 61.667 107.5 81s81.833 34.666 134.5 45.999z" />
    <glyph glyph-name="afii10023" unicode="&#x451;" horiz-adv-x="576" 
d="M459 831c12 4 22.335 5.99805 31.002 5.99805c9.33301 0 18 -2 26 -6c6 -3.33301 9.66699 -6 11 -8s2 -6.33301 2 -13v-14c-0.666992 -9.33301 -4.83398 -23 -12.501 -41s-13.5 -27.333 -17.5 -28c-30 -7.33301 -70.333 -23.333 -121 -48
c-50.667 -24 -78.334 -36 -83.001 -36c-2 0 -4.33301 1.33301 -7 4c-4.66699 4.66699 -7 9.33398 -7 14.001c0 9.33301 13.333 27.333 40 54c68 70.667 114 109.334 138 116.001zM239.002 792.998c12.667 4 24.332 6 34.999 6s20 -2 28 -6
c6 -2.66699 9.66699 -5.16699 11 -7.5s2 -7.5 2 -15.5c0 -6 -0.666992 -11.833 -2 -17.5s-2.83301 -10.5 -4.5 -14.5l-6.5 -15c-2.66699 -6 -4.66699 -10.667 -6 -14c-4.66699 -12.667 -13 -21.667 -25 -27c-16 -8 -48.333 -29.667 -97 -65
c-58.667 -41.333 -91 -62.666 -97 -63.999c-3.33301 0 -6.66602 2.33301 -9.99902 7c-8 9.33301 -12 18.666 -12 27.999c0 5.33301 1 9.33301 3 12c3.33301 6 19.333 26 48 60l77 88c23.333 25.333 42 40.333 56 45zM378 503.998
c0 0.666992 -1.00098 1.00098 -3.00098 1.00098c-15.333 0 -37.333 -6.66699 -66 -20c-36.667 -16 -77 -44.833 -121 -86.5s-66 -71.834 -66 -90.501c0 -3.33301 1.83301 -9.5 5.5 -18.5s6.83398 -15.167 9.50098 -18.5h1c9.33301 0 35.333 15 78 45
c19.333 13.333 40.833 31.166 64.5 53.499s41.5 41.5 53.5 57.5c8.66699 10.667 18.167 25.334 28.5 44.001s15.5 29.667 15.5 33zM346.999 632.999c10 2 24.001 3.00293 42.001 3.00293c15.333 0 26 -0.666992 32 -2s14.667 -5.33301 26 -12
c17.333 -9.33301 28.666 -19 33.999 -29s8 -26.333 8 -49c-0.666992 -30.667 -8.5 -63 -23.5 -97s-34.833 -64.333 -59.5 -91c-42 -46 -91.333 -81 -148 -105c-18 -7.33301 -27 -12 -27 -14l5 -2c2 -0.666992 6.66699 -1 14 -1c40 0 79.333 6.66699 118 20
c25.333 8.66699 46.666 18 63.999 28c28 15.333 46.667 25 56 29s19.666 6.66699 30.999 8c3.33301 0.666992 8 1 14 1c7.33301 0 15.666 -2 24.999 -6c8.66699 -4 13.834 -7.16699 15.501 -9.5s2.5 -9.16602 2.5 -20.499c0 -14.667 -4.16699 -32.834 -12.5 -54.501
s-17.166 -37.167 -26.499 -46.5c-16 -17.333 -47 -34.333 -93 -51c-68 -25.333 -136 -38 -204 -38c-49.333 0 -87.333 7 -114 21c-10.667 5.33301 -23.5 13.833 -38.5 25.5s-25.5 21.167 -31.5 28.5c-9.33301 11.333 -19.666 29.166 -30.999 53.499s-18.333 42.833 -21 55.5
c-2 9.33301 -3 19 -3 29c0 63.333 34.667 129.666 104 198.999c34.667 34.667 70.5 61.667 107.5 81s81.833 34.666 134.5 45.999z" />
    <glyph glyph-name="afii10053" unicode="&#x404;" horiz-adv-x="559" 
d="M240 579c20 6.66699 37.9971 10.001 53.9971 10.001h8c17.333 -0.666992 29.5 -3.33398 36.5 -8.00098s10.5 -12.334 10.5 -23.001s-3 -17.667 -9 -21c-2.66699 0 -4.66699 0.666992 -6 2c-2 3.33301 -6 5 -12 5c-21.333 0 -50.666 -12.333 -87.999 -37
c-22.667 -15.333 -45.667 -36 -69 -62s-41 -50.667 -53 -74c-12 -25.333 -18 -49.666 -18 -72.999v-6l1 -13l73 42c48.667 28 78.667 42 90 42c12.667 0 19 -3.66699 19 -11c0 -14 -23.333 -46.333 -70 -97c-31.333 -33.333 -47 -52.666 -47 -57.999c0 -4 9.33301 -6 28 -6
h13c32.667 0 71.334 11.333 116.001 34c32.667 16.667 58.334 32.334 77.001 47.001s41.334 37.667 68.001 69c7.33301 8.66699 21.333 13 42 13c11.333 0 21 -2 29 -6c10.667 -4.66699 17.667 -9.33398 21 -14.001c3.33301 -5.33301 5 -12.333 5 -21
c0 -21.333 -8.33301 -49 -25 -83c-14 -28.667 -43.333 -57.667 -88 -87s-93.334 -51.333 -146.001 -66c-28 -8 -62.333 -12 -103 -12c-20 0 -36.667 1.66699 -50 5c-46.667 14 -84.667 47.667 -114 101c-21.333 38 -32 75 -32 111c0 34 8.66699 68.667 26 104
c27.333 59.333 69.333 108.666 126 147.999c28.667 20 57.667 35 87 45z" />
    <glyph glyph-name="afii10053" unicode="&#x454;" horiz-adv-x="559" 
d="M240 579c20 6.66699 37.9971 10.001 53.9971 10.001h8c17.333 -0.666992 29.5 -3.33398 36.5 -8.00098s10.5 -12.334 10.5 -23.001s-3 -17.667 -9 -21c-2.66699 0 -4.66699 0.666992 -6 2c-2 3.33301 -6 5 -12 5c-21.333 0 -50.666 -12.333 -87.999 -37
c-22.667 -15.333 -45.667 -36 -69 -62s-41 -50.667 -53 -74c-12 -25.333 -18 -49.666 -18 -72.999v-6l1 -13l73 42c48.667 28 78.667 42 90 42c12.667 0 19 -3.66699 19 -11c0 -14 -23.333 -46.333 -70 -97c-31.333 -33.333 -47 -52.666 -47 -57.999c0 -4 9.33301 -6 28 -6
h13c32.667 0 71.334 11.333 116.001 34c32.667 16.667 58.334 32.334 77.001 47.001s41.334 37.667 68.001 69c7.33301 8.66699 21.333 13 42 13c11.333 0 21 -2 29 -6c10.667 -4.66699 17.667 -9.33398 21 -14.001c3.33301 -5.33301 5 -12.333 5 -21
c0 -21.333 -8.33301 -49 -25 -83c-14 -28.667 -43.333 -57.667 -88 -87s-93.334 -51.333 -146.001 -66c-28 -8 -62.333 -12 -103 -12c-20 0 -36.667 1.66699 -50 5c-46.667 14 -84.667 47.667 -114 101c-21.333 38 -32 75 -32 111c0 34 8.66699 68.667 26 104
c27.333 59.333 69.333 108.666 126 147.999c28.667 20 57.667 35 87 45z" />
    <glyph glyph-name="afii10055" unicode="&#x406;" horiz-adv-x="239" 
d="M99 814c4 6.66699 11.998 12.167 23.998 16.5s24.333 6.5 37 6.5c12 0 21.667 -2 29 -6c6 -3.33301 9.83301 -6.33301 11.5 -9s2.5 -8.33398 2.5 -17.001c0 -24 -11 -52.333 -33 -85c-8.66699 -12.667 -24.5 -38.667 -47.5 -78s-35.167 -60.666 -36.5 -63.999
c-1.33301 -6 -14.666 -28.333 -39.999 -67c-6 -9.33301 -11.333 -14 -16 -14s-10.667 5.5 -18 16.5s-11 20.167 -11 27.5c0 11.333 13 56.333 39 135c5.33301 16.667 15.333 42.167 30 76.5s24.334 54.833 29.001 61.5zM49.998 478
c5.33301 5.33301 14.332 4.66699 26.999 -2c13.333 -6.66699 43.333 -71.667 90 -195l55 -144c11.333 -30 17 -50.333 17 -61c0 -7.33301 -2.33301 -16.333 -7 -27c-15.333 -31.333 -24.333 -48 -27 -50c-1.33301 -0.666992 -3 -1 -5 -1h-3c-12.667 0 -25.667 10.667 -39 32
s-22.666 46.333 -27.999 75c-1.33301 10 -16.333 74.333 -45 193c-24.667 104.667 -37 162.334 -37 173.001c0 3.33301 0.666992 5.66602 2 6.99902z" />
    <glyph glyph-name="afii10055" unicode="&#x456;" horiz-adv-x="239" 
d="M99 814c4 6.66699 11.998 12.167 23.998 16.5s24.333 6.5 37 6.5c12 0 21.667 -2 29 -6c6 -3.33301 9.83301 -6.33301 11.5 -9s2.5 -8.33398 2.5 -17.001c0 -24 -11 -52.333 -33 -85c-8.66699 -12.667 -24.5 -38.667 -47.5 -78s-35.167 -60.666 -36.5 -63.999
c-1.33301 -6 -14.666 -28.333 -39.999 -67c-6 -9.33301 -11.333 -14 -16 -14s-10.667 5.5 -18 16.5s-11 20.167 -11 27.5c0 11.333 13 56.333 39 135c5.33301 16.667 15.333 42.167 30 76.5s24.334 54.833 29.001 61.5zM49.998 478
c5.33301 5.33301 14.332 4.66699 26.999 -2c13.333 -6.66699 43.333 -71.667 90 -195l55 -144c11.333 -30 17 -50.333 17 -61c0 -7.33301 -2.33301 -16.333 -7 -27c-15.333 -31.333 -24.333 -48 -27 -50c-1.33301 -0.666992 -3 -1 -5 -1h-3c-12.667 0 -25.667 10.667 -39 32
s-22.666 46.333 -27.999 75c-1.33301 10 -16.333 74.333 -45 193c-24.667 104.667 -37 162.334 -37 173.001c0 3.33301 0.666992 5.66602 2 6.99902z" />
    <glyph glyph-name="afii10056" unicode="&#x407;" horiz-adv-x="286" 
d="M207 903c15.333 3.33301 26.999 5.00293 34.999 5.00293c9.33301 0 18.666 -2 27.999 -6c10 -4.66699 15 -13.667 15 -27c0 -12 -3.83301 -28 -11.5 -48s-15.5 -33.667 -23.5 -41c-5.33301 -5.33301 -29.666 -38.333 -72.999 -99s-67 -93.334 -71 -98.001
c-8 -8 -12.833 -12.5 -14.5 -13.5s-4.5 0.166992 -8.5 3.5c-4 4 -6 10 -6 18c0 17.333 12.333 57.666 37 120.999l18.5 48.5l20 51.5c5.66699 14 9.83398 24.667 12.501 32c10.667 28.667 17 44 19 46c1.33301 1.33301 9 3.66602 23 6.99902zM40.999 836.003
c7.33301 11.333 23.666 17 48.999 17c11.333 0 20.333 -1.66699 27 -5c6 -3.33301 9.83301 -6.33301 11.5 -9s2.5 -8 2.5 -16c0 -14 -7 -36.333 -21 -67c-11.333 -25.333 -22.666 -52.666 -33.999 -81.999c-29.333 -72.667 -48 -112 -56 -118c-4.66699 -4 -9 -3.33301 -13 2
s-6 14 -6 26c0 15.333 3.33301 46 10 92c13.333 97.333 23.333 150.666 30 159.999zM61.999 511.003c6.66699 6.66699 14.666 4.66504 23.999 -6.00195c16.667 -19.333 55.667 -113 117 -281c21.333 -59.333 32 -95.666 32 -108.999c0 -8 -5.33301 -26 -16 -54
c-6.66699 -16.667 -14.667 -25 -24 -25c-6.66699 0 -13.667 3.33301 -21 10c-9.33301 8 -18.166 20.833 -26.499 38.5s-13.833 34.5 -16.5 50.5c-1.33301 13.333 -8.33301 47.333 -21 102c-34 148 -51 234.667 -51 260c0 8.66699 1 13.334 3 14.001z" />
    <glyph glyph-name="afii10056" unicode="&#x457;" horiz-adv-x="286" 
d="M207 903c15.333 3.33301 26.999 5.00293 34.999 5.00293c9.33301 0 18.666 -2 27.999 -6c10 -4.66699 15 -13.667 15 -27c0 -12 -3.83301 -28 -11.5 -48s-15.5 -33.667 -23.5 -41c-5.33301 -5.33301 -29.666 -38.333 -72.999 -99s-67 -93.334 -71 -98.001
c-8 -8 -12.833 -12.5 -14.5 -13.5s-4.5 0.166992 -8.5 3.5c-4 4 -6 10 -6 18c0 17.333 12.333 57.666 37 120.999l18.5 48.5l20 51.5c5.66699 14 9.83398 24.667 12.501 32c10.667 28.667 17 44 19 46c1.33301 1.33301 9 3.66602 23 6.99902zM40.999 836.003
c7.33301 11.333 23.666 17 48.999 17c11.333 0 20.333 -1.66699 27 -5c6 -3.33301 9.83301 -6.33301 11.5 -9s2.5 -8 2.5 -16c0 -14 -7 -36.333 -21 -67c-11.333 -25.333 -22.666 -52.666 -33.999 -81.999c-29.333 -72.667 -48 -112 -56 -118c-4.66699 -4 -9 -3.33301 -13 2
s-6 14 -6 26c0 15.333 3.33301 46 10 92c13.333 97.333 23.333 150.666 30 159.999zM61.999 511.003c6.66699 6.66699 14.666 4.66504 23.999 -6.00195c16.667 -19.333 55.667 -113 117 -281c21.333 -59.333 32 -95.666 32 -108.999c0 -8 -5.33301 -26 -16 -54
c-6.66699 -16.667 -14.667 -25 -24 -25c-6.66699 0 -13.667 3.33301 -21 10c-9.33301 8 -18.166 20.833 -26.499 38.5s-13.833 34.5 -16.5 50.5c-1.33301 13.333 -8.33301 47.333 -21 102c-34 148 -51 234.667 -51 260c0 8.66699 1 13.334 3 14.001z" />
    <glyph glyph-name="afii10062" unicode="&#x40e;" horiz-adv-x="519" 
d="M412 783c18 5.33301 30.6631 8.00195 37.9961 8.00195c6 0 13.667 -2.33301 23 -7c8.66699 -4.66699 13 -12.334 13 -23.001c0 -10 -3.66699 -24.667 -11 -44c-7.33301 -18.667 -21.666 -38 -42.999 -58c-34 -32.667 -74.167 -58.834 -120.5 -78.501
s-91.166 -29.5 -134.499 -29.5c-49.333 0 -81.666 14.667 -96.999 44c-3.33301 6 -5 12 -5 18c0 9.33301 4.66699 14 14 14c2.66699 0 8.66699 -1.33301 18 -4c6 -2 12.667 -3 20 -3c28.667 0 64.334 11.333 107.001 34s81.667 51.667 117 87c22 22 42.333 36 61 42z
M414.996 550.002c16.667 4 27.3369 5.99902 32.0039 5.99902c5.33301 0 13.333 -3.33301 24 -10c20.667 -11.333 34.667 -41.333 42 -90c4 -26 6 -62 6 -108c0 -45.333 -2 -79.666 -6 -102.999c-8 -44.667 -22.667 -89 -44 -133s-44 -76.333 -68 -97
c-21.333 -18.667 -47.333 -33.5 -78 -44.5s-60.334 -16.5 -89.001 -16.5c-18 0 -32.333 1.66699 -43 5c-32 8 -59.667 32.333 -83 73c-18.667 34.667 -28 61.667 -28 81c0 4.66699 0.666992 11 2 19c3.33301 13.333 7 22.5 11 27.5s11.333 8.83301 22 11.5c16 4 27 6 33 6
c5.33301 0 11.666 -2 18.999 -6c8.66699 -4.66699 15 -15 19 -31s9.5 -27.167 16.5 -33.5s17.833 -10.166 32.5 -11.499h8c28.667 0 57.667 14.333 87 43c28.667 27.333 48.667 62.666 60 105.999c8.66699 34.667 13 68.334 13 101.001c0 6.66699 -0.666992 10 -2 10
s-7.66602 -7.66699 -18.999 -23c-44.667 -59.333 -94.667 -99 -150 -119c-17.333 -6 -35 -9 -53 -9c-20.667 0 -39.334 4 -56.001 12c-22.667 10.667 -44.334 29.667 -65.001 57s-36.334 56.666 -47.001 87.999c-6.66699 19.333 -10 42 -10 68c0 48 8.33301 77.333 25 88
c6 4 11.333 6 16 6c8.66699 0 13.667 -4.66699 15 -14c1.33301 -8 0 -12 -4 -12c-2 0 -3 -6.66699 -3 -20v-17c1.33301 -26.667 7.66602 -51 18.999 -73c22.667 -44.667 49.334 -70.667 80.001 -78c4.66699 -1.33301 10 -2 16 -2s14.667 3 26 9c50 25.333 99.667 81 149 167
c16.667 30 29 47.667 37 53c9.33301 6 22 10.667 38 14z" />
    <glyph glyph-name="afii10062" unicode="&#x45e;" horiz-adv-x="519" 
d="M412 783c18 5.33301 30.6631 8.00195 37.9961 8.00195c6 0 13.667 -2.33301 23 -7c8.66699 -4.66699 13 -12.334 13 -23.001c0 -10 -3.66699 -24.667 -11 -44c-7.33301 -18.667 -21.666 -38 -42.999 -58c-34 -32.667 -74.167 -58.834 -120.5 -78.501
s-91.166 -29.5 -134.499 -29.5c-49.333 0 -81.666 14.667 -96.999 44c-3.33301 6 -5 12 -5 18c0 9.33301 4.66699 14 14 14c2.66699 0 8.66699 -1.33301 18 -4c6 -2 12.667 -3 20 -3c28.667 0 64.334 11.333 107.001 34s81.667 51.667 117 87c22 22 42.333 36 61 42z
M414.996 550.002c16.667 4 27.3369 5.99902 32.0039 5.99902c5.33301 0 13.333 -3.33301 24 -10c20.667 -11.333 34.667 -41.333 42 -90c4 -26 6 -62 6 -108c0 -45.333 -2 -79.666 -6 -102.999c-8 -44.667 -22.667 -89 -44 -133s-44 -76.333 -68 -97
c-21.333 -18.667 -47.333 -33.5 -78 -44.5s-60.334 -16.5 -89.001 -16.5c-18 0 -32.333 1.66699 -43 5c-32 8 -59.667 32.333 -83 73c-18.667 34.667 -28 61.667 -28 81c0 4.66699 0.666992 11 2 19c3.33301 13.333 7 22.5 11 27.5s11.333 8.83301 22 11.5c16 4 27 6 33 6
c5.33301 0 11.666 -2 18.999 -6c8.66699 -4.66699 15 -15 19 -31s9.5 -27.167 16.5 -33.5s17.833 -10.166 32.5 -11.499h8c28.667 0 57.667 14.333 87 43c28.667 27.333 48.667 62.666 60 105.999c8.66699 34.667 13 68.334 13 101.001c0 6.66699 -0.666992 10 -2 10
s-7.66602 -7.66699 -18.999 -23c-44.667 -59.333 -94.667 -99 -150 -119c-17.333 -6 -35 -9 -53 -9c-20.667 0 -39.334 4 -56.001 12c-22.667 10.667 -44.334 29.667 -65.001 57s-36.334 56.666 -47.001 87.999c-6.66699 19.333 -10 42 -10 68c0 48 8.33301 77.333 25 88
c6 4 11.333 6 16 6c8.66699 0 13.667 -4.66699 15 -14c1.33301 -8 0 -12 -4 -12c-2 0 -3 -6.66699 -3 -20v-17c1.33301 -26.667 7.66602 -51 18.999 -73c22.667 -44.667 49.334 -70.667 80.001 -78c4.66699 -1.33301 10 -2 16 -2s14.667 3 26 9c50 25.333 99.667 81 149 167
c16.667 30 29 47.667 37 53c9.33301 6 22 10.667 38 14z" />
    <glyph glyph-name="afii10017" unicode="&#x410;" horiz-adv-x="357" 
d="M92 489l-6 -117.002c-3.33301 -77.333 -5 -117.666 -5 -120.999c0 -0.666992 4.5 0.833008 13.5 4.5s19.833 8.83398 32.5 15.501l45 21l-20 58c-8 22.667 -21 57.667 -39 105l-9 23.5c-3.33301 9 -6 15.5 -8 19.5l-2 7zM46 699.998c16 4 28.668 6.00098 38.001 6.00098
c12 0 23.333 -3 34 -9c10 -5.33301 17.833 -11.666 23.5 -18.999s13.167 -20 22.5 -38c18 -34.667 51.667 -119.334 101 -254.001c8.66699 -24 15.834 -40.167 21.501 -48.5s13.167 -13.833 22.5 -16.5c6.66699 -2 10 -10.333 10 -25c0 -9.33301 -1.33301 -18 -4 -26
c-1.33301 -5.33301 -2 -9 -2 -11c0 -8.66699 7 -32.334 21 -71.001c15.333 -43.333 23 -70 23 -80c0 -17.333 -6 -38.666 -18 -63.999s-22.333 -38 -31 -38c-4.66699 0 -12 4.33301 -22 13c-22.667 18 -45.334 62 -68.001 132l-14 42l-48 -9
c-42.667 -8 -64.334 -12 -65.001 -12c-8 -1.33301 -12.667 -3.33301 -14 -6c-1.33301 -3.33301 -5 -32.333 -11 -87c-3.33301 -34 -7.33301 -56.333 -12 -67c-4 -9.33301 -8.33301 -14 -13 -14s-9.66699 5.33301 -15 16c-4 7.33301 -7 20.166 -9 38.499
s-4.33301 60.5 -7 126.5c-6 149.333 -9 269.666 -9 360.999c0 46.667 0.666992 75.334 2 86.001c2.66699 27.333 6.5 45.5 11.5 54.5s15.5 15.5 31.5 19.5z" />
    <glyph glyph-name="afii10017" unicode="&#x430;" horiz-adv-x="357" 
d="M92 489l-6 -117.002c-3.33301 -77.333 -5 -117.666 -5 -120.999c0 -0.666992 4.5 0.833008 13.5 4.5s19.833 8.83398 32.5 15.501l45 21l-20 58c-8 22.667 -21 57.667 -39 105l-9 23.5c-3.33301 9 -6 15.5 -8 19.5l-2 7zM46 699.998c16 4 28.668 6.00098 38.001 6.00098
c12 0 23.333 -3 34 -9c10 -5.33301 17.833 -11.666 23.5 -18.999s13.167 -20 22.5 -38c18 -34.667 51.667 -119.334 101 -254.001c8.66699 -24 15.834 -40.167 21.501 -48.5s13.167 -13.833 22.5 -16.5c6.66699 -2 10 -10.333 10 -25c0 -9.33301 -1.33301 -18 -4 -26
c-1.33301 -5.33301 -2 -9 -2 -11c0 -8.66699 7 -32.334 21 -71.001c15.333 -43.333 23 -70 23 -80c0 -17.333 -6 -38.666 -18 -63.999s-22.333 -38 -31 -38c-4.66699 0 -12 4.33301 -22 13c-22.667 18 -45.334 62 -68.001 132l-14 42l-48 -9
c-42.667 -8 -64.334 -12 -65.001 -12c-8 -1.33301 -12.667 -3.33301 -14 -6c-1.33301 -3.33301 -5 -32.333 -11 -87c-3.33301 -34 -7.33301 -56.333 -12 -67c-4 -9.33301 -8.33301 -14 -13 -14s-9.66699 5.33301 -15 16c-4 7.33301 -7 20.166 -9 38.499
s-4.33301 60.5 -7 126.5c-6 149.333 -9 269.666 -9 360.999c0 46.667 0.666992 75.334 2 86.001c2.66699 27.333 6.5 45.5 11.5 54.5s15.5 15.5 31.5 19.5z" />
    <glyph glyph-name="afii10018" unicode="&#x411;" horiz-adv-x="587" 
d="M433 241c-24 8 -51.332 12.001 -81.999 12.001c-40.667 0 -88.667 -7 -144 -21c-17.333 -4.66699 -28.5 -8.16699 -33.5 -10.5s-7.5 -5.16602 -7.5 -8.49902c0 -9.33301 5.66699 -24 17 -44s21.666 -34.667 30.999 -44l16 -16h37c16.667 0 28.5 0.833008 35.5 2.5
s19.167 6.5 36.5 14.5c26 13.333 47 25.666 63 36.999c12 9.33301 24.833 21.666 38.5 36.999s20.5 25 20.5 29c0 2 -9.33301 6 -28 12zM444.001 611.001c3.33301 2.66699 8.32812 4.00488 14.9951 4.00488c8.66699 0 17.334 -2.33301 26.001 -7
c6 -3.33301 9.83301 -6.33301 11.5 -9s2.5 -8.66699 2.5 -18c0 -12.667 -4 -27.834 -12 -45.501s-16 -29.834 -24 -36.501c-22 -17.333 -112.333 -26.666 -271 -27.999c-71.333 0 -107 -1.66699 -107 -5c0 -2 5.83301 -21.833 17.5 -59.5s17.834 -56.834 18.501 -57.501
c2 -2 5.66699 -1.66699 11 1c20 11.333 64.667 22.666 134 33.999c29.333 5.33301 62.666 8 99.999 8c30 0 52 -1.66699 66 -5c30 -6.66699 59.833 -18.834 89.5 -36.501s48.5 -34.834 56.5 -51.501c5.33301 -10.667 8 -24.667 8 -42
c0 -26.667 -6.66699 -55.834 -20 -87.501s-30.666 -59.167 -51.999 -82.5c-29.333 -31.333 -66.166 -56.666 -110.499 -75.999s-86.833 -29 -127.5 -29c-26.667 0 -49.667 4.33301 -69 13c-59.333 27.333 -102.666 95.333 -129.999 204c-8 31.333 -16.5 73 -25.5 125
s-14.5 91.333 -16.5 118c-1.33301 16 -2.66602 25.667 -3.99902 29s-4.33301 5.66602 -9 6.99902c-5.33301 1.33301 -10.166 4.5 -14.499 9.5s-6.5 9.83301 -6.5 14.5c0 1.33301 0.666992 3.33301 2 6c4 4 9 6 15 6c4 0 6.66699 1 8 3s2.33301 7 3 15
c0.666992 8.66699 1.66699 13.834 3 15.501s5.66602 2.5 12.999 2.5c12 0 21 -8 27 -24c0.666992 -0.666992 1.66699 -1 3 -1c14.667 0 60.5 7.33301 137.5 22s126.833 25.667 149.5 33c6.66699 2 20 7.66699 40 17c14.667 6.66699 23.667 10 27 10c6 0 11 1.33301 15 4z
" />
    <glyph glyph-name="afii10018" unicode="&#x431;" horiz-adv-x="587" 
d="M433 241c-24 8 -51.332 12.001 -81.999 12.001c-40.667 0 -88.667 -7 -144 -21c-17.333 -4.66699 -28.5 -8.16699 -33.5 -10.5s-7.5 -5.16602 -7.5 -8.49902c0 -9.33301 5.66699 -24 17 -44s21.666 -34.667 30.999 -44l16 -16h37c16.667 0 28.5 0.833008 35.5 2.5
s19.167 6.5 36.5 14.5c26 13.333 47 25.666 63 36.999c12 9.33301 24.833 21.666 38.5 36.999s20.5 25 20.5 29c0 2 -9.33301 6 -28 12zM444.001 611.001c3.33301 2.66699 8.32812 4.00488 14.9951 4.00488c8.66699 0 17.334 -2.33301 26.001 -7
c6 -3.33301 9.83301 -6.33301 11.5 -9s2.5 -8.66699 2.5 -18c0 -12.667 -4 -27.834 -12 -45.501s-16 -29.834 -24 -36.501c-22 -17.333 -112.333 -26.666 -271 -27.999c-71.333 0 -107 -1.66699 -107 -5c0 -2 5.83301 -21.833 17.5 -59.5s17.834 -56.834 18.501 -57.501
c2 -2 5.66699 -1.66699 11 1c20 11.333 64.667 22.666 134 33.999c29.333 5.33301 62.666 8 99.999 8c30 0 52 -1.66699 66 -5c30 -6.66699 59.833 -18.834 89.5 -36.501s48.5 -34.834 56.5 -51.501c5.33301 -10.667 8 -24.667 8 -42
c0 -26.667 -6.66699 -55.834 -20 -87.501s-30.666 -59.167 -51.999 -82.5c-29.333 -31.333 -66.166 -56.666 -110.499 -75.999s-86.833 -29 -127.5 -29c-26.667 0 -49.667 4.33301 -69 13c-59.333 27.333 -102.666 95.333 -129.999 204c-8 31.333 -16.5 73 -25.5 125
s-14.5 91.333 -16.5 118c-1.33301 16 -2.66602 25.667 -3.99902 29s-4.33301 5.66602 -9 6.99902c-5.33301 1.33301 -10.166 4.5 -14.499 9.5s-6.5 9.83301 -6.5 14.5c0 1.33301 0.666992 3.33301 2 6c4 4 9 6 15 6c4 0 6.66699 1 8 3s2.33301 7 3 15
c0.666992 8.66699 1.66699 13.834 3 15.501s5.66602 2.5 12.999 2.5c12 0 21 -8 27 -24c0.666992 -0.666992 1.66699 -1 3 -1c14.667 0 60.5 7.33301 137.5 22s126.833 25.667 149.5 33c6.66699 2 20 7.66699 40 17c14.667 6.66699 23.667 10 27 10c6 0 11 1.33301 15 4z
" />
    <glyph glyph-name="afii10019" unicode="&#x412;" horiz-adv-x="588" 
d="M388 223c-20 3.33301 -49.667 5.00098 -89 5.00098c-32 0 -58.667 -1.33301 -80 -4c-11.333 -2 -24.333 -6.33301 -39 -13l-20 -10l16 -27c12 -20 28.667 -40.667 50 -62c21.333 -22.667 42 -37 62 -43c16 -5.33301 31.333 -8 46 -8c16 0 33.667 5 53 15
c24.667 12.667 44.667 28.5 60 47.5s23 36.833 23 53.5c0 9.33301 -1.16699 15.5 -3.5 18.5s-9.83301 6.83301 -22.5 11.5c-19.333 7.33301 -38 12.666 -56 15.999zM200 491.001c-3.33301 0.666992 -7.33398 1.16699 -12.001 1.5s-9.66699 0.833008 -15 1.5s-9 1 -11 1h-10
c-46.667 0 -70 -3 -70 -9c0 -8 4 -32.5 12 -73.5s13.333 -63.5 16 -67.5c2.66699 -3.33301 9.33398 -3.33301 20.001 0c10 3.33301 27.5 12.666 52.5 27.999s43.167 28.333 54.5 39c11.333 10 21.5 20.5 30.5 31.5s13.5 18.5 13.5 22.5l-1 2
c-2.66699 2.66699 -13.667 6.83398 -33 12.501s-35 9.16699 -47 10.5zM113.999 634.001l7.99805 -0.00292969c5.33301 0.666992 10.333 1 15 1c3.33301 0 9.66602 -0.166992 18.999 -0.5s16.333 -0.5 21 -0.5c30.667 -1.33301 56.334 -4.5 77.001 -9.5
s44.334 -13.833 71.001 -26.5c32.667 -16.667 54.667 -32.167 66 -46.5s17 -34.5 17 -60.5c0 -31.333 -7.66699 -63.666 -23 -96.999c-7.33301 -15.333 -10.333 -23.666 -9 -24.999l34 -8c43.333 -9.33301 81 -24.666 113 -45.999s51.667 -45 59 -71c4 -14 6 -31.667 6 -53
c0 -22 -2 -41 -6 -57c-5.33301 -22.667 -14.666 -46.334 -27.999 -71.001s-26.666 -43.667 -39.999 -57c-20.667 -20.667 -46.167 -37 -76.5 -49s-61.166 -18 -92.499 -18c-56 0 -108 22 -156 66c-48 44.667 -87.667 111.334 -119 200.001l-25 69c-4 12 -5 20.667 -3 26
c0.666992 1.33301 1 5 1 11c0 11.333 -1 24.333 -3 39c-2.66699 18 -5.33398 51.667 -8.00098 101c-1.33301 28.667 -2.83301 47.334 -4.5 56.001s-5.83398 20 -12.501 34c-9.33301 18.667 -14 31.667 -14 39c0 5.33301 1.33301 10.666 4 15.999
c6.66699 14 43 26.667 109 38z" />
    <glyph glyph-name="afii10019" unicode="&#x432;" horiz-adv-x="588" 
d="M388 223c-20 3.33301 -49.667 5.00098 -89 5.00098c-32 0 -58.667 -1.33301 -80 -4c-11.333 -2 -24.333 -6.33301 -39 -13l-20 -10l16 -27c12 -20 28.667 -40.667 50 -62c21.333 -22.667 42 -37 62 -43c16 -5.33301 31.333 -8 46 -8c16 0 33.667 5 53 15
c24.667 12.667 44.667 28.5 60 47.5s23 36.833 23 53.5c0 9.33301 -1.16699 15.5 -3.5 18.5s-9.83301 6.83301 -22.5 11.5c-19.333 7.33301 -38 12.666 -56 15.999zM200 491.001c-3.33301 0.666992 -7.33398 1.16699 -12.001 1.5s-9.66699 0.833008 -15 1.5s-9 1 -11 1h-10
c-46.667 0 -70 -3 -70 -9c0 -8 4 -32.5 12 -73.5s13.333 -63.5 16 -67.5c2.66699 -3.33301 9.33398 -3.33301 20.001 0c10 3.33301 27.5 12.666 52.5 27.999s43.167 28.333 54.5 39c11.333 10 21.5 20.5 30.5 31.5s13.5 18.5 13.5 22.5l-1 2
c-2.66699 2.66699 -13.667 6.83398 -33 12.501s-35 9.16699 -47 10.5zM113.999 634.001l7.99805 -0.00292969c5.33301 0.666992 10.333 1 15 1c3.33301 0 9.66602 -0.166992 18.999 -0.5s16.333 -0.5 21 -0.5c30.667 -1.33301 56.334 -4.5 77.001 -9.5
s44.334 -13.833 71.001 -26.5c32.667 -16.667 54.667 -32.167 66 -46.5s17 -34.5 17 -60.5c0 -31.333 -7.66699 -63.666 -23 -96.999c-7.33301 -15.333 -10.333 -23.666 -9 -24.999l34 -8c43.333 -9.33301 81 -24.666 113 -45.999s51.667 -45 59 -71c4 -14 6 -31.667 6 -53
c0 -22 -2 -41 -6 -57c-5.33301 -22.667 -14.666 -46.334 -27.999 -71.001s-26.666 -43.667 -39.999 -57c-20.667 -20.667 -46.167 -37 -76.5 -49s-61.166 -18 -92.499 -18c-56 0 -108 22 -156 66c-48 44.667 -87.667 111.334 -119 200.001l-25 69c-4 12 -5 20.667 -3 26
c0.666992 1.33301 1 5 1 11c0 11.333 -1 24.333 -3 39c-2.66699 18 -5.33398 51.667 -8.00098 101c-1.33301 28.667 -2.83301 47.334 -4.5 56.001s-5.83398 20 -12.501 34c-9.33301 18.667 -14 31.667 -14 39c0 5.33301 1.33301 10.666 4 15.999
c6.66699 14 43 26.667 109 38z" />
    <glyph glyph-name="afii10020" unicode="&#x413;" horiz-adv-x="548" 
d="M236 600c14.667 4 29.3301 6.00391 43.9971 6.00391c32 0 54.333 -8.33301 67 -25c4.66699 -6.66699 7 -18.334 7 -35.001c0 -24.667 -4.33301 -50 -13 -76c-6.66699 -20.667 -19 -50.334 -37 -89.001s-33.333 -68.334 -46 -89.001
c-8.66699 -14.667 -13 -23.334 -13 -26.001c-66 -116 -99 -175.667 -99 -179h1c4 0 20.167 7.33301 48.5 22s52.5 28 72.5 40c42.667 26 89.667 60 141 102c22.667 18 43.334 30 62.001 36c18 6 30.333 9 37 9c4 0 12 -2.33301 24 -7l16 -8l-2 -25
c-1.33301 -16 -6.66602 -34.833 -15.999 -56.5s-19.666 -38.5 -30.999 -50.5c-9.33301 -10.667 -29 -27 -59 -49c-30.667 -22.667 -47.334 -35.334 -50.001 -38.001c-22 -19.333 -66.833 -45.333 -134.5 -78s-116.834 -49 -147.501 -49c-26 0 -50.333 20 -73 60
c-14 24.667 -21 46 -21 64c0 20.667 7.83301 46.5 23.5 77.5s44.834 80.833 87.501 149.5c32 52 48 78.333 48 79c0 2 9.66699 19.333 29 52c34 58.667 51 91.334 51 98.001l-1 2c-1.33301 0.666992 -2.66602 1 -3.99902 1c-18 0 -48 -8.66699 -90 -26
c-20.667 -8.66699 -45 -21.167 -73 -37.5s-47.333 -29.5 -58 -39.5c-10.667 -9.33301 -17.667 -12.333 -21 -9s-5 7.33301 -5 12c0 14 17.667 37.667 53 71c63.333 58.667 124 95.667 182 111z" />
    <glyph glyph-name="afii10020" unicode="&#x433;" horiz-adv-x="548" 
d="M236 600c14.667 4 29.3301 6.00391 43.9971 6.00391c32 0 54.333 -8.33301 67 -25c4.66699 -6.66699 7 -18.334 7 -35.001c0 -24.667 -4.33301 -50 -13 -76c-6.66699 -20.667 -19 -50.334 -37 -89.001s-33.333 -68.334 -46 -89.001
c-8.66699 -14.667 -13 -23.334 -13 -26.001c-66 -116 -99 -175.667 -99 -179h1c4 0 20.167 7.33301 48.5 22s52.5 28 72.5 40c42.667 26 89.667 60 141 102c22.667 18 43.334 30 62.001 36c18 6 30.333 9 37 9c4 0 12 -2.33301 24 -7l16 -8l-2 -25
c-1.33301 -16 -6.66602 -34.833 -15.999 -56.5s-19.666 -38.5 -30.999 -50.5c-9.33301 -10.667 -29 -27 -59 -49c-30.667 -22.667 -47.334 -35.334 -50.001 -38.001c-22 -19.333 -66.833 -45.333 -134.5 -78s-116.834 -49 -147.501 -49c-26 0 -50.333 20 -73 60
c-14 24.667 -21 46 -21 64c0 20.667 7.83301 46.5 23.5 77.5s44.834 80.833 87.501 149.5c32 52 48 78.333 48 79c0 2 9.66699 19.333 29 52c34 58.667 51 91.334 51 98.001l-1 2c-1.33301 0.666992 -2.66602 1 -3.99902 1c-18 0 -48 -8.66699 -90 -26
c-20.667 -8.66699 -45 -21.167 -73 -37.5s-47.333 -29.5 -58 -39.5c-10.667 -9.33301 -17.667 -12.333 -21 -9s-5 7.33301 -5 12c0 14 17.667 37.667 53 71c63.333 58.667 124 95.667 182 111z" />
    <glyph glyph-name="afii10021" unicode="&#x414;" horiz-adv-x="707" 
d="M482 466c-34.667 6 -97.001 9.00098 -187.001 9.00098c-23.333 0 -43 -0.666992 -59 -2l-24 -3l38 -141l39 -142c2.66699 -2.66699 44.334 20.666 125.001 69.999c42.667 26.667 80.667 54.5 114 83.5s55 52.833 65 71.5l9 18l-12 6
c-21.333 11.333 -57.333 21.333 -108 30zM342.999 560.001c12.667 1.33301 37.333 1.99902 74 1.99902c70.667 0 120.334 -2.66699 149.001 -8c18 -3.33301 38.167 -9.83301 60.5 -19.5s39.166 -18.834 50.499 -27.501c19.333 -15.333 29 -38.666 29 -69.999
c0 -12.667 -1.33301 -24 -4 -34c-11.333 -41.333 -27.833 -77.5 -49.5 -108.5s-52.5 -62.5 -92.5 -94.5c-70.667 -55.333 -146.667 -103.333 -228 -144c-23.333 -10.667 -37 -19 -41 -25c-4.66699 -6 -10.334 -9 -17.001 -9c-5.33301 0 -21 -5 -47 -15
c-41.333 -16 -73.333 -24 -96 -24c-3.33301 0 -5.66602 0.333008 -6.99902 1c-15.333 5.33301 -30 18.833 -44 40.5s-21 40.834 -21 57.501c0 4.66699 1.33301 9.66699 4 15c2 3.33301 15.667 8 41 14c26 6.66699 49.833 14.334 71.5 23.001s32.5 15 32.5 19
c0 45.333 -3.33301 93.833 -10 145.5s-13.334 92.167 -20.001 121.5l-11 43c-0.666992 0.666992 -1.66699 1 -3 1c-8 0 -25.5 -2.83301 -52.5 -8.5s-48.167 -11.167 -63.5 -16.5c-19.333 -6 -30.333 -9 -33 -9c-3.33301 0 -6 1.33301 -8 4c-4 5.33301 -6 10.666 -6 15.999
c0 18 36.833 38.833 110.5 62.5s150.834 39.5 231.501 47.5z" />
    <glyph glyph-name="afii10021" unicode="&#x434;" horiz-adv-x="707" 
d="M482 466c-34.667 6 -97.001 9.00098 -187.001 9.00098c-23.333 0 -43 -0.666992 -59 -2l-24 -3l38 -141l39 -142c2.66699 -2.66699 44.334 20.666 125.001 69.999c42.667 26.667 80.667 54.5 114 83.5s55 52.833 65 71.5l9 18l-12 6
c-21.333 11.333 -57.333 21.333 -108 30zM342.999 560.001c12.667 1.33301 37.333 1.99902 74 1.99902c70.667 0 120.334 -2.66699 149.001 -8c18 -3.33301 38.167 -9.83301 60.5 -19.5s39.166 -18.834 50.499 -27.501c19.333 -15.333 29 -38.666 29 -69.999
c0 -12.667 -1.33301 -24 -4 -34c-11.333 -41.333 -27.833 -77.5 -49.5 -108.5s-52.5 -62.5 -92.5 -94.5c-70.667 -55.333 -146.667 -103.333 -228 -144c-23.333 -10.667 -37 -19 -41 -25c-4.66699 -6 -10.334 -9 -17.001 -9c-5.33301 0 -21 -5 -47 -15
c-41.333 -16 -73.333 -24 -96 -24c-3.33301 0 -5.66602 0.333008 -6.99902 1c-15.333 5.33301 -30 18.833 -44 40.5s-21 40.834 -21 57.501c0 4.66699 1.33301 9.66699 4 15c2 3.33301 15.667 8 41 14c26 6.66699 49.833 14.334 71.5 23.001s32.5 15 32.5 19
c0 45.333 -3.33301 93.833 -10 145.5s-13.334 92.167 -20.001 121.5l-11 43c-0.666992 0.666992 -1.66699 1 -3 1c-8 0 -25.5 -2.83301 -52.5 -8.5s-48.167 -11.167 -63.5 -16.5c-19.333 -6 -30.333 -9 -33 -9c-3.33301 0 -6 1.33301 -8 4c-4 5.33301 -6 10.666 -6 15.999
c0 18 36.833 38.833 110.5 62.5s150.834 39.5 231.501 47.5z" />
    <glyph glyph-name="afii10022" unicode="&#x415;" horiz-adv-x="555" 
d="M330 521c6.66699 11.333 7.66797 15.666 3.00098 12.999c-0.666992 -0.666992 -2 -1.66699 -4 -3c-2.66699 -2 -11.334 -5.33301 -26.001 -10c-14 -4.66699 -32.167 -14 -54.5 -28s-41.5 -28 -57.5 -42c-12 -10.667 -25 -24 -39 -40s-21 -25.667 -21 -29
c0 -0.666992 0.333008 -1 1 -1c4 0 18.167 6.33301 42.5 19s44.5 24 60.5 34c19.333 12.667 38.5 27.834 57.5 45.501s31.5 31.5 37.5 41.5zM314.001 657c10.667 2.66699 26.6689 4.00098 48.002 4.00098c22 0 40.333 -3.66699 55 -11
c16.667 -8.66699 27.5 -16.5 32.5 -23.5s7.5 -18.5 7.5 -34.5c0 -16.667 -4 -36.167 -12 -58.5s-17.667 -41.166 -29 -56.499c-38 -50 -91.333 -89.667 -160 -119c-16 -6.66699 -38 -13.834 -66 -21.501s-46.333 -11.5 -55 -11.5c-4.66699 0 -7.5 -0.5 -8.5 -1.5
s-0.833008 -4.16699 0.5 -9.5c3.33301 -17.333 13.666 -32.666 30.999 -45.999c8 -5.33301 24.667 -8.33301 50 -9c6 -0.666992 13.333 -1 22 -1c12 0 28 3.33301 48 10c17.333 6.66699 39.166 17.167 65.499 31.5s41.833 24.166 46.5 29.499c2 3.33301 13.333 13 34 29
c20 14.667 40 24.334 60 29.001c12.667 2.66699 22 4 28 4s13.667 -2.33301 23 -7l20 -10l-3 -24c-1.33301 -14 -6.83301 -32.333 -16.5 -55s-18.834 -38.334 -27.501 -47.001c-7.33301 -8.66699 -18 -17.667 -32 -27c-25.333 -18.667 -39.666 -29 -42.999 -31
c-23.333 -18 -55 -34 -95 -48s-77 -22.333 -111 -25c-5.33301 -0.666992 -13 -1 -23 -1c-40 0 -75.333 11.667 -106 35c-15.333 11.333 -27 22 -35 32s-19.333 28 -34 54c-18.667 33.333 -28 68.666 -28 105.999c0 62.667 26.333 123.334 79 182.001
c28.667 33.333 64.667 61.666 108 84.999c12 6.66699 32.5 15.5 61.5 26.5s50.5 17.833 64.5 20.5z" />
    <glyph glyph-name="afii10022" unicode="&#x435;" horiz-adv-x="555" 
d="M330 521c6.66699 11.333 7.66797 15.666 3.00098 12.999c-0.666992 -0.666992 -2 -1.66699 -4 -3c-2.66699 -2 -11.334 -5.33301 -26.001 -10c-14 -4.66699 -32.167 -14 -54.5 -28s-41.5 -28 -57.5 -42c-12 -10.667 -25 -24 -39 -40s-21 -25.667 -21 -29
c0 -0.666992 0.333008 -1 1 -1c4 0 18.167 6.33301 42.5 19s44.5 24 60.5 34c19.333 12.667 38.5 27.834 57.5 45.501s31.5 31.5 37.5 41.5zM314.001 657c10.667 2.66699 26.6689 4.00098 48.002 4.00098c22 0 40.333 -3.66699 55 -11
c16.667 -8.66699 27.5 -16.5 32.5 -23.5s7.5 -18.5 7.5 -34.5c0 -16.667 -4 -36.167 -12 -58.5s-17.667 -41.166 -29 -56.499c-38 -50 -91.333 -89.667 -160 -119c-16 -6.66699 -38 -13.834 -66 -21.501s-46.333 -11.5 -55 -11.5c-4.66699 0 -7.5 -0.5 -8.5 -1.5
s-0.833008 -4.16699 0.5 -9.5c3.33301 -17.333 13.666 -32.666 30.999 -45.999c8 -5.33301 24.667 -8.33301 50 -9c6 -0.666992 13.333 -1 22 -1c12 0 28 3.33301 48 10c17.333 6.66699 39.166 17.167 65.499 31.5s41.833 24.166 46.5 29.499c2 3.33301 13.333 13 34 29
c20 14.667 40 24.334 60 29.001c12.667 2.66699 22 4 28 4s13.667 -2.33301 23 -7l20 -10l-3 -24c-1.33301 -14 -6.83301 -32.333 -16.5 -55s-18.834 -38.334 -27.501 -47.001c-7.33301 -8.66699 -18 -17.667 -32 -27c-25.333 -18.667 -39.666 -29 -42.999 -31
c-23.333 -18 -55 -34 -95 -48s-77 -22.333 -111 -25c-5.33301 -0.666992 -13 -1 -23 -1c-40 0 -75.333 11.667 -106 35c-15.333 11.333 -27 22 -35 32s-19.333 28 -34 54c-18.667 33.333 -28 68.666 -28 105.999c0 62.667 26.333 123.334 79 182.001
c28.667 33.333 64.667 61.666 108 84.999c12 6.66699 32.5 15.5 61.5 26.5s50.5 17.833 64.5 20.5z" />
    <glyph glyph-name="afii10024" unicode="&#x416;" horiz-adv-x="686" 
d="M490 610c13.333 14.667 21.665 22.0029 24.998 22.0029c4 0 6 -2 6 -6c0 -12 -30 -82.667 -90 -212l-31 -68l12 -7c32 -16.667 105.333 -65.334 220 -146.001l54 -38l-2 -26c-1.33301 -18 -3.66602 -28.667 -6.99902 -32s-5 -7.66602 -5 -12.999
c0 -6.66699 -3.5 -15.334 -10.5 -26.001s-13.167 -17.667 -18.5 -21c-4 -2 -7.33301 -3 -10 -3c-6 0 -19.667 8 -41 24c-10 8 -27.667 20.833 -53 38.5l-70 47.5c-21.333 14 -32 20.667 -32 20c0 -2 3.33301 -12 10 -30c7.33301 -18.667 11 -37.334 11 -56.001
c0 -10.667 -1.66699 -20.334 -5 -29.001c-4 -8 -6 -13.333 -6 -16l-1 -4l-4.5 -9c-1.66699 -3.33301 -3.5 -6.66602 -5.5 -9.99902c-6.66699 -13.333 -14 -20 -22 -20c-6.66699 0 -13 2.66699 -19 8c-20.667 14.667 -42.334 61.334 -65.001 140.001l-11.5 38.5l-9.5 31.5
l-3 10c-0.666992 0.666992 -3 -1.5 -7 -6.5s-9 -11.833 -15 -20.5l-20.5 -30l-23.5 -36l-23 -37.5l-20.5 -35.5c-6.33301 -11.333 -11.5 -21 -15.5 -29c-15.333 -30.667 -27.666 -46 -36.999 -46c-6 0 -13.833 4.5 -23.5 13.5s-18.5 20.167 -26.5 33.5
c-12 20.667 -18 38.667 -18 54c0 12 3.33301 24.333 10 37c18.667 38 49 88.667 91 152l24 36l-44 44c-104 103.333 -156 167 -156 191c0 6 3.33301 10 10 12c2 0.666992 4.33301 1 7 1c8.66699 0 35.334 -17.333 80.001 -52c104 -79.333 158.667 -119 164 -119l-10 42
c-6 27.333 -12.333 58.166 -19 92.499s-10 57.833 -10 70.5c0 13.333 1.66699 21.666 5 24.999s9 5 17 5c10.667 0 18.667 -2.66699 24 -8c7.33301 -7.33301 28.333 -59 63 -155c8 -22.667 13 -34 15 -34s4 1.66699 6 5c3.33301 4 24 33.333 62 88
c38.667 53.333 63.667 86.333 75 99z" />
    <glyph glyph-name="afii10024" unicode="&#x436;" horiz-adv-x="686" 
d="M490 610c13.333 14.667 21.665 22.0029 24.998 22.0029c4 0 6 -2 6 -6c0 -12 -30 -82.667 -90 -212l-31 -68l12 -7c32 -16.667 105.333 -65.334 220 -146.001l54 -38l-2 -26c-1.33301 -18 -3.66602 -28.667 -6.99902 -32s-5 -7.66602 -5 -12.999
c0 -6.66699 -3.5 -15.334 -10.5 -26.001s-13.167 -17.667 -18.5 -21c-4 -2 -7.33301 -3 -10 -3c-6 0 -19.667 8 -41 24c-10 8 -27.667 20.833 -53 38.5l-70 47.5c-21.333 14 -32 20.667 -32 20c0 -2 3.33301 -12 10 -30c7.33301 -18.667 11 -37.334 11 -56.001
c0 -10.667 -1.66699 -20.334 -5 -29.001c-4 -8 -6 -13.333 -6 -16l-1 -4l-4.5 -9c-1.66699 -3.33301 -3.5 -6.66602 -5.5 -9.99902c-6.66699 -13.333 -14 -20 -22 -20c-6.66699 0 -13 2.66699 -19 8c-20.667 14.667 -42.334 61.334 -65.001 140.001l-11.5 38.5l-9.5 31.5
l-3 10c-0.666992 0.666992 -3 -1.5 -7 -6.5s-9 -11.833 -15 -20.5l-20.5 -30l-23.5 -36l-23 -37.5l-20.5 -35.5c-6.33301 -11.333 -11.5 -21 -15.5 -29c-15.333 -30.667 -27.666 -46 -36.999 -46c-6 0 -13.833 4.5 -23.5 13.5s-18.5 20.167 -26.5 33.5
c-12 20.667 -18 38.667 -18 54c0 12 3.33301 24.333 10 37c18.667 38 49 88.667 91 152l24 36l-44 44c-104 103.333 -156 167 -156 191c0 6 3.33301 10 10 12c2 0.666992 4.33301 1 7 1c8.66699 0 35.334 -17.333 80.001 -52c104 -79.333 158.667 -119 164 -119l-10 42
c-6 27.333 -12.333 58.166 -19 92.499s-10 57.833 -10 70.5c0 13.333 1.66699 21.666 5 24.999s9 5 17 5c10.667 0 18.667 -2.66699 24 -8c7.33301 -7.33301 28.333 -59 63 -155c8 -22.667 13 -34 15 -34s4 1.66699 6 5c3.33301 4 24 33.333 62 88
c38.667 53.333 63.667 86.333 75 99z" />
    <glyph glyph-name="afii10025" unicode="&#x417;" horiz-adv-x="606" 
d="M199 640c19.333 5.33301 41.335 8 66.002 8c24 0 42.333 -3.33301 55 -10c16 -8 26.333 -16 31 -24s7 -21.667 7 -41c0 -20 -3.33301 -39.667 -10 -59l-9 -28l59 -2c32 -1.33301 55.667 -3.83301 71 -7.5s35.666 -11.834 60.999 -24.501
c28 -14.667 47.667 -30.334 59 -47.001s17 -38.667 17 -66c0 -37.333 -11 -77.666 -33 -120.999c-8.66699 -17.333 -23.167 -36.666 -43.5 -57.999s-39.833 -37.333 -58.5 -48c-76 -45.333 -158.667 -68 -248 -68c-2.66699 0 -6.66699 0.166992 -12 0.5
s-9.33301 0.5 -12 0.5c-46 2.66699 -83.167 11.834 -111.5 27.501s-51.166 39.5 -68.499 71.5c-12 22.667 -18 41 -18 55c0 7.33301 2 13.666 6 18.999c2.66699 3.33301 11.667 7.33301 27 12s28 7 38 7c6.66699 0 15.5 -2.33301 26.5 -7s16.5 -8.66699 16.5 -12
c0 -8.66699 13 -16.167 39 -22.5s54.667 -9.5 86 -9.5c26.667 0 48.334 2.33301 65.001 7c17.333 4.66699 39.166 13.5 65.499 26.5s46.833 25.5 61.5 37.5c10.667 8 22 19.5 34 34.5s18 24.833 18 29.5c0 6.66699 -23.667 13.667 -71 21c-12 2 -24.667 3 -38 3
c-54 0 -109 -13.667 -165 -41c-22.667 -11.333 -35.334 -17 -38.001 -17c-3.33301 0 -11 5 -23 15s-18 16.333 -18 19c0 3.33301 -4 11.333 -12 24c-7.33301 11.333 -12.333 23.333 -15 36c-0.666992 2 -1 4.66699 -1 8c0 6.66699 14.333 23.667 43 51s50 50 64 68l19 24
l-14 -3c-40 -8.66699 -75.667 -26.5 -107 -53.5s-53.333 -59.167 -66 -96.5c-0.666992 -4.66699 -3.33398 -7 -8.00098 -7c-5.33301 0 -11.333 4.33301 -18 13c-6 8 -9 20.667 -9 38c0 21.333 4.66699 43.333 14 66c34 78.667 93.333 129 178 151z" />
    <glyph glyph-name="afii10025" unicode="&#x437;" horiz-adv-x="606" 
d="M199 640c19.333 5.33301 41.335 8 66.002 8c24 0 42.333 -3.33301 55 -10c16 -8 26.333 -16 31 -24s7 -21.667 7 -41c0 -20 -3.33301 -39.667 -10 -59l-9 -28l59 -2c32 -1.33301 55.667 -3.83301 71 -7.5s35.666 -11.834 60.999 -24.501
c28 -14.667 47.667 -30.334 59 -47.001s17 -38.667 17 -66c0 -37.333 -11 -77.666 -33 -120.999c-8.66699 -17.333 -23.167 -36.666 -43.5 -57.999s-39.833 -37.333 -58.5 -48c-76 -45.333 -158.667 -68 -248 -68c-2.66699 0 -6.66699 0.166992 -12 0.5
s-9.33301 0.5 -12 0.5c-46 2.66699 -83.167 11.834 -111.5 27.501s-51.166 39.5 -68.499 71.5c-12 22.667 -18 41 -18 55c0 7.33301 2 13.666 6 18.999c2.66699 3.33301 11.667 7.33301 27 12s28 7 38 7c6.66699 0 15.5 -2.33301 26.5 -7s16.5 -8.66699 16.5 -12
c0 -8.66699 13 -16.167 39 -22.5s54.667 -9.5 86 -9.5c26.667 0 48.334 2.33301 65.001 7c17.333 4.66699 39.166 13.5 65.499 26.5s46.833 25.5 61.5 37.5c10.667 8 22 19.5 34 34.5s18 24.833 18 29.5c0 6.66699 -23.667 13.667 -71 21c-12 2 -24.667 3 -38 3
c-54 0 -109 -13.667 -165 -41c-22.667 -11.333 -35.334 -17 -38.001 -17c-3.33301 0 -11 5 -23 15s-18 16.333 -18 19c0 3.33301 -4 11.333 -12 24c-7.33301 11.333 -12.333 23.333 -15 36c-0.666992 2 -1 4.66699 -1 8c0 6.66699 14.333 23.667 43 51s50 50 64 68l19 24
l-14 -3c-40 -8.66699 -75.667 -26.5 -107 -53.5s-53.333 -59.167 -66 -96.5c-0.666992 -4.66699 -3.33398 -7 -8.00098 -7c-5.33301 0 -11.333 4.33301 -18 13c-6 8 -9 20.667 -9 38c0 21.333 4.66699 43.333 14 66c34 78.667 93.333 129 178 151z" />
    <glyph glyph-name="afii10026" unicode="&#x418;" horiz-adv-x="682" 
d="M250 611c17.333 5.33301 32.3369 7.99512 45.0039 7.99512c25.333 0 47 -10 65 -30c8 -10.667 36.333 -56.334 85 -137.001c133.333 -225.333 208.666 -341.666 225.999 -348.999c7.33301 -3.33301 11 -8.66602 11 -15.999c0 -6 -0.333008 -11.333 -1 -16
c-2 -18.667 -9 -40 -21 -64c-12 -26 -23 -39 -33 -39c-6.66699 0 -15.334 4.33301 -26.001 13c-24.667 20 -108.334 150 -251.001 390l-44 71c-2 -2 -7.66699 -25.667 -17 -71c-10.667 -50.667 -27 -120 -49 -208c-18.667 -76.667 -33.5 -129.667 -44.5 -159
s-22.5 -46.666 -34.5 -51.999c-8.66699 -4 -17.667 -2 -27 6c-16 12.667 -30.333 35.834 -43 69.501s-26.334 84.834 -41.001 153.501c-28 136 -44 246.667 -48 332c-0.666992 11.333 -1 24.666 -1 39.999c0 14.667 1.33301 23.834 4 27.501s8.33398 5.5 17.001 5.5h3
c9.33301 0 16.833 -8.16699 22.5 -24.5s22.167 -75.5 49.5 -177.5l1.5 -3c0.333008 -0.666992 0.666016 -1.66699 0.999023 -3s0.5 -2.66602 0.5 -3.99902c21.333 -78 33.333 -117 36 -117c2 0 13 46 33 138c22.667 100.667 37.5 160.667 44.5 180s19.167 31.333 36.5 36z
" />
    <glyph glyph-name="afii10026" unicode="&#x438;" horiz-adv-x="682" 
d="M250 611c17.333 5.33301 32.3369 7.99512 45.0039 7.99512c25.333 0 47 -10 65 -30c8 -10.667 36.333 -56.334 85 -137.001c133.333 -225.333 208.666 -341.666 225.999 -348.999c7.33301 -3.33301 11 -8.66602 11 -15.999c0 -6 -0.333008 -11.333 -1 -16
c-2 -18.667 -9 -40 -21 -64c-12 -26 -23 -39 -33 -39c-6.66699 0 -15.334 4.33301 -26.001 13c-24.667 20 -108.334 150 -251.001 390l-44 71c-2 -2 -7.66699 -25.667 -17 -71c-10.667 -50.667 -27 -120 -49 -208c-18.667 -76.667 -33.5 -129.667 -44.5 -159
s-22.5 -46.666 -34.5 -51.999c-8.66699 -4 -17.667 -2 -27 6c-16 12.667 -30.333 35.834 -43 69.501s-26.334 84.834 -41.001 153.501c-28 136 -44 246.667 -48 332c-0.666992 11.333 -1 24.666 -1 39.999c0 14.667 1.33301 23.834 4 27.501s8.33398 5.5 17.001 5.5h3
c9.33301 0 16.833 -8.16699 22.5 -24.5s22.167 -75.5 49.5 -177.5l1.5 -3c0.333008 -0.666992 0.666016 -1.66699 0.999023 -3s0.5 -2.66602 0.5 -3.99902c21.333 -78 33.333 -117 36 -117c2 0 13 46 33 138c22.667 100.667 37.5 160.667 44.5 180s19.167 31.333 36.5 36z
" />
    <glyph glyph-name="afii10027" unicode="&#x419;" horiz-adv-x="537" 
d="M361 928c16.667 3.33301 28.0029 4.99707 34.0029 4.99707c7.33301 0 15.666 -2 24.999 -6c10 -4.66699 15.333 -12.667 16 -24v-5c0 -10 -1.66699 -20 -5 -30c-8.66699 -23.333 -16 -39.166 -22 -47.499s-18 -19.5 -36 -33.5c-158 -122 -239.333 -184.333 -244 -187
c-4 -2 -8.33301 -3 -13 -3c-10.667 0 -19.334 7.66699 -26.001 23c-3.33301 6.66699 -5 12.334 -5 17.001s1.66699 9.33398 5 14.001c13.333 22.667 54.333 70 123 142c66.667 70.667 104.667 110.167 114 118.5s20.666 13.833 33.999 16.5zM279.003 607.997
c6.66699 1.33301 10.666 2.00195 11.999 2.00195c3.33301 0 11 -3.33301 23 -10c13.333 -6.66699 25.166 -19.834 35.499 -39.501s34.5 -74.834 72.5 -165.501l49.5 -118.5l37.5 -89.5c18.667 -44 28 -73.667 28 -89c0 -8.66699 -2.66699 -21.667 -8 -39
c-12 -37.333 -24.667 -56 -38 -56c-8.66699 0 -18.334 5.33301 -29.001 16c-12 12 -26 34.5 -42 67.5s-42.667 94.833 -80 185.5c-40 95.333 -61 143 -63 143l-4 -11l-12.5 -36.5l-14.5 -42.5c-56 -170.667 -95 -268.334 -117 -293.001c-6 -6 -11.667 -9 -17 -9
c-7.33301 0 -16.166 5.16699 -26.499 15.5s-19.5 23.5 -27.5 39.5c-7.33301 14.667 -12 26.5 -14 35.5s-4 29.167 -6 60.5c-10 147.333 -21.333 265.333 -34 354c-2 14 -3 24 -3 30c0 6.66699 1 11 3 13c4 4 10.667 6 20 6c12 0 20.667 -2.66699 26 -8
c7.33301 -7.33301 16.5 -31.166 27.5 -71.499s20.333 -78.5 28 -114.5s11.834 -54 12.501 -54c1.33301 0 8.33301 21 21 63s26.834 85 42.501 129s27.5 68 35.5 72c4 2 24.667 7 62 15z" />
    <glyph glyph-name="afii10027" unicode="&#x439;" horiz-adv-x="537" 
d="M361 928c16.667 3.33301 28.0029 4.99707 34.0029 4.99707c7.33301 0 15.666 -2 24.999 -6c10 -4.66699 15.333 -12.667 16 -24v-5c0 -10 -1.66699 -20 -5 -30c-8.66699 -23.333 -16 -39.166 -22 -47.499s-18 -19.5 -36 -33.5c-158 -122 -239.333 -184.333 -244 -187
c-4 -2 -8.33301 -3 -13 -3c-10.667 0 -19.334 7.66699 -26.001 23c-3.33301 6.66699 -5 12.334 -5 17.001s1.66699 9.33398 5 14.001c13.333 22.667 54.333 70 123 142c66.667 70.667 104.667 110.167 114 118.5s20.666 13.833 33.999 16.5zM279.003 607.997
c6.66699 1.33301 10.666 2.00195 11.999 2.00195c3.33301 0 11 -3.33301 23 -10c13.333 -6.66699 25.166 -19.834 35.499 -39.501s34.5 -74.834 72.5 -165.501l49.5 -118.5l37.5 -89.5c18.667 -44 28 -73.667 28 -89c0 -8.66699 -2.66699 -21.667 -8 -39
c-12 -37.333 -24.667 -56 -38 -56c-8.66699 0 -18.334 5.33301 -29.001 16c-12 12 -26 34.5 -42 67.5s-42.667 94.833 -80 185.5c-40 95.333 -61 143 -63 143l-4 -11l-12.5 -36.5l-14.5 -42.5c-56 -170.667 -95 -268.334 -117 -293.001c-6 -6 -11.667 -9 -17 -9
c-7.33301 0 -16.166 5.16699 -26.499 15.5s-19.5 23.5 -27.5 39.5c-7.33301 14.667 -12 26.5 -14 35.5s-4 29.167 -6 60.5c-10 147.333 -21.333 265.333 -34 354c-2 14 -3 24 -3 30c0 6.66699 1 11 3 13c4 4 10.667 6 20 6c12 0 20.667 -2.66699 26 -8
c7.33301 -7.33301 16.5 -31.166 27.5 -71.499s20.333 -78.5 28 -114.5s11.834 -54 12.501 -54c1.33301 0 8.33301 21 21 63s26.834 85 42.501 129s27.5 68 35.5 72c4 2 24.667 7 62 15z" />
    <glyph glyph-name="afii10028" unicode="&#x41a;" horiz-adv-x="587" 
d="M381 712c18.667 5.33301 32.333 8 41 8c10.667 0 22 -2.33301 34 -7c8 -3.33301 12.667 -6.33301 14 -9s2 -9.66699 2 -21c0 -22.667 -19.333 -82 -58 -178c-28 -70.667 -46.333 -119 -55 -145l-17 -48l32 -33c20.667 -20 56.334 -50.333 107.001 -91s81 -63 91 -67
l15 -6l-3 -28c-0.666992 -10 -1.5 -17.333 -2.5 -22s-2.83301 -9.66699 -5.5 -15s-5 -11 -7 -17c-8.66699 -27.333 -20.667 -41 -36 -41c-5.33301 0 -10.666 1.33301 -15.999 4c-8.66699 4.66699 -33.5 23 -74.5 55l-106.5 86l-46 40l-11 -28
c-26.667 -67.333 -49.667 -101 -69 -101c-18 0 -36.667 17.333 -56 52c-13.333 23.333 -35.333 89.333 -66 198l-40 138.5l-29 100.5c-12 38.667 -18 63 -18 73c0 2 0.333008 3.33301 1 4c2.66699 3.33301 7.66699 5 15 5c9.33301 0 16.666 -2.66699 21.999 -8
c19.333 -19.333 70.666 -136.333 153.999 -351c0 -1.33301 0.666992 -2 2 -2c2 0 16.333 42 43 126c6.66699 20 25 69.333 55 148s49.667 129 59 151c5.33301 11.333 9.5 18.5 12.5 21.5s8.5 5.5 16.5 7.5z" />
    <glyph glyph-name="afii10028" unicode="&#x43a;" horiz-adv-x="587" 
d="M381 712c18.667 5.33301 32.333 8 41 8c10.667 0 22 -2.33301 34 -7c8 -3.33301 12.667 -6.33301 14 -9s2 -9.66699 2 -21c0 -22.667 -19.333 -82 -58 -178c-28 -70.667 -46.333 -119 -55 -145l-17 -48l32 -33c20.667 -20 56.334 -50.333 107.001 -91s81 -63 91 -67
l15 -6l-3 -28c-0.666992 -10 -1.5 -17.333 -2.5 -22s-2.83301 -9.66699 -5.5 -15s-5 -11 -7 -17c-8.66699 -27.333 -20.667 -41 -36 -41c-5.33301 0 -10.666 1.33301 -15.999 4c-8.66699 4.66699 -33.5 23 -74.5 55l-106.5 86l-46 40l-11 -28
c-26.667 -67.333 -49.667 -101 -69 -101c-18 0 -36.667 17.333 -56 52c-13.333 23.333 -35.333 89.333 -66 198l-40 138.5l-29 100.5c-12 38.667 -18 63 -18 73c0 2 0.333008 3.33301 1 4c2.66699 3.33301 7.66699 5 15 5c9.33301 0 16.666 -2.66699 21.999 -8
c19.333 -19.333 70.666 -136.333 153.999 -351c0 -1.33301 0.666992 -2 2 -2c2 0 16.333 42 43 126c6.66699 20 25 69.333 55 148s49.667 129 59 151c5.33301 11.333 9.5 18.5 12.5 21.5s8.5 5.5 16.5 7.5z" />
    <glyph glyph-name="afii10029" unicode="&#x41b;" horiz-adv-x="498" 
d="M43 655c18 4 30.3369 6.00098 37.0039 6.00098c5.33301 0 9.66602 -2 12.999 -6c4 -4 8.66699 -6 14 -6c4 0 11.667 -8.66699 23 -26c80 -132 170.333 -258 271 -378c22.667 -26.667 39.167 -45 49.5 -55s21.166 -17.333 32.499 -22l15 -7l-2 -26
c-0.666992 -10.667 -1.66699 -18.834 -3 -24.501s-3.83301 -12.167 -7.5 -19.5s-6.5 -14 -8.5 -20c-9.33301 -23.333 -21 -35 -35 -35c-0.666992 0 -1.5 0.166992 -2.5 0.5s-1.83301 0.5 -2.5 0.5c-6.66699 1.33301 -19.834 10 -39.501 26s-37.167 32.667 -52.5 50
c-36 38.667 -86 102.334 -150 191.001l-24 33l-21.5 29.5c-5 7 -8.16699 11.5 -9.5 13.5l-8 10l-2 -27c-2 -28 -4.33301 -58.333 -7 -91c-8.66699 -110.667 -22.334 -186 -41.001 -226c-8 -15.333 -15.333 -23 -22 -23c-1.33301 0 -2.33301 0.333008 -3 1
c-1.33301 1.33301 -2 17.666 -2 48.999v33v33c0 88 -4.66699 177.833 -14 269.5s-20 153.5 -32 185.5c-5.33301 12 -8 21.667 -8 29c0 15.333 14 26 42 32z" />
    <glyph glyph-name="afii10029" unicode="&#x43b;" horiz-adv-x="498" 
d="M43 655c18 4 30.3369 6.00098 37.0039 6.00098c5.33301 0 9.66602 -2 12.999 -6c4 -4 8.66699 -6 14 -6c4 0 11.667 -8.66699 23 -26c80 -132 170.333 -258 271 -378c22.667 -26.667 39.167 -45 49.5 -55s21.166 -17.333 32.499 -22l15 -7l-2 -26
c-0.666992 -10.667 -1.66699 -18.834 -3 -24.501s-3.83301 -12.167 -7.5 -19.5s-6.5 -14 -8.5 -20c-9.33301 -23.333 -21 -35 -35 -35c-0.666992 0 -1.5 0.166992 -2.5 0.5s-1.83301 0.5 -2.5 0.5c-6.66699 1.33301 -19.834 10 -39.501 26s-37.167 32.667 -52.5 50
c-36 38.667 -86 102.334 -150 191.001l-24 33l-21.5 29.5c-5 7 -8.16699 11.5 -9.5 13.5l-8 10l-2 -27c-2 -28 -4.33301 -58.333 -7 -91c-8.66699 -110.667 -22.334 -186 -41.001 -226c-8 -15.333 -15.333 -23 -22 -23c-1.33301 0 -2.33301 0.333008 -3 1
c-1.33301 1.33301 -2 17.666 -2 48.999v33v33c0 88 -4.66699 177.833 -14 269.5s-20 153.5 -32 185.5c-5.33301 12 -8 21.667 -8 29c0 15.333 14 26 42 32z" />
    <glyph glyph-name="afii10030" unicode="&#x41c;" horiz-adv-x="721" 
d="M56 682c14.667 2.66699 22.333 3.99902 23 3.99902c6 0 10.333 -2 13 -6c4 -4 8.33301 -6 13 -6c5.33301 0 11.333 -4.66699 18 -14c1.33301 -2 40.666 -70.667 117.999 -206s117 -204.333 119 -207c4.66699 -9.33301 7.66699 -14 9 -14c2 0 7 22 15 66
c31.333 172 51 273 59 303c3.33301 12.667 7.5 20.5 12.5 23.5s18.833 6.5 41.5 10.5c11.333 2 19.333 3 24 3c7.33301 0 16 -2.33301 26 -7c9.33301 -4 15.333 -7.5 18 -10.5s5.33398 -9.5 8.00098 -19.5c19.333 -70.667 38.333 -146 57 -226
c42.667 -179.333 66 -270.666 70 -273.999c14.667 -11.333 22 -29 22 -53c0 -0.666992 -0.166992 -2 -0.5 -4s-0.5 -3.66699 -0.5 -5c-0.666992 -11.333 -1.66699 -19.333 -3 -24s-4.16602 -11.5 -8.49902 -20.5l-10.5 -21.5c-8.66699 -18 -17 -27 -25 -27
c-6.66699 0 -16 6 -28 18c-38.667 37.333 -66.334 89.666 -83.001 156.999l-49 206c-9.33301 -46 -19 -96.667 -29 -152c-14 -76 -23.667 -125 -29 -147s-12.666 -42 -21.999 -60c-9.33301 -17.333 -18.333 -26 -27 -26c-7.33301 0 -16.666 4.66699 -27.999 14
c-10.667 10 -22.334 28 -35.001 54c-32 68 -74 146.667 -126 236c-32.667 57.333 -50 86 -52 86c-0.666992 0 -1 -1 -1 -3v-7c8.66699 -76 13 -171.667 13 -287c0 -37.333 -1 -59 -3 -65c-2 -3.33301 -4 -5 -6 -5c-5.33301 0 -12 7.66699 -20 23
c-6 11.333 -20 74.666 -42 189.999c-34 182.667 -60.667 305.334 -80 368.001c-17.333 58 -26 91 -26 99c0 4 1 8 3 12c2.66699 6 6.66699 10.333 12 13s18.666 6.33398 39.999 11.001z" />
    <glyph glyph-name="afii10030" unicode="&#x43c;" horiz-adv-x="721" 
d="M56 682c14.667 2.66699 22.333 3.99902 23 3.99902c6 0 10.333 -2 13 -6c4 -4 8.33301 -6 13 -6c5.33301 0 11.333 -4.66699 18 -14c1.33301 -2 40.666 -70.667 117.999 -206s117 -204.333 119 -207c4.66699 -9.33301 7.66699 -14 9 -14c2 0 7 22 15 66
c31.333 172 51 273 59 303c3.33301 12.667 7.5 20.5 12.5 23.5s18.833 6.5 41.5 10.5c11.333 2 19.333 3 24 3c7.33301 0 16 -2.33301 26 -7c9.33301 -4 15.333 -7.5 18 -10.5s5.33398 -9.5 8.00098 -19.5c19.333 -70.667 38.333 -146 57 -226
c42.667 -179.333 66 -270.666 70 -273.999c14.667 -11.333 22 -29 22 -53c0 -0.666992 -0.166992 -2 -0.5 -4s-0.5 -3.66699 -0.5 -5c-0.666992 -11.333 -1.66699 -19.333 -3 -24s-4.16602 -11.5 -8.49902 -20.5l-10.5 -21.5c-8.66699 -18 -17 -27 -25 -27
c-6.66699 0 -16 6 -28 18c-38.667 37.333 -66.334 89.666 -83.001 156.999l-49 206c-9.33301 -46 -19 -96.667 -29 -152c-14 -76 -23.667 -125 -29 -147s-12.666 -42 -21.999 -60c-9.33301 -17.333 -18.333 -26 -27 -26c-7.33301 0 -16.666 4.66699 -27.999 14
c-10.667 10 -22.334 28 -35.001 54c-32 68 -74 146.667 -126 236c-32.667 57.333 -50 86 -52 86c-0.666992 0 -1 -1 -1 -3v-7c8.66699 -76 13 -171.667 13 -287c0 -37.333 -1 -59 -3 -65c-2 -3.33301 -4 -5 -6 -5c-5.33301 0 -12 7.66699 -20 23
c-6 11.333 -20 74.666 -42 189.999c-34 182.667 -60.667 305.334 -80 368.001c-17.333 58 -26 91 -26 99c0 4 1 8 3 12c2.66699 6 6.66699 10.333 12 13s18.666 6.33398 39.999 11.001z" />
    <glyph glyph-name="afii10031" unicode="&#x41d;" horiz-adv-x="566" 
d="M309 642c4 5.33301 13.5029 9.66797 28.5029 13.001s29.5 5 43.5 5c10 0 16 -0.666992 18 -2c8.66699 -4 13.667 -6.33301 15 -7c8.66699 -2.66699 17.5 -21.334 26.5 -56.001s14.5 -70 16.5 -106c1.33301 -29.333 8.66602 -70.666 21.999 -123.999
c43.333 -174.667 69 -270 77 -286c6.66699 -11.333 10 -25.666 10 -42.999c0 -22.667 -7 -49 -21 -79c-8 -17.333 -16.333 -26 -25 -26c-6 0 -14.333 4.33301 -25 13c-26 21.333 -51.333 79 -76 173c-15.333 58 -24.333 88.667 -27 92s-5 10.333 -7 21
c-2 9.33301 -4.33301 14.666 -7 15.999l-3 -6c0 -2.66699 -15.333 -17 -46 -43c-28.667 -23.333 -46.167 -38.833 -52.5 -46.5s-9.5 -19.167 -9.5 -34.5c0 -10.667 0.333008 -19.667 1 -27s1 -16.333 1 -27c0 -8 -0.5 -14.833 -1.5 -20.5s-1.83301 -10 -2.5 -13
s-2.5 -7.83301 -5.5 -14.5s-5.16699 -12 -6.5 -16c-4 -9.33301 -8.83301 -17.333 -14.5 -24s-10.5 -10 -14.5 -10c-12.667 0.666992 -25.834 14 -39.501 40s-29.834 68.667 -48.501 128l-88.5 299c-31 108.667 -46.5 167 -46.5 175c0 4 2.5 7.5 7.5 10.5
s9.5 3.16699 13.5 0.5c7.33301 -4.66699 37 -72.334 89 -203.001c36.667 -94.667 59 -149.667 67 -165c1.33301 -2 2.33301 -3.33301 3 -4s1.66699 -0.666992 3 0s3 2 5 4s4.66699 5.33301 8 10c10.667 13.333 28.667 30.333 54 51c43.333 36 69.333 70.667 78 104
c2 6 3 12.333 3 19c0 7.33301 -4 31.333 -12 72c-10 54 -15 91.667 -15 113c0 12.667 1.33301 20.667 4 24z" />
    <glyph glyph-name="afii10031" unicode="&#x43d;" horiz-adv-x="566" 
d="M309 642c4 5.33301 13.5029 9.66797 28.5029 13.001s29.5 5 43.5 5c10 0 16 -0.666992 18 -2c8.66699 -4 13.667 -6.33301 15 -7c8.66699 -2.66699 17.5 -21.334 26.5 -56.001s14.5 -70 16.5 -106c1.33301 -29.333 8.66602 -70.666 21.999 -123.999
c43.333 -174.667 69 -270 77 -286c6.66699 -11.333 10 -25.666 10 -42.999c0 -22.667 -7 -49 -21 -79c-8 -17.333 -16.333 -26 -25 -26c-6 0 -14.333 4.33301 -25 13c-26 21.333 -51.333 79 -76 173c-15.333 58 -24.333 88.667 -27 92s-5 10.333 -7 21
c-2 9.33301 -4.33301 14.666 -7 15.999l-3 -6c0 -2.66699 -15.333 -17 -46 -43c-28.667 -23.333 -46.167 -38.833 -52.5 -46.5s-9.5 -19.167 -9.5 -34.5c0 -10.667 0.333008 -19.667 1 -27s1 -16.333 1 -27c0 -8 -0.5 -14.833 -1.5 -20.5s-1.83301 -10 -2.5 -13
s-2.5 -7.83301 -5.5 -14.5s-5.16699 -12 -6.5 -16c-4 -9.33301 -8.83301 -17.333 -14.5 -24s-10.5 -10 -14.5 -10c-12.667 0.666992 -25.834 14 -39.501 40s-29.834 68.667 -48.501 128l-88.5 299c-31 108.667 -46.5 167 -46.5 175c0 4 2.5 7.5 7.5 10.5
s9.5 3.16699 13.5 0.5c7.33301 -4.66699 37 -72.334 89 -203.001c36.667 -94.667 59 -149.667 67 -165c1.33301 -2 2.33301 -3.33301 3 -4s1.66699 -0.666992 3 0s3 2 5 4s4.66699 5.33301 8 10c10.667 13.333 28.667 30.333 54 51c43.333 36 69.333 70.667 78 104
c2 6 3 12.333 3 19c0 7.33301 -4 31.333 -12 72c-10 54 -15 91.667 -15 113c0 12.667 1.33301 20.667 4 24z" />
    <glyph glyph-name="afii10032" unicode="&#x41e;" horiz-adv-x="623" 
d="M479 456c-18 8 -42.334 11.999 -73.001 11.999c-25.333 0 -49.666 -3.33301 -72.999 -10c-36 -11.333 -73 -28.333 -111 -51c-24.667 -15.333 -43 -23.666 -55 -24.999c-7.33301 -1.33301 -13 -3.66602 -17 -6.99902s-9.66699 -10.666 -17 -21.999
c-30.667 -46.667 -46 -84.334 -46 -113.001c0 -22.667 9.66699 -44.334 29 -65.001c18 -18 48.667 -27 92 -27c22.667 0 43.334 3 62.001 9c60.667 20.667 112.167 53.167 154.5 97.5s68.166 92.833 77.499 145.5c2 10 3 18 3 24c0 13.333 -8.66699 24 -26 32z
M365.999 604.999c18.667 3.33301 35.332 5.00293 49.999 5.00293c40.667 0 81 -11 121 -33c44 -24.667 71 -59.334 81 -104.001c2.66699 -12.667 4 -28 4 -46c0 -48.667 -11.833 -99.834 -35.5 -153.501s-54.5 -98.167 -92.5 -133.5
c-74.667 -70.667 -163.667 -108 -267 -112c-2.66699 0 -6.5 -0.166992 -11.5 -0.5s-8.5 -0.5 -10.5 -0.5c-45.333 0 -83.333 11.667 -114 35c-29.333 21.333 -52.666 50 -69.999 86c-13.333 28 -20 52.667 -20 74c0 16.667 3.33301 34.667 10 54c14 40 35 77.333 63 112
c18 21.333 28.667 38.333 32 51c8 27.333 21.667 49.666 41 66.999c57.333 50.667 130.333 83.667 219 99z" />
    <glyph glyph-name="afii10032" unicode="&#x43e;" horiz-adv-x="623" 
d="M479 456c-18 8 -42.334 11.999 -73.001 11.999c-25.333 0 -49.666 -3.33301 -72.999 -10c-36 -11.333 -73 -28.333 -111 -51c-24.667 -15.333 -43 -23.666 -55 -24.999c-7.33301 -1.33301 -13 -3.66602 -17 -6.99902s-9.66699 -10.666 -17 -21.999
c-30.667 -46.667 -46 -84.334 -46 -113.001c0 -22.667 9.66699 -44.334 29 -65.001c18 -18 48.667 -27 92 -27c22.667 0 43.334 3 62.001 9c60.667 20.667 112.167 53.167 154.5 97.5s68.166 92.833 77.499 145.5c2 10 3 18 3 24c0 13.333 -8.66699 24 -26 32z
M365.999 604.999c18.667 3.33301 35.332 5.00293 49.999 5.00293c40.667 0 81 -11 121 -33c44 -24.667 71 -59.334 81 -104.001c2.66699 -12.667 4 -28 4 -46c0 -48.667 -11.833 -99.834 -35.5 -153.501s-54.5 -98.167 -92.5 -133.5
c-74.667 -70.667 -163.667 -108 -267 -112c-2.66699 0 -6.5 -0.166992 -11.5 -0.5s-8.5 -0.5 -10.5 -0.5c-45.333 0 -83.333 11.667 -114 35c-29.333 21.333 -52.666 50 -69.999 86c-13.333 28 -20 52.667 -20 74c0 16.667 3.33301 34.667 10 54c14 40 35 77.333 63 112
c18 21.333 28.667 38.333 32 51c8 27.333 21.667 49.666 41 66.999c57.333 50.667 130.333 83.667 219 99z" />
    <glyph glyph-name="afii10033" unicode="&#x41f;" horiz-adv-x="614" 
d="M440 659c4.66699 1.33301 12 1.99805 22 1.99805c16 0 31 -2.66699 45 -8s22.333 -11.666 25 -18.999c2 -5.33301 3.66699 -53.666 5 -144.999c2.66699 -126 9.66699 -230.333 21 -313c6 -44.667 9 -80 9 -106c0 -18 -1.33301 -29.667 -4 -35
c-12 -25.333 -20.667 -42.333 -26 -51s-11 -13 -17 -13c-4.66699 0 -11 3 -19 9c-9.33301 7.33301 -20 21.333 -32 42c-8 14 -13.333 26 -16 36s-6.33398 30.333 -11.001 61c-18.667 129.333 -28 249 -28 359v37l-11 -2c-18.667 -4.66699 -57.5 -11.167 -116.5 -19.5
s-93.5 -12.5 -103.5 -12.5c-0.666992 0 -0.5 -1.83301 0.5 -5.5s2.66699 -8.5 5 -14.5l7.5 -19c22 -50 40.167 -110 54.5 -180s21.5 -130.667 21.5 -182c0 -34 -3.33301 -58.667 -10 -74c-7.33301 -18.667 -14.333 -28 -21 -28c-4 0 -7.66699 1.66699 -11 5
c-13.333 11.333 -26 44.333 -38 99c-38 175.333 -82.333 300 -133 374c-38.667 56.667 -58 96 -58 118c0 8 3 14.667 9 20c14 12 54.333 19.667 121 23c38 2 89.833 7.5 155.5 16.5s116.834 17.5 153.501 25.5z" />
    <glyph glyph-name="afii10033" unicode="&#x43f;" horiz-adv-x="614" 
d="M440 659c4.66699 1.33301 12 1.99805 22 1.99805c16 0 31 -2.66699 45 -8s22.333 -11.666 25 -18.999c2 -5.33301 3.66699 -53.666 5 -144.999c2.66699 -126 9.66699 -230.333 21 -313c6 -44.667 9 -80 9 -106c0 -18 -1.33301 -29.667 -4 -35
c-12 -25.333 -20.667 -42.333 -26 -51s-11 -13 -17 -13c-4.66699 0 -11 3 -19 9c-9.33301 7.33301 -20 21.333 -32 42c-8 14 -13.333 26 -16 36s-6.33398 30.333 -11.001 61c-18.667 129.333 -28 249 -28 359v37l-11 -2c-18.667 -4.66699 -57.5 -11.167 -116.5 -19.5
s-93.5 -12.5 -103.5 -12.5c-0.666992 0 -0.5 -1.83301 0.5 -5.5s2.66699 -8.5 5 -14.5l7.5 -19c22 -50 40.167 -110 54.5 -180s21.5 -130.667 21.5 -182c0 -34 -3.33301 -58.667 -10 -74c-7.33301 -18.667 -14.333 -28 -21 -28c-4 0 -7.66699 1.66699 -11 5
c-13.333 11.333 -26 44.333 -38 99c-38 175.333 -82.333 300 -133 374c-38.667 56.667 -58 96 -58 118c0 8 3 14.667 9 20c14 12 54.333 19.667 121 23c38 2 89.833 7.5 155.5 16.5s116.834 17.5 153.501 25.5z" />
    <glyph glyph-name="afii10034" unicode="&#x420;" horiz-adv-x="513" 
d="M226 688c10.667 1.33301 22 2.00195 34 2.00195c30.667 0 58 -2 82 -6c20 -4 43 -12.5 69 -25.5s45.667 -25.5 59 -37.5c15.333 -15.333 26 -29.333 32 -42c7.33301 -14.667 11 -36 11 -64c0 -26.667 -3.33301 -50 -10 -70c-6 -19.333 -15.167 -41.333 -27.5 -66
s-23.5 -43 -33.5 -55c-25.333 -31.333 -56.666 -56 -93.999 -74c-16.667 -8.66699 -37.5 -16.5 -62.5 -23.5s-44.833 -10.5 -59.5 -10.5c-17.333 0 -31.833 4.5 -43.5 13.5s-22.834 24.5 -33.501 46.5c-9.33301 19.333 -14 32 -14 38c0 3.33301 0.333008 6 1 8
c2.66699 8 8.66699 13.833 18 17.5s28.333 7.83398 57 12.501c26 4 50.333 12 73 24c30 15.333 55 34.666 75 57.999s31.333 46.333 34 69c0 1.33301 0.166992 3.16602 0.5 5.49902s0.5 3.83301 0.5 4.5c0 4.66699 -5 10.334 -15 17.001c-28 16 -63.333 25.667 -106 29
c-4 0.666992 -10 1 -18 1c-38.667 0 -73.667 -8.83301 -105 -26.5s-48.333 -38.834 -51 -63.501c-0.666992 -4 -1 -11 -1 -21c0 -44.667 20 -136.334 60 -275.001c23.333 -78.667 35.666 -127.667 36.999 -147c0.666992 -2.66699 1 -6.66699 1 -12
c0 -19.333 -4.33301 -29 -13 -29h-1c-6 1.33301 -27.167 41 -63.5 119s-62.166 138.667 -77.499 182c-26.667 76 -40 137.333 -40 184c0 34.667 7 67 21 97c30 63.333 98 103.333 204 120z" />
    <glyph glyph-name="afii10034" unicode="&#x440;" horiz-adv-x="513" 
d="M226 688c10.667 1.33301 22 2.00195 34 2.00195c30.667 0 58 -2 82 -6c20 -4 43 -12.5 69 -25.5s45.667 -25.5 59 -37.5c15.333 -15.333 26 -29.333 32 -42c7.33301 -14.667 11 -36 11 -64c0 -26.667 -3.33301 -50 -10 -70c-6 -19.333 -15.167 -41.333 -27.5 -66
s-23.5 -43 -33.5 -55c-25.333 -31.333 -56.666 -56 -93.999 -74c-16.667 -8.66699 -37.5 -16.5 -62.5 -23.5s-44.833 -10.5 -59.5 -10.5c-17.333 0 -31.833 4.5 -43.5 13.5s-22.834 24.5 -33.501 46.5c-9.33301 19.333 -14 32 -14 38c0 3.33301 0.333008 6 1 8
c2.66699 8 8.66699 13.833 18 17.5s28.333 7.83398 57 12.501c26 4 50.333 12 73 24c30 15.333 55 34.666 75 57.999s31.333 46.333 34 69c0 1.33301 0.166992 3.16602 0.5 5.49902s0.5 3.83301 0.5 4.5c0 4.66699 -5 10.334 -15 17.001c-28 16 -63.333 25.667 -106 29
c-4 0.666992 -10 1 -18 1c-38.667 0 -73.667 -8.83301 -105 -26.5s-48.333 -38.834 -51 -63.501c-0.666992 -4 -1 -11 -1 -21c0 -44.667 20 -136.334 60 -275.001c23.333 -78.667 35.666 -127.667 36.999 -147c0.666992 -2.66699 1 -6.66699 1 -12
c0 -19.333 -4.33301 -29 -13 -29h-1c-6 1.33301 -27.167 41 -63.5 119s-62.166 138.667 -77.499 182c-26.667 76 -40 137.333 -40 184c0 34.667 7 67 21 97c30 63.333 98 103.333 204 120z" />
    <glyph glyph-name="afii10035" unicode="&#x421;" horiz-adv-x="648" 
d="M367 623c10 2 24.3252 2.99707 42.9922 2.99707h10c26.667 -0.666992 50.334 -7 71.001 -19s33.334 -26 38.001 -42c2.66699 -8.66699 4 -19 4 -31c0 -32 -9.5 -61.5 -28.5 -88.5s-40.5 -40.5 -64.5 -40.5h-17l15 17c20 22.667 31.667 47.667 35 75
c0 1.33301 0.166992 3.33301 0.5 6s0.5 4.33398 0.5 5.00098c0 7.33301 -2.66699 11.666 -8 12.999s-18 2 -38 2c-40 0 -85.333 -15 -136 -45c-33.333 -19.333 -67.666 -49.5 -102.999 -90.5s-57.333 -75.5 -66 -103.5c-4.66699 -16 -7 -31 -7 -45
c0 -35.333 10 -67.666 30 -96.999c30.667 -44.667 81.334 -67 152.001 -67c18.667 0 31.5 0.666992 38.5 2s17.167 5.33301 30.5 12c33.333 16 59.5 35.167 78.5 57.5s38.5 56.5 58.5 102.5c16 36.667 27 58 33 64c4.66699 4.66699 18.334 9.33398 41.001 14.001
c14 3.33301 24.667 5 32 5c4.66699 0 8.33398 -1.33301 11.001 -4c4.66699 -4.66699 9.33398 -7 14.001 -7c8.66699 0 13 -8.66699 13 -26c0 -3.33301 -0.666992 -9.66602 -2 -18.999c-4 -22 -18.5 -59.667 -43.5 -113s-45.833 -91.333 -62.5 -114
c-24.667 -33.333 -57.5 -59.833 -98.5 -79.5s-86.167 -30.834 -135.5 -33.501c-2 0 -5.16699 -0.166992 -9.5 -0.5s-7.5 -0.5 -9.5 -0.5c-78 0 -146 30.333 -204 91c-10 10.667 -23 30 -39 58s-26.667 50.333 -32 67c-7.33301 22 -11 47.333 -11 76
c0 76.667 28.333 152.334 85 227.001c68.667 90.667 162.334 147 281.001 169z" />
    <glyph glyph-name="afii10035" unicode="&#x441;" horiz-adv-x="648" 
d="M367 623c10 2 24.3252 2.99707 42.9922 2.99707h10c26.667 -0.666992 50.334 -7 71.001 -19s33.334 -26 38.001 -42c2.66699 -8.66699 4 -19 4 -31c0 -32 -9.5 -61.5 -28.5 -88.5s-40.5 -40.5 -64.5 -40.5h-17l15 17c20 22.667 31.667 47.667 35 75
c0 1.33301 0.166992 3.33301 0.5 6s0.5 4.33398 0.5 5.00098c0 7.33301 -2.66699 11.666 -8 12.999s-18 2 -38 2c-40 0 -85.333 -15 -136 -45c-33.333 -19.333 -67.666 -49.5 -102.999 -90.5s-57.333 -75.5 -66 -103.5c-4.66699 -16 -7 -31 -7 -45
c0 -35.333 10 -67.666 30 -96.999c30.667 -44.667 81.334 -67 152.001 -67c18.667 0 31.5 0.666992 38.5 2s17.167 5.33301 30.5 12c33.333 16 59.5 35.167 78.5 57.5s38.5 56.5 58.5 102.5c16 36.667 27 58 33 64c4.66699 4.66699 18.334 9.33398 41.001 14.001
c14 3.33301 24.667 5 32 5c4.66699 0 8.33398 -1.33301 11.001 -4c4.66699 -4.66699 9.33398 -7 14.001 -7c8.66699 0 13 -8.66699 13 -26c0 -3.33301 -0.666992 -9.66602 -2 -18.999c-4 -22 -18.5 -59.667 -43.5 -113s-45.833 -91.333 -62.5 -114
c-24.667 -33.333 -57.5 -59.833 -98.5 -79.5s-86.167 -30.834 -135.5 -33.501c-2 0 -5.16699 -0.166992 -9.5 -0.5s-7.5 -0.5 -9.5 -0.5c-78 0 -146 30.333 -204 91c-10 10.667 -23 30 -39 58s-26.667 50.333 -32 67c-7.33301 22 -11 47.333 -11 76
c0 76.667 28.333 152.334 85 227.001c68.667 90.667 162.334 147 281.001 169z" />
    <glyph glyph-name="afii10036" unicode="&#x422;" horiz-adv-x="676" 
d="M8 562c4 4 9.66016 5.99707 16.9932 5.99707c8.66699 0 15.667 -3 21 -9c6.66699 -8.66699 16.334 -32.334 29.001 -71.001c14.667 -41.333 22.334 -62 23.001 -62s3.66699 6.66699 9 20s12.833 28.5 22.5 45.5s19.5 29.167 29.5 36.5c10 6.66699 26.333 13 49 19
s42.334 9 59.001 9s33.667 -4.33301 51 -13c24 -12 43 -27.333 57 -46l11 -16l5 10c7.33301 12 26.666 21.667 57.999 29c19.333 4 34 6 44 6c11.333 0 23.333 -3.33301 36 -10c14 -8 24 -14.833 30 -20.5s13.333 -16.167 22 -31.5c32.667 -57.333 60 -149.666 82 -276.999
c8.66699 -47.333 13 -81.666 13 -102.999c0 -13.333 -2.33301 -24.666 -7 -33.999l-11 -28c-8 -22.667 -18.333 -34 -31 -34c-16 0 -33 16.667 -51 50c-8 14 -13.667 27.167 -17 39.5s-8.66602 40.5 -15.999 84.5c-16 91.333 -34.333 162 -55 212l-5 12l-4 -12
c-3.33301 -8.66699 -5 -60.667 -5 -156c0 -94.667 -2 -145 -6 -151c-4 -6.66699 -7.66699 -16.667 -11 -30c-7.33301 -23.333 -17.333 -35 -30 -35c-4.66699 0 -13.167 4.83301 -25.5 14.5s-18.5 16.167 -18.5 19.5c0 2.66699 -3 9.33398 -9 20.001
c-11.333 18.667 -21.666 51.334 -30.999 98.001c-28 145.333 -46.333 226.333 -55 243c-6.66699 13.333 -17 20 -31 20c-3.33301 0 -5.66602 -0.333008 -6.99902 -1c-6 -1.33301 -14 -6.5 -24 -15.5s-14.667 -15.167 -14 -18.5c0 -4.66699 -1.66699 -16 -5 -34
c-4 -20 -6 -68.333 -6 -145c0 -24.667 0.666992 -63.667 2 -117c0.666992 -10.667 1 -22.667 1 -36c0 -16 -3.66699 -32.667 -11 -50c-13.333 -32.667 -26 -49 -38 -49c-11.333 0 -24.666 11.333 -39.999 34s-26.666 48 -33.999 76
c-12.667 47.333 -29.167 132.166 -49.5 254.499s-30.5 197.833 -30.5 226.5c0 10 2.33301 16.667 7 20z" />
    <glyph glyph-name="afii10036" unicode="&#x442;" horiz-adv-x="676" 
d="M8 562c4 4 9.66016 5.99707 16.9932 5.99707c8.66699 0 15.667 -3 21 -9c6.66699 -8.66699 16.334 -32.334 29.001 -71.001c14.667 -41.333 22.334 -62 23.001 -62s3.66699 6.66699 9 20s12.833 28.5 22.5 45.5s19.5 29.167 29.5 36.5c10 6.66699 26.333 13 49 19
s42.334 9 59.001 9s33.667 -4.33301 51 -13c24 -12 43 -27.333 57 -46l11 -16l5 10c7.33301 12 26.666 21.667 57.999 29c19.333 4 34 6 44 6c11.333 0 23.333 -3.33301 36 -10c14 -8 24 -14.833 30 -20.5s13.333 -16.167 22 -31.5c32.667 -57.333 60 -149.666 82 -276.999
c8.66699 -47.333 13 -81.666 13 -102.999c0 -13.333 -2.33301 -24.666 -7 -33.999l-11 -28c-8 -22.667 -18.333 -34 -31 -34c-16 0 -33 16.667 -51 50c-8 14 -13.667 27.167 -17 39.5s-8.66602 40.5 -15.999 84.5c-16 91.333 -34.333 162 -55 212l-5 12l-4 -12
c-3.33301 -8.66699 -5 -60.667 -5 -156c0 -94.667 -2 -145 -6 -151c-4 -6.66699 -7.66699 -16.667 -11 -30c-7.33301 -23.333 -17.333 -35 -30 -35c-4.66699 0 -13.167 4.83301 -25.5 14.5s-18.5 16.167 -18.5 19.5c0 2.66699 -3 9.33398 -9 20.001
c-11.333 18.667 -21.666 51.334 -30.999 98.001c-28 145.333 -46.333 226.333 -55 243c-6.66699 13.333 -17 20 -31 20c-3.33301 0 -5.66602 -0.333008 -6.99902 -1c-6 -1.33301 -14 -6.5 -24 -15.5s-14.667 -15.167 -14 -18.5c0 -4.66699 -1.66699 -16 -5 -34
c-4 -20 -6 -68.333 -6 -145c0 -24.667 0.666992 -63.667 2 -117c0.666992 -10.667 1 -22.667 1 -36c0 -16 -3.66699 -32.667 -11 -50c-13.333 -32.667 -26 -49 -38 -49c-11.333 0 -24.666 11.333 -39.999 34s-26.666 48 -33.999 76
c-12.667 47.333 -29.167 132.166 -49.5 254.499s-30.5 197.833 -30.5 226.5c0 10 2.33301 16.667 7 20z" />
    <glyph glyph-name="afii10037" unicode="&#x423;" horiz-adv-x="523" 
d="M382 595c16 4.66699 31.333 7 46 7c9.33301 0 15 -1.33301 17 -4c1.33301 -2.66699 4.66602 -4 9.99902 -4c10.667 0 20.334 -10.333 29.001 -31c8.66699 -20 19.334 -65 32.001 -135c4.66699 -32.667 7 -67.667 7 -105c0 -38 -2.33301 -68.667 -7 -92
c-16.667 -71.333 -43.334 -126 -80.001 -164c-40 -40.667 -93.333 -61 -160 -61s-122.667 20 -168 60c-12.667 10.667 -25.834 28 -39.501 52s-21.5 42.667 -23.5 56c0 1.33301 -0.166992 3 -0.5 5s-0.5 3.33301 -0.5 4c0 9.33301 2.83301 16.666 8.5 21.999
s15.834 9.66602 30.501 12.999c17.333 4 30 6 38 6c6.66699 0 13.334 -1.66699 20.001 -5c2 -1.33301 4.5 -2.66602 7.5 -3.99902s5.33301 -2.33301 7 -3s3.33398 -2 5.00098 -4s2.83398 -4.66699 3.50098 -8c0.666992 -6.66699 6.16699 -14.167 16.5 -22.5
s21.166 -14.5 32.499 -18.5c14.667 -4.66699 33.667 -7.66699 57 -9c2 0 5 -0.166992 9 -0.5s6.66699 -0.5 8 -0.5c14.667 0 27 2.33301 37 7s21.333 13.667 34 27c30.667 30.667 46 76 46 136c0 13.333 -0.333008 23.666 -1 30.999
c-2.66699 31.333 -4.33398 47 -5.00098 47c-4.66699 0 -12.334 -8.66699 -23.001 -26c-63.333 -91.333 -128 -137 -194 -137c-14.667 0 -27.334 1.66699 -38.001 5c-13.333 4 -27.833 11.667 -43.5 23s-28.834 23.333 -39.501 36c-8.66699 11.333 -18.5 28 -29.5 50
s-18.5 40.667 -22.5 56c-4.66699 16.667 -7 36.667 -7 60c0 42 6.66699 70.333 20 85c4 5.33301 10.667 8 20 8c10 0 16.333 -3 19 -9c2.66699 -5.33301 3.83398 -8.83301 3.50098 -10.5s-3.16602 -2.5 -8.49902 -2.5s-8 -3 -8 -9c0 -0.666992 0.666992 -9 2 -25
c2.66699 -40 15 -76.333 37 -109c23.333 -34.667 48 -52 74 -52c9.33301 0 18.333 2.33301 27 7c12.667 6.66699 29.167 20.334 49.5 41.001s36.5 40.334 48.5 59.001c10 16 25.333 45 46 87l27 55z" />
    <glyph glyph-name="afii10037" unicode="&#x443;" horiz-adv-x="523" 
d="M382 595c16 4.66699 31.333 7 46 7c9.33301 0 15 -1.33301 17 -4c1.33301 -2.66699 4.66602 -4 9.99902 -4c10.667 0 20.334 -10.333 29.001 -31c8.66699 -20 19.334 -65 32.001 -135c4.66699 -32.667 7 -67.667 7 -105c0 -38 -2.33301 -68.667 -7 -92
c-16.667 -71.333 -43.334 -126 -80.001 -164c-40 -40.667 -93.333 -61 -160 -61s-122.667 20 -168 60c-12.667 10.667 -25.834 28 -39.501 52s-21.5 42.667 -23.5 56c0 1.33301 -0.166992 3 -0.5 5s-0.5 3.33301 -0.5 4c0 9.33301 2.83301 16.666 8.5 21.999
s15.834 9.66602 30.501 12.999c17.333 4 30 6 38 6c6.66699 0 13.334 -1.66699 20.001 -5c2 -1.33301 4.5 -2.66602 7.5 -3.99902s5.33301 -2.33301 7 -3s3.33398 -2 5.00098 -4s2.83398 -4.66699 3.50098 -8c0.666992 -6.66699 6.16699 -14.167 16.5 -22.5
s21.166 -14.5 32.499 -18.5c14.667 -4.66699 33.667 -7.66699 57 -9c2 0 5 -0.166992 9 -0.5s6.66699 -0.5 8 -0.5c14.667 0 27 2.33301 37 7s21.333 13.667 34 27c30.667 30.667 46 76 46 136c0 13.333 -0.333008 23.666 -1 30.999
c-2.66699 31.333 -4.33398 47 -5.00098 47c-4.66699 0 -12.334 -8.66699 -23.001 -26c-63.333 -91.333 -128 -137 -194 -137c-14.667 0 -27.334 1.66699 -38.001 5c-13.333 4 -27.833 11.667 -43.5 23s-28.834 23.333 -39.501 36c-8.66699 11.333 -18.5 28 -29.5 50
s-18.5 40.667 -22.5 56c-4.66699 16.667 -7 36.667 -7 60c0 42 6.66699 70.333 20 85c4 5.33301 10.667 8 20 8c10 0 16.333 -3 19 -9c2.66699 -5.33301 3.83398 -8.83301 3.50098 -10.5s-3.16602 -2.5 -8.49902 -2.5s-8 -3 -8 -9c0 -0.666992 0.666992 -9 2 -25
c2.66699 -40 15 -76.333 37 -109c23.333 -34.667 48 -52 74 -52c9.33301 0 18.333 2.33301 27 7c12.667 6.66699 29.167 20.334 49.5 41.001s36.5 40.334 48.5 59.001c10 16 25.333 45 46 87l27 55z" />
    <glyph glyph-name="afii10038" unicode="&#x424;" horiz-adv-x="622" 
d="M439 368c-30.667 10.667 -51.001 16 -61.001 16c-2.66699 0 -4 -0.666992 -4 -2c0 -2.66699 8 -25.167 24 -67.5s24.667 -64.5 26 -66.5c0.666992 -0.666992 1.33398 -1 2.00098 -1c6.66699 0 20.667 12.667 42 38s32 42.333 32 51c0 6 -20.333 16.667 -61 32z
M282.999 269c-24 64 -37.001 98.001 -39.001 102.001l-7 13l-33 -28c-41.333 -34.667 -73.333 -71.334 -96 -110.001c-7.33301 -13.333 -11 -24.666 -11 -33.999c0 -11.333 5.33301 -24 16 -38c12 -16.667 33.667 -25 65 -25c2 0 5.33301 0.166992 10 0.5
s8.33398 0.5 11.001 0.5c17.333 1.33301 38 4.83301 62 10.5s40.667 11.5 50 17.5c1.33301 1.33301 2 2.66602 2 3.99902c0 4 -10 33 -30 87zM262.998 524.001c13.333 3.33301 33.001 4.99902 59.001 4.99902c38 0 73.333 -3.66699 106 -11c51.333 -12 95 -30 131 -54
s56.333 -49 61 -75c1.33301 -10.667 2 -19 2 -25c0 -37.333 -11.333 -78.166 -34 -122.499s-50.667 -79.833 -84 -106.5c-23.333 -18.667 -36.333 -31.334 -39 -38.001c-10.667 -25.333 -16.667 -40.333 -18 -45c-8 -22.667 -18 -34 -30 -34c-11.333 0 -24.333 9 -39 27
l-11 12l-42 -13c-48.667 -14.667 -92.334 -22 -131.001 -22c-75.333 0 -130.333 31.333 -165 94c-18.667 33.333 -28 62 -28 86c0 19.333 6.66699 43 20 71c26 55.333 76.667 107.333 152 156l36 23l-4 18c-2.66699 14 -2 24 2 30s9 10.333 15 13s19.667 6.33398 41 11.001z
" />
    <glyph glyph-name="afii10038" unicode="&#x444;" horiz-adv-x="622" 
d="M439 368c-30.667 10.667 -51.001 16 -61.001 16c-2.66699 0 -4 -0.666992 -4 -2c0 -2.66699 8 -25.167 24 -67.5s24.667 -64.5 26 -66.5c0.666992 -0.666992 1.33398 -1 2.00098 -1c6.66699 0 20.667 12.667 42 38s32 42.333 32 51c0 6 -20.333 16.667 -61 32z
M282.999 269c-24 64 -37.001 98.001 -39.001 102.001l-7 13l-33 -28c-41.333 -34.667 -73.333 -71.334 -96 -110.001c-7.33301 -13.333 -11 -24.666 -11 -33.999c0 -11.333 5.33301 -24 16 -38c12 -16.667 33.667 -25 65 -25c2 0 5.33301 0.166992 10 0.5
s8.33398 0.5 11.001 0.5c17.333 1.33301 38 4.83301 62 10.5s40.667 11.5 50 17.5c1.33301 1.33301 2 2.66602 2 3.99902c0 4 -10 33 -30 87zM262.998 524.001c13.333 3.33301 33.001 4.99902 59.001 4.99902c38 0 73.333 -3.66699 106 -11c51.333 -12 95 -30 131 -54
s56.333 -49 61 -75c1.33301 -10.667 2 -19 2 -25c0 -37.333 -11.333 -78.166 -34 -122.499s-50.667 -79.833 -84 -106.5c-23.333 -18.667 -36.333 -31.334 -39 -38.001c-10.667 -25.333 -16.667 -40.333 -18 -45c-8 -22.667 -18 -34 -30 -34c-11.333 0 -24.333 9 -39 27
l-11 12l-42 -13c-48.667 -14.667 -92.334 -22 -131.001 -22c-75.333 0 -130.333 31.333 -165 94c-18.667 33.333 -28 62 -28 86c0 19.333 6.66699 43 20 71c26 55.333 76.667 107.333 152 156l36 23l-4 18c-2.66699 14 -2 24 2 30s9 10.333 15 13s19.667 6.33398 41 11.001z
" />
    <glyph glyph-name="afii10039" unicode="&#x425;" horiz-adv-x="591" 
d="M84 91c0 10.667 11.1699 37.502 33.5029 80.502s44.5 83.167 66.5 120.5l33 56l-9 6l-29.5 18.5l-34.5 22.5c-56 36 -92.833 61.5 -110.5 76.5s-28.167 29.167 -31.5 42.5c-0.666992 2 -1 4.66699 -1 8c0 10 11 15 33 15c12.667 0 25.667 -2.5 39 -7.5
s46.333 -19.5 99 -43.5l111 -52l34 33c45.333 45.333 89.333 84 132 116c23.333 17.333 50 28.333 80 33c5.33301 1.33301 12.333 2 21 2s14.334 -1.66699 17.001 -5c3.33301 -3.33301 8 -5.66602 14 -6.99902c6 -0.666992 9.33301 -7.33398 10 -20.001v-5
c0 -14.667 -6.33301 -37.334 -19 -68.001c-4 -10 -20.333 -25.667 -49 -47s-60.334 -47.333 -95.001 -78s-52 -47.667 -52 -51c0 -2.66699 15 -24.667 45 -66c45.333 -64 76.666 -110.667 93.999 -140s26 -51.666 26 -66.999c0 -6.66699 -0.666992 -11.334 -2 -14.001
c-0.666992 -4 -2.66699 -6 -6 -6c-2 0 -39.167 35.667 -111.5 107s-109.833 107 -112.5 107s-17 -23.167 -43 -69.5s-40.333 -74.5 -43 -84.5c-0.666992 -2.66699 -2.33398 -7.66699 -5.00098 -15s-4.33398 -12 -5.00098 -14c-6.66699 -22 -16 -41.833 -28 -59.5
s-22.333 -26.5 -31 -26.5c-12 0 -26.667 12.667 -44 38s-26 46.666 -26 63.999z" />
    <glyph glyph-name="afii10039" unicode="&#x445;" horiz-adv-x="591" 
d="M84 91c0 10.667 11.1699 37.502 33.5029 80.502s44.5 83.167 66.5 120.5l33 56l-9 6l-29.5 18.5l-34.5 22.5c-56 36 -92.833 61.5 -110.5 76.5s-28.167 29.167 -31.5 42.5c-0.666992 2 -1 4.66699 -1 8c0 10 11 15 33 15c12.667 0 25.667 -2.5 39 -7.5
s46.333 -19.5 99 -43.5l111 -52l34 33c45.333 45.333 89.333 84 132 116c23.333 17.333 50 28.333 80 33c5.33301 1.33301 12.333 2 21 2s14.334 -1.66699 17.001 -5c3.33301 -3.33301 8 -5.66602 14 -6.99902c6 -0.666992 9.33301 -7.33398 10 -20.001v-5
c0 -14.667 -6.33301 -37.334 -19 -68.001c-4 -10 -20.333 -25.667 -49 -47s-60.334 -47.333 -95.001 -78s-52 -47.667 -52 -51c0 -2.66699 15 -24.667 45 -66c45.333 -64 76.666 -110.667 93.999 -140s26 -51.666 26 -66.999c0 -6.66699 -0.666992 -11.334 -2 -14.001
c-0.666992 -4 -2.66699 -6 -6 -6c-2 0 -39.167 35.667 -111.5 107s-109.833 107 -112.5 107s-17 -23.167 -43 -69.5s-40.333 -74.5 -43 -84.5c-0.666992 -2.66699 -2.33398 -7.66699 -5.00098 -15s-4.33398 -12 -5.00098 -14c-6.66699 -22 -16 -41.833 -28 -59.5
s-22.333 -26.5 -31 -26.5c-12 0 -26.667 12.667 -44 38s-26 46.666 -26 63.999z" />
    <glyph glyph-name="afii10040" unicode="&#x426;" horiz-adv-x="609" 
d="M316 613c13.333 3.33301 24.334 5.00098 33.001 5.00098c22.667 0 39 -7.66699 49 -23c8.66699 -12 31 -87.667 67 -227c12 -47.333 18 -84 18 -110v-37l15 8c9.33301 5.33301 23.666 10 42.999 14c11.333 2.66699 20 4 26 4c5.33301 0 12.666 -2.33301 21.999 -7
c9.33301 -5.33301 14.833 -9.5 16.5 -12.5s2.83398 -9.83301 3.50098 -20.5v-11c0 -16.667 -11 -66.667 -33 -150c-19.333 -73.333 -34 -119.333 -44 -138c-7.33301 -13.333 -15 -20 -23 -20c-5.33301 0 -11.333 2.33301 -18 7c-8 5.33301 -17.5 16.333 -28.5 33
s-18.167 31 -21.5 43c-1.33301 5.33301 -2 9.66602 -2 12.999c0 10 6.66699 37.333 20 82c4 13.333 6 23 6 29c0 1.33301 -0.333008 2 -1 2c-4 0 -13.5 -3.16699 -28.5 -9.5s-27.167 -12.5 -36.5 -18.5c-23.333 -14.667 -61.666 -33 -114.999 -55s-97.333 -37.333 -132 -46
c-18 -4.66699 -34 -7 -48 -7c-19.333 0 -35.333 5 -48 15s-25 26.333 -37 49c-8 16 -13 28.167 -15 36.5s-3 21.833 -3 40.5c0 27.333 2.83301 96 8.5 206s10.5 182.667 14.5 218c0.666992 12 1.66699 19.333 3 22s4.33301 4 9 4c6.66699 0 10.667 -2.33301 12 -7
c5.33301 -18 12.666 -97.667 21.999 -239c7.33301 -104.667 12.5 -168.834 15.5 -192.501s7.5 -35.5 13.5 -35.5h2c1.33301 0.666992 2.33301 1 3 1c28 8 83 31.667 165 71c34.667 16.667 59.667 32.334 75 47.001c10.667 10.667 17 18.167 19 22.5s3 12.5 3 24.5
c0 20.667 -16.667 91 -50 211c-20 74 -30 114.667 -30 122c0 19.333 10 31.333 30 36z" />
    <glyph glyph-name="afii10040" unicode="&#x446;" horiz-adv-x="609" 
d="M316 613c13.333 3.33301 24.334 5.00098 33.001 5.00098c22.667 0 39 -7.66699 49 -23c8.66699 -12 31 -87.667 67 -227c12 -47.333 18 -84 18 -110v-37l15 8c9.33301 5.33301 23.666 10 42.999 14c11.333 2.66699 20 4 26 4c5.33301 0 12.666 -2.33301 21.999 -7
c9.33301 -5.33301 14.833 -9.5 16.5 -12.5s2.83398 -9.83301 3.50098 -20.5v-11c0 -16.667 -11 -66.667 -33 -150c-19.333 -73.333 -34 -119.333 -44 -138c-7.33301 -13.333 -15 -20 -23 -20c-5.33301 0 -11.333 2.33301 -18 7c-8 5.33301 -17.5 16.333 -28.5 33
s-18.167 31 -21.5 43c-1.33301 5.33301 -2 9.66602 -2 12.999c0 10 6.66699 37.333 20 82c4 13.333 6 23 6 29c0 1.33301 -0.333008 2 -1 2c-4 0 -13.5 -3.16699 -28.5 -9.5s-27.167 -12.5 -36.5 -18.5c-23.333 -14.667 -61.666 -33 -114.999 -55s-97.333 -37.333 -132 -46
c-18 -4.66699 -34 -7 -48 -7c-19.333 0 -35.333 5 -48 15s-25 26.333 -37 49c-8 16 -13 28.167 -15 36.5s-3 21.833 -3 40.5c0 27.333 2.83301 96 8.5 206s10.5 182.667 14.5 218c0.666992 12 1.66699 19.333 3 22s4.33301 4 9 4c6.66699 0 10.667 -2.33301 12 -7
c5.33301 -18 12.666 -97.667 21.999 -239c7.33301 -104.667 12.5 -168.834 15.5 -192.501s7.5 -35.5 13.5 -35.5h2c1.33301 0.666992 2.33301 1 3 1c28 8 83 31.667 165 71c34.667 16.667 59.667 32.334 75 47.001c10.667 10.667 17 18.167 19 22.5s3 12.5 3 24.5
c0 20.667 -16.667 91 -50 211c-20 74 -30 114.667 -30 122c0 19.333 10 31.333 30 36z" />
    <glyph glyph-name="afii10041" unicode="&#x427;" horiz-adv-x="471" 
d="M59 573c7.33301 4 13.333 5.99902 18 5.99902c2 0 5.16699 -0.333008 9.5 -1s7.83301 -1 10.5 -1c3.33301 0 5 -1.66699 5 -5c0 -6 -3.33301 -13.333 -10 -22c-13.333 -19.333 -20 -49.666 -20 -90.999c0 -23.333 2.33301 -44 7 -62
c7.33301 -31.333 21.166 -61.833 41.499 -91.5s39.5 -47.167 57.5 -52.5c6.66699 -1.33301 11.334 -2 14.001 -2c14.667 0 30.667 10 48 30c42 46 63 109 63 189v10c0 3.33301 -0.166992 7.83301 -0.5 13.5s-0.5 9.5 -0.5 11.5c0 18 2.83301 29.5 8.5 34.5
s19.5 9.83301 41.5 14.5c14 3.33301 24.667 5 32 5c4.66699 0 8.33398 -1.33301 11.001 -4c4.66699 -4.66699 9.66699 -7 15 -7c10 0 15 -23.667 15 -71c0 -34 5.66699 -102 17 -204s19.666 -159.667 24.999 -173c2.66699 -6 4 -14 4 -24
c0 -21.333 -8.33301 -48.333 -25 -81c-8.66699 -17.333 -17.334 -26 -26.001 -26c-6 0 -13.333 3.33301 -22 10c-10 8.66699 -20.333 22.667 -31 42c-14 26 -24 62.333 -30 109c-3.33301 18 -5.66602 33.667 -6.99902 47l-2 15l-21 -20c-30 -28 -63.333 -42 -100 -42
c-22 0 -41 3.83301 -57 11.5s-34 21.5 -54 41.5c-28.667 28.667 -51.667 63.667 -69 105s-26 82 -26 122c0 33.333 6 66.833 18 100.5s25.333 54.5 40 62.5z" />
    <glyph glyph-name="afii10041" unicode="&#x447;" horiz-adv-x="471" 
d="M59 573c7.33301 4 13.333 5.99902 18 5.99902c2 0 5.16699 -0.333008 9.5 -1s7.83301 -1 10.5 -1c3.33301 0 5 -1.66699 5 -5c0 -6 -3.33301 -13.333 -10 -22c-13.333 -19.333 -20 -49.666 -20 -90.999c0 -23.333 2.33301 -44 7 -62
c7.33301 -31.333 21.166 -61.833 41.499 -91.5s39.5 -47.167 57.5 -52.5c6.66699 -1.33301 11.334 -2 14.001 -2c14.667 0 30.667 10 48 30c42 46 63 109 63 189v10c0 3.33301 -0.166992 7.83301 -0.5 13.5s-0.5 9.5 -0.5 11.5c0 18 2.83301 29.5 8.5 34.5
s19.5 9.83301 41.5 14.5c14 3.33301 24.667 5 32 5c4.66699 0 8.33398 -1.33301 11.001 -4c4.66699 -4.66699 9.66699 -7 15 -7c10 0 15 -23.667 15 -71c0 -34 5.66699 -102 17 -204s19.666 -159.667 24.999 -173c2.66699 -6 4 -14 4 -24
c0 -21.333 -8.33301 -48.333 -25 -81c-8.66699 -17.333 -17.334 -26 -26.001 -26c-6 0 -13.333 3.33301 -22 10c-10 8.66699 -20.333 22.667 -31 42c-14 26 -24 62.333 -30 109c-3.33301 18 -5.66602 33.667 -6.99902 47l-2 15l-21 -20c-30 -28 -63.333 -42 -100 -42
c-22 0 -41 3.83301 -57 11.5s-34 21.5 -54 41.5c-28.667 28.667 -51.667 63.667 -69 105s-26 82 -26 122c0 33.333 6 66.833 18 100.5s25.333 54.5 40 62.5z" />
    <glyph glyph-name="afii10042" unicode="&#x428;" horiz-adv-x="660" 
d="M505 634c18 4 30.332 6.00195 36.999 6.00195c7.33301 0 12 -2 14 -6c2.66699 -3.33301 7.33398 -5.66602 14.001 -6.99902c6 -0.666992 10.333 -7 13 -19c3.33301 -17.333 12.666 -49.333 27.999 -96c18 -55.333 30.333 -99 37 -131c8 -37.333 12 -82.666 12 -135.999
c0 -46.667 -2 -80.667 -6 -102s-13.667 -48.333 -29 -81c-26.667 -56.667 -62 -85 -106 -85c-38 0 -79 20.667 -123 62c-27.333 26.667 -55.666 67 -84.999 121l-26 48l-13 -31c-20 -45.333 -42.5 -80.333 -67.5 -105s-50.833 -37 -77.5 -37
c-38.667 0 -71.334 26 -98.001 78c-18.667 36.667 -28 76.667 -28 120c1.33301 79.333 24 164.333 68 255c10.667 22 22.5 41 35.5 57s23.5 24 31.5 24c7.33301 0 11 -3 11 -9s-4 -18 -12 -36c-34.667 -76.667 -52 -158.334 -52 -245.001c0 -48.667 7 -84.667 21 -108l9 -15
l17 17c18 17.333 34.333 44.166 49 80.499s25.334 76.166 32.001 119.499c3.33301 24.667 5 42.334 5 53.001s-1 26 -3 46s-3 36 -3 48c0 20 3.66699 33.667 11 41s22.333 12.666 45 15.999c12 2 21 3 27 3s13.667 -2.33301 23 -7c10.667 -5.33301 17.167 -12.333 19.5 -21
s3.5 -30 3.5 -64c0 -30.667 4.66699 -64.334 14 -101.001c23.333 -89.333 55.666 -161.333 96.999 -216c8.66699 -11.333 19.5 -22.833 32.5 -34.5s21.5 -17.5 25.5 -17.5c3.33301 0 8.33301 7.33301 15 22s11.334 28.334 14.001 41.001c2 11.333 3 26.666 3 45.999
c0 48.667 -4 91 -12 127c-6 27.333 -18 69.333 -36 126c-20 60.667 -30 99.667 -30 117c0 11.333 3.16699 19.333 9.5 24s17.5 8.66699 33.5 12z" />
    <glyph glyph-name="afii10042" unicode="&#x448;" horiz-adv-x="660" 
d="M505 634c18 4 30.332 6.00195 36.999 6.00195c7.33301 0 12 -2 14 -6c2.66699 -3.33301 7.33398 -5.66602 14.001 -6.99902c6 -0.666992 10.333 -7 13 -19c3.33301 -17.333 12.666 -49.333 27.999 -96c18 -55.333 30.333 -99 37 -131c8 -37.333 12 -82.666 12 -135.999
c0 -46.667 -2 -80.667 -6 -102s-13.667 -48.333 -29 -81c-26.667 -56.667 -62 -85 -106 -85c-38 0 -79 20.667 -123 62c-27.333 26.667 -55.666 67 -84.999 121l-26 48l-13 -31c-20 -45.333 -42.5 -80.333 -67.5 -105s-50.833 -37 -77.5 -37
c-38.667 0 -71.334 26 -98.001 78c-18.667 36.667 -28 76.667 -28 120c1.33301 79.333 24 164.333 68 255c10.667 22 22.5 41 35.5 57s23.5 24 31.5 24c7.33301 0 11 -3 11 -9s-4 -18 -12 -36c-34.667 -76.667 -52 -158.334 -52 -245.001c0 -48.667 7 -84.667 21 -108l9 -15
l17 17c18 17.333 34.333 44.166 49 80.499s25.334 76.166 32.001 119.499c3.33301 24.667 5 42.334 5 53.001s-1 26 -3 46s-3 36 -3 48c0 20 3.66699 33.667 11 41s22.333 12.666 45 15.999c12 2 21 3 27 3s13.667 -2.33301 23 -7c10.667 -5.33301 17.167 -12.333 19.5 -21
s3.5 -30 3.5 -64c0 -30.667 4.66699 -64.334 14 -101.001c23.333 -89.333 55.666 -161.333 96.999 -216c8.66699 -11.333 19.5 -22.833 32.5 -34.5s21.5 -17.5 25.5 -17.5c3.33301 0 8.33301 7.33301 15 22s11.334 28.334 14.001 41.001c2 11.333 3 26.666 3 45.999
c0 48.667 -4 91 -12 127c-6 27.333 -18 69.333 -36 126c-20 60.667 -30 99.667 -30 117c0 11.333 3.16699 19.333 9.5 24s17.5 8.66699 33.5 12z" />
    <glyph glyph-name="afii10043" unicode="&#x429;" horiz-adv-x="723" 
d="M465 684c18 4 30 6.00098 36 6.00098s10.667 -2 14 -6c4 -4 8.33301 -6 13 -6c12 0 24.333 -20 37 -60c21.333 -66 32 -146.667 32 -242c0 -12.667 -0.666992 -32.334 -2 -59.001c-4 -50.667 -6.66699 -79 -8 -85s-2 -10.667 -2 -14s0.333008 -5.33301 1 -6l26 6
c14 4 27 6 39 6c27.333 0 48.333 -8.33301 63 -25c6 -7.33301 9 -20 9 -38c0 -22.667 -4.33301 -46.334 -13 -71.001c-18.667 -52 -47.334 -104 -86.001 -156c-21.333 -28 -44.5 -55.167 -69.5 -81.5s-40.5 -39.5 -46.5 -39.5c-4.66699 0 -13 4.83301 -25 14.5
s-18 16.167 -18 19.5c0 2 -3.66699 8.33301 -11 19c-7.33301 11.333 -11.666 23.333 -12.999 36l-3 19l53 55c52 54 88.667 99.667 110 137c7.33301 12 10 18.333 8 19c-0.666992 0 -2 -0.333008 -4 -1c-10.667 -2.66699 -19.667 -5 -27 -7
c-9.33301 -2.66699 -15.833 -5.83398 -19.5 -9.50098s-9.83398 -14.834 -18.501 -33.501c-25.333 -51.333 -54.333 -77 -87 -77c-17.333 0 -34.666 6.33301 -51.999 19c-42 30 -78.667 71 -110 123c-8.66699 14 -13.667 21 -15 21c-0.666992 0 -2 -2 -4 -6
c-20.667 -53.333 -38.667 -88.333 -54 -105c-19.333 -21.333 -39.333 -32 -60 -32c-17.333 0 -35.333 7 -54 21c-25.333 19.333 -47.5 48.833 -66.5 88.5s-30.833 81.5 -35.5 125.5c-1.33301 13.333 -2 24.333 -2 33c0 76.667 14.667 149.334 44 218.001
c5.33301 13.333 12.166 26.5 20.499 39.5s14.166 19.5 17.499 19.5c2 0 3 -2 3 -6c0 -6 -1.33301 -14 -4 -24c-11.333 -46 -17 -100.333 -17 -163c0 -50.667 3 -86.334 9 -107.001c7.33301 -27.333 18.333 -53.666 33 -78.999s26 -38 34 -38c1.33301 0 2.33301 0.333008 3 1
c9.33301 8 17.833 27.167 25.5 57.5s12.167 64.5 13.5 102.5c0.666992 10 1 21.667 1 35c0 17.333 -4.66699 40.333 -14 69c-17.333 56 -26 96 -26 120c0 14 2.66699 23 8 27c3.33301 2.66699 17.333 6.66699 42 12c14 2.66699 24.667 4 32 4
c5.33301 0 10.333 -1.33301 15 -4c6 -4.66699 11.333 -7 16 -7c6 0 12.5 -11.167 19.5 -33.5s12.5 -49.833 16.5 -82.5c4.66699 -36 20.334 -82.167 47.001 -138.5s54.334 -101.5 83.001 -135.5c9.33301 -12 15.333 -18 18 -18c6 0 15 32.333 27 97
c4.66699 30 7 68.667 7 116c0 90.667 -11.667 166.667 -35 228c-10.667 28.667 -16 46.334 -16 53.001c0 12.667 14 22.334 42 29.001z" />
    <glyph glyph-name="afii10043" unicode="&#x449;" horiz-adv-x="723" 
d="M465 684c18 4 30 6.00098 36 6.00098s10.667 -2 14 -6c4 -4 8.33301 -6 13 -6c12 0 24.333 -20 37 -60c21.333 -66 32 -146.667 32 -242c0 -12.667 -0.666992 -32.334 -2 -59.001c-4 -50.667 -6.66699 -79 -8 -85s-2 -10.667 -2 -14s0.333008 -5.33301 1 -6l26 6
c14 4 27 6 39 6c27.333 0 48.333 -8.33301 63 -25c6 -7.33301 9 -20 9 -38c0 -22.667 -4.33301 -46.334 -13 -71.001c-18.667 -52 -47.334 -104 -86.001 -156c-21.333 -28 -44.5 -55.167 -69.5 -81.5s-40.5 -39.5 -46.5 -39.5c-4.66699 0 -13 4.83301 -25 14.5
s-18 16.167 -18 19.5c0 2 -3.66699 8.33301 -11 19c-7.33301 11.333 -11.666 23.333 -12.999 36l-3 19l53 55c52 54 88.667 99.667 110 137c7.33301 12 10 18.333 8 19c-0.666992 0 -2 -0.333008 -4 -1c-10.667 -2.66699 -19.667 -5 -27 -7
c-9.33301 -2.66699 -15.833 -5.83398 -19.5 -9.50098s-9.83398 -14.834 -18.501 -33.501c-25.333 -51.333 -54.333 -77 -87 -77c-17.333 0 -34.666 6.33301 -51.999 19c-42 30 -78.667 71 -110 123c-8.66699 14 -13.667 21 -15 21c-0.666992 0 -2 -2 -4 -6
c-20.667 -53.333 -38.667 -88.333 -54 -105c-19.333 -21.333 -39.333 -32 -60 -32c-17.333 0 -35.333 7 -54 21c-25.333 19.333 -47.5 48.833 -66.5 88.5s-30.833 81.5 -35.5 125.5c-1.33301 13.333 -2 24.333 -2 33c0 76.667 14.667 149.334 44 218.001
c5.33301 13.333 12.166 26.5 20.499 39.5s14.166 19.5 17.499 19.5c2 0 3 -2 3 -6c0 -6 -1.33301 -14 -4 -24c-11.333 -46 -17 -100.333 -17 -163c0 -50.667 3 -86.334 9 -107.001c7.33301 -27.333 18.333 -53.666 33 -78.999s26 -38 34 -38c1.33301 0 2.33301 0.333008 3 1
c9.33301 8 17.833 27.167 25.5 57.5s12.167 64.5 13.5 102.5c0.666992 10 1 21.667 1 35c0 17.333 -4.66699 40.333 -14 69c-17.333 56 -26 96 -26 120c0 14 2.66699 23 8 27c3.33301 2.66699 17.333 6.66699 42 12c14 2.66699 24.667 4 32 4
c5.33301 0 10.333 -1.33301 15 -4c6 -4.66699 11.333 -7 16 -7c6 0 12.5 -11.167 19.5 -33.5s12.5 -49.833 16.5 -82.5c4.66699 -36 20.334 -82.167 47.001 -138.5s54.334 -101.5 83.001 -135.5c9.33301 -12 15.333 -18 18 -18c6 0 15 32.333 27 97
c4.66699 30 7 68.667 7 116c0 90.667 -11.667 166.667 -35 228c-10.667 28.667 -16 46.334 -16 53.001c0 12.667 14 22.334 42 29.001z" />
    <glyph glyph-name="afii10044" unicode="&#x42a;" horiz-adv-x="659" 
d="M526 226c-6.66699 3.33301 -31.668 4.99805 -75.001 4.99805c-14 0 -23 -0.333008 -27 -1c-28.667 -3.33301 -63.667 -10.666 -105 -21.999l-28 -9l4 -22c5.33301 -27.333 13.833 -48.666 25.5 -63.999s25.834 -23 42.501 -23c22 0 50.333 12.667 85 38
s60.334 52.333 77.001 81c5.33301 9.33301 5.66602 15 0.999023 17zM231.999 628.998c24.667 24.667 47.3301 37 67.9971 37c10 0 19.667 -2.33301 29 -7c12 -4.66699 18 -14 18 -28c0 -13.333 -7 -52.333 -21 -117c-18.667 -83.333 -28 -137 -28 -161l1 -5h2
c7.33301 0 20 2 38 6c48 11.333 91.333 17 130 17h25c37.333 -2 63 -5.66699 77 -11c40 -16 66.333 -33.333 79 -52c5.33301 -7.33301 8 -18.666 8 -33.999v-24c-0.666992 -24 -3 -43.167 -7 -57.5s-12.333 -34.5 -25 -60.5c-21.333 -44 -51.333 -81.333 -90 -112
c-57.333 -45.333 -114.666 -68 -171.999 -68h-11c-22 0.666992 -39.333 4.16699 -52 10.5s-28 18.5 -46 36.5c-32 32 -55.333 73.667 -70 125c-4 17.333 -8.66699 26 -14 26h-2h-3c-7.33301 0 -19.166 2.16699 -35.499 6.5s-26.166 7.83301 -29.499 10.5
c-2.66699 2 -4 7 -4 15c0 18.667 4.33301 36.667 13 54c6.66699 14 19 26.667 37 38l27 18l7 55c3.33301 26 8.83301 59.667 16.5 101s12.5 63.666 14.5 66.999c1.33301 2 -8 -1 -28 -9c-62 -26 -110.667 -39.333 -146 -40c-24.667 0 -37 1.33301 -37 4s12.667 10.667 38 24
c74 36.667 138.333 81.667 193 135z" />
    </font>
</defs>
</svg>
